<svg width="325" height="259" viewBox="0 0 325 259" fill="none" xmlns="http://www.w3.org/2000/svg">
<path d="M162.39 116.7L137.909 130.83V159.09L162.39 173.22L186.869 159.09V130.83L162.39 116.7ZM164.729 145.5L162.81 167.1H161.939L160.019 145.56L142.53 133.5L142.979 132.72L162.42 141.81L181.769 132.72L181.979 133.08L182.219 133.5L164.729 145.5Z" fill="#FFE892"/>
<path d="M64.1399 81.8703C58.2599 92.0703 61.7398 105.12 71.9398 111C61.7398 105.12 48.6899 108.6 42.8099 118.8C48.6899 108.6 39.0899 92.0403 21.3599 81.7803C39.0599 92.0403 58.2299 92.0703 64.1399 81.8703Z" fill="#FFE892"/>
<path d="M117.869 43.7701C107.669 49.6501 104.16 62.7001 110.07 72.9001C104.19 62.7001 91.1395 59.1901 80.9395 65.1001C91.1395 59.2201 91.1094 40.0501 80.8794 22.29C91.0794 40.0501 107.669 49.6501 117.869 43.7701Z" fill="#FFE892"/>
<path d="M243.33 65.1301C233.13 59.2501 220.08 62.7301 214.2 72.9301C220.08 62.7301 216.6 49.6801 206.4 43.8001C216.6 49.6801 233.16 40.0801 243.42 22.3501C233.19 40.0801 233.13 59.2501 243.33 65.1301Z" fill="#FFE892"/>
<path d="M281.43 118.89C275.55 108.69 262.5 105.18 252.3 111.09C262.5 105.21 266.01 92.1597 260.1 81.9597C265.98 92.1597 285.15 92.1297 302.91 81.8997C285.18 92.0997 275.55 108.69 281.43 118.89Z" fill="#FFE892"/>
<path d="M221.64 177.18L228.84 192.48C228.84 192.48 237.78 185.19 248.22 169.32C256.83 156.24 253.77 144.96 253.77 144.96H324.78C324.78 144.96 307.68 145.41 266.49 191.13C230.04 231.57 214.77 258.301 214.77 258.301C214.77 258.301 205.41 227.22 196.44 192.33C205.92 188.22 214.41 182.82 221.64 177.18Z" fill="#664DD4"/>
<path d="M103.14 177.18L95.9399 192.48C95.9399 192.48 87.0001 185.19 76.5601 169.32C67.9501 156.24 71.01 144.96 71.01 144.96H0C0 144.96 17.1 145.41 58.29 191.13C94.74 231.57 110.01 258.301 110.01 258.301C110.01 258.301 119.37 227.22 128.34 192.33C118.86 188.22 110.37 182.82 103.14 177.18Z" fill="#664DD4"/>
<path d="M162.42 203.7L167.76 188.13H157.05L162.42 203.7Z" fill="#664DD4"/>
<path d="M162.39 97.3198C115.14 97.3198 81.2402 144.96 81.2402 144.96C81.2402 144.96 115.14 192.6 162.39 192.6C209.64 192.6 243.54 144.96 243.54 144.96C243.54 144.96 209.64 97.3198 162.39 97.3198ZM162.39 178.14C129.48 178.14 102.78 144.96 102.78 144.96C102.78 144.96 130.74 111.78 162.39 111.78C195.3 111.78 222 144.96 222 144.96C222 144.96 195.3 178.14 162.39 178.14Z" fill="#664DD4"/>
<path d="M162.39 86.22L157.05 101.79H167.76L162.39 86.22Z" fill="#664DD4"/>
<path d="M154.5 90.6301L162.39 69.81L170.28 90.6301C180.39 91.6501 189.81 94.5301 198.36 98.4601L162.39 0L126.42 98.4601C134.97 94.5301 144.39 91.6501 154.5 90.6301Z" fill="#664DD4"/>
</svg>
