<svg width="512" height="512" viewBox="0 0 512 512" fill="none" xmlns="http://www.w3.org/2000/svg">
<g clip-path="url(#clip0_1002_2)">
<path d="M491.482 20.5304C503.924 67.0525 502.141 116.587 486.146 162.261H486.134L349.752 25.8785V25.8662C395.425 9.87117 444.96 8.08848 491.482 20.5304Z" fill="#FF7124"/>
<path d="M110.908 255.637L218.042 130.947H218.054L259.498 82.7033C285.845 56.3564 316.79 37.4107 349.752 25.8662V25.8785L486.134 162.261H486.146C474.602 195.222 455.656 226.167 429.309 252.514L381.066 293.958L256.363 401.092L220.009 364.737L183.642 328.37L147.275 292.004L110.908 255.637ZM364.05 237.773C388.86 212.975 388.86 172.748 364.05 147.95C339.252 123.14 299.025 123.14 274.227 147.95C249.417 172.748 249.417 212.975 274.227 237.773C299.025 262.583 339.252 262.583 364.05 237.773Z" fill="#F2D59F"/>
<path d="M381.066 293.958C383.205 350.021 362.87 406.797 320.073 449.593C306.93 462.724 292.484 473.752 277.129 482.653L256.363 401.092L381.066 293.958Z" fill="#F2D59F"/>
<path d="M364.05 147.95C388.86 172.748 388.86 212.975 364.05 237.773C339.252 262.583 299.025 262.583 274.227 237.773C249.417 212.975 249.417 172.748 274.227 147.95C299.025 123.14 339.252 123.14 364.05 147.95Z" fill="#8ECAC1"/>
<path d="M256.363 401.092L207.259 419.177C193.76 424.156 178.601 420.825 168.434 410.645L160.012 402.223L220.009 364.737L256.363 401.092Z" fill="#E6B263"/>
<path d="M220.009 364.737L160.012 402.223H160L134.895 377.118L183.642 328.37L220.009 364.737Z" fill="#E6B263"/>
<path d="M218.042 130.947L110.908 255.637L29.3591 234.884C38.2603 219.528 49.2884 205.082 62.4188 191.939C105.216 149.142 161.967 128.807 218.042 130.947Z" fill="#F2D59F"/>
<path d="M183.642 328.37L134.895 377.118L109.789 352L147.275 292.004L183.642 328.37Z" fill="#E6B263"/>
<path d="M147.275 292.004L109.789 352L101.355 343.579C91.1878 333.399 87.856 318.252 92.8229 304.753L110.908 255.637L147.275 292.004Z" fill="#E6B263"/>
<path d="M35.5063 417.345C32.3601 417.345 29.2128 416.144 26.8129 413.744C22.0119 408.943 22.0119 401.158 26.8129 396.356L52.0656 371.103C56.8666 366.304 64.6514 366.304 69.4536 371.103C74.2546 375.904 74.2546 383.689 69.4536 388.491L44.2009 413.744C41.7998 416.144 38.6536 417.345 35.5063 417.345Z" fill="#5E2A41"/>
<path d="M12.2945 511.988C9.14711 511.988 6.00097 510.787 3.59987 508.385C-1.2011 503.584 -1.19987 495.8 3.6011 490.999L87.781 406.831C92.582 402.031 100.367 402.031 105.168 406.832C109.969 411.633 109.968 419.418 105.165 424.219L20.9854 508.387C18.5868 510.788 15.4406 511.988 12.2945 511.988Z" fill="#5E2A41"/>
<path d="M90.1059 505.619C86.9585 505.619 83.8136 504.418 81.4125 502.018C76.6115 497.217 76.6115 489.432 81.4125 484.63L123.496 442.548C128.297 437.748 136.082 437.749 140.883 442.548C145.684 447.349 145.684 455.133 140.883 459.936L98.7993 502.018C96.3994 504.418 93.252 505.619 90.1059 505.619Z" fill="#5E2A41"/>
<path d="M256.363 413.386C253.216 413.386 250.071 412.185 247.67 409.785L102.215 264.33C97.4138 259.529 97.4138 251.744 102.215 246.942C107.016 242.142 114.801 242.142 119.603 246.942L265.058 392.399C269.859 397.2 269.859 404.984 265.058 409.787C262.657 412.187 259.51 413.386 256.363 413.386Z" fill="#5E2A41"/>
<path d="M319.139 268.675C298.885 268.675 279.847 260.787 265.53 246.464C251.212 232.152 243.324 213.114 243.324 192.86C243.324 172.606 251.212 153.568 265.534 139.252C279.846 124.933 298.884 117.045 319.138 117.045C339.391 117.045 358.429 124.933 372.746 139.255C387.063 153.567 394.951 172.605 394.951 192.859C394.951 213.11 387.064 232.147 372.746 246.463C372.745 246.465 372.745 246.464 372.741 246.467C358.427 260.788 339.39 268.675 319.139 268.675ZM319.139 141.637C305.455 141.637 292.593 146.965 282.923 156.641C273.242 166.315 267.914 179.178 267.914 192.861C267.914 206.545 273.242 219.407 282.918 229.077C292.593 238.758 305.455 244.086 319.139 244.086C332.822 244.086 345.685 238.758 355.354 229.082C355.357 229.081 355.358 229.08 355.359 229.077C365.035 219.407 370.363 206.545 370.363 192.861C370.363 179.178 365.035 166.315 355.359 156.646C345.685 146.965 332.822 141.637 319.139 141.637Z" fill="#5E2A41"/>
<path d="M109.778 364.296C107.553 364.296 105.301 363.694 103.275 362.426C97.5158 358.829 95.7651 351.243 99.3625 345.486L136.848 285.489C140.447 279.73 148.032 277.977 153.79 281.577C159.549 285.174 161.299 292.76 157.702 298.517L120.216 358.514C117.884 362.247 113.877 364.296 109.778 364.296Z" fill="#5E2A41"/>
<path d="M134.895 389.412C131.748 389.412 128.602 388.211 126.201 385.811C121.4 381.01 121.399 373.225 126.2 368.423L174.947 319.676C179.748 314.876 187.533 314.876 192.334 319.676C197.135 324.477 197.136 332.262 192.335 337.063L143.588 385.81C141.188 388.212 138.041 389.412 134.895 389.412Z" fill="#5E2A41"/>
<path d="M160.024 414.519C155.925 414.519 151.919 412.471 149.586 408.738C145.989 402.979 147.741 395.394 153.498 391.797L213.495 354.312C219.253 350.711 226.838 352.464 230.437 358.224C234.034 363.983 232.282 371.567 226.525 375.164L166.528 412.65C164.501 413.916 162.25 414.519 160.024 414.519Z" fill="#5E2A41"/>
<path d="M218.049 143.241C215.213 143.241 212.363 142.265 210.043 140.272C204.893 135.847 204.304 128.086 208.729 122.934L250.173 74.6911C254.597 69.5422 262.358 68.952 267.511 73.378C272.661 77.8028 273.25 85.5643 268.824 90.7144L227.379 138.958C224.949 141.788 221.509 143.241 218.049 143.241Z" fill="#5E2A41"/>
<path d="M194.578 433.731C181.732 433.731 169.1 428.709 159.735 419.332L151.643 411.24C151.529 411.134 151.417 411.027 151.307 410.916L92.6704 352.278C79.1564 338.747 74.6923 318.43 81.287 300.508L99.3721 251.389C99.8799 250.012 100.629 248.737 101.584 247.626L208.717 122.936C213.145 117.787 220.905 117.198 226.055 121.623C231.205 126.049 231.793 133.81 227.368 138.96L121.679 261.966L104.361 309.001C101.064 317.962 103.299 328.126 110.056 334.891L168.371 393.208C168.484 393.313 168.597 393.42 168.706 393.531L177.128 401.953C183.886 408.719 194.04 410.95 203.005 407.645L250.034 390.323L421.298 243.19C426.45 238.764 434.212 239.355 438.635 244.503C443.061 249.653 442.473 257.416 437.322 261.84L264.374 410.417C263.263 411.373 261.989 412.123 260.613 412.629L211.508 430.714C206.002 432.745 200.268 433.731 194.578 433.731Z" fill="#5E2A41"/>
<path d="M429.309 264.808C426.163 264.808 423.017 263.607 420.616 261.207C415.815 256.406 415.815 248.621 420.616 243.819C445.063 219.373 463.206 190.566 474.543 158.196C488.971 116.995 491.295 73.0571 481.349 30.6623C438.958 20.7173 395.016 23.041 353.815 37.4685C321.445 48.8052 292.637 66.9493 268.191 91.3955C263.39 96.1952 255.606 96.1965 250.803 91.3955C246.002 86.5945 246.002 78.8097 250.803 74.0075C277.881 46.9303 309.805 26.8277 345.686 14.2615C393.829 -2.59535 445.342 -4.53664 494.659 8.65404C498.905 9.79005 502.222 13.1071 503.358 17.3536C516.548 66.6714 514.609 118.185 497.748 166.325C485.182 202.206 465.081 234.129 438.002 261.207C435.603 263.607 432.456 264.808 429.309 264.808Z" fill="#5E2A41"/>
<path d="M486.134 174.556C482.987 174.556 479.842 173.355 477.441 170.955L341.058 34.5719C336.258 29.7709 336.258 21.9861 341.058 17.1839C345.863 12.3829 353.646 12.3854 358.446 17.1839L494.829 153.567C499.629 158.368 499.629 166.153 494.829 170.955C492.426 173.355 489.28 174.556 486.134 174.556Z" fill="#5E2A41"/>
<path d="M110.92 267.931C109.897 267.931 108.867 267.803 107.875 267.551L26.3261 246.798C22.5923 245.848 19.5187 243.201 18.0261 239.65C16.5323 236.098 16.7905 232.051 18.722 228.718C28.2846 212.221 40.0589 196.925 53.7205 183.251C97.0965 139.875 157.14 116.314 218.451 118.66C225.052 118.876 230.341 124.294 230.341 130.947C230.341 137.736 224.843 143.241 218.053 143.241H218.04C217.884 143.241 217.728 143.239 217.572 143.232C163.061 141.144 109.67 162.074 71.1122 200.633C62.8946 208.856 55.4466 217.739 48.8581 227.159L113.687 243.657C119.139 244.916 123.209 249.802 123.209 255.635C123.209 262.426 117.711 267.931 110.92 267.931Z" fill="#5E2A41"/>
<path d="M277.129 494.948C275.512 494.948 273.891 494.629 272.363 493.986C268.81 492.492 266.164 489.42 265.214 485.687L244.448 404.126C242.772 397.545 246.749 390.853 253.329 389.179C259.905 387.499 266.601 391.479 268.277 398.059L284.85 463.155C294.271 456.567 303.155 449.116 311.382 440.898C349.937 402.342 370.86 348.954 368.777 294.427C368.519 287.642 373.81 281.932 380.594 281.673C387.367 281.386 393.09 286.705 393.349 293.489C395.689 354.834 372.15 414.902 328.764 458.288C315.088 471.951 299.79 483.727 283.292 493.29C281.396 494.391 279.265 494.948 277.129 494.948Z" fill="#5E2A41"/>
<g clip-path="url(#clip1_1002_2)">
<path d="M388.089 228.802V157.74C388.089 154.914 386.582 152.304 384.135 150.891L322.593 115.36C320.146 113.947 317.132 113.947 314.685 115.36L253.143 150.891C250.696 152.304 249.189 154.914 249.189 157.74V228.802C249.189 231.627 250.696 234.238 253.143 235.651L314.685 271.182C317.132 272.595 320.146 272.595 322.593 271.182L384.135 235.651C386.582 234.238 388.089 231.627 388.089 228.802Z" stroke="#673910" stroke-width="14.3785"/>
<path d="M380.9 229.217V157.325L318.639 193.271V265.163L380.9 229.217Z" fill="#AA561F"/>
<path d="M256.378 229.217L318.639 265.163V193.271L256.378 157.325V229.217Z" fill="#F1B155"/>
<path d="M380.9 157.325L318.639 121.378L256.378 157.325L318.639 193.271L380.9 157.325Z" fill="#C56D28"/>
</g>
</g>
<defs>
<clipPath id="clip0_1002_2">
<rect width="512" height="512" fill="white"/>
</clipPath>
<clipPath id="clip1_1002_2">
<rect width="153.85" height="172.542" fill="white" transform="translate(242 107)"/>
</clipPath>
</defs>
</svg>
