<svg width="59" height="58" viewBox="0 0 59 58" fill="none" xmlns="http://www.w3.org/2000/svg">
<g clip-path="url(#clip0_1_2)">
<path d="M13.08 29.014L6.54 35.554L11.237 40.252L17.777 33.712L29.014 44.949L40.251 33.712L46.791 40.252L51.49 35.555L44.95 29.015L51.49 22.475L46.792 17.823L40.252 24.363L29.015 13.126L17.777 24.317L11.237 17.777L6.54 22.475L13.08 29.014Z" fill="#021114"/>
<path d="M6.54 22.475L0 29.014L6.54 35.554L13.08 29.014L6.54 22.475ZM29.015 13.126L40.252 24.363L46.792 17.823L29.014 0L11.237 17.777L17.777 24.317L29.015 13.126ZM51.49 22.475L44.95 29.015L51.49 35.555L58.03 29.015L51.49 22.475ZM29.014 44.949L17.777 33.712L11.237 40.252L29.014 58.029L46.791 40.252L40.251 33.712L29.014 44.949ZM29.014 35.549L35.554 29.009L29.014 22.469L22.474 29.009L29.014 35.549Z" fill="#F0B90B"/>
</g>
<defs>
<clipPath id="clip0_1_2">
<rect width="59" height="58" fill="white"/>
</clipPath>
</defs>
</svg>
