<svg width="156" height="29" viewBox="0 0 156 29" fill="none" xmlns="http://www.w3.org/2000/svg">
<g clip-path="url(#clip0_413_2)">
<path d="M23.1797 3H15.4521V10.7276H23.1797V3Z" fill="#00C489"/>
<path d="M15.457 10.7275H7.72949V18.4551H15.457V10.7275Z" fill="#00C489"/>
<path opacity="0.5" d="M7.72755 10.7275H0V18.4551H7.72755V10.7275Z" fill="#00C489"/>
<path opacity="0.5" d="M15.457 3H7.72949V10.7276H15.457V3Z" fill="#00C489"/>
<path opacity="0.5" d="M15.457 18.4551H7.72949V26.1826H15.457V18.4551Z" fill="#00C489"/>
<path opacity="0.5" d="M23.1797 10.7275H15.4521V18.4551H23.1797V10.7275Z" fill="#00C489"/>
<path opacity="0.2" d="M7.72755 3H0V10.7276H7.72755V3Z" fill="#00C489"/>
<path opacity="0.2" d="M23.1797 18.4551H15.4521V26.1826H23.1797V18.4551Z" fill="#00C489"/>
<path d="M7.72755 18.4551H0V26.1826H7.72755V18.4551Z" fill="#00C489"/>
<path d="M39.4771 13.3858C40.4626 13.6673 41.3073 14.1366 41.9174 14.8874C43.2313 16.5299 43.0436 19.2987 41.5419 20.8942C40.2749 22.2551 38.5855 22.7713 36.8022 22.8182C34.0335 22.9121 31.3117 22.8182 28.5429 22.8652C28.0267 22.8652 27.9798 22.6305 28.0267 22.2082C28.1675 17.5154 28.0737 12.7757 28.1206 8.036C28.1206 7.1913 28.0737 6.3466 28.0267 5.5019C28.0267 5.07955 28.1675 4.93876 28.5899 4.93876C31.4994 4.98569 34.4089 4.84491 37.2715 5.03262C38.4447 5.07955 39.6179 5.40804 40.6034 6.11196C42.0112 7.09744 42.4336 8.50528 42.2459 10.1008C42.0581 11.5556 41.2604 12.588 39.8525 13.1511C39.7587 13.198 39.6648 13.198 39.571 13.245C39.6179 13.245 39.571 13.2919 39.4771 13.3858ZM31.9687 17.5154C32.0156 18.2662 32.0156 18.9702 32.0156 19.721C32.0156 19.9556 32.0156 20.1434 32.391 20.1434C33.7989 20.0964 35.1598 20.1903 36.5676 20.0964C38.5386 19.9087 39.0548 18.407 38.8201 16.9053C38.6324 15.7791 37.9285 15.1221 36.8022 15.0282C35.3005 14.8874 33.8458 14.9813 32.3441 14.9813C32.0156 14.9813 32.0156 15.169 32.0156 15.4036C31.9687 16.1076 31.9687 16.8115 31.9687 17.5154ZM34.362 12.1656C35.019 12.1656 35.629 12.1656 36.286 12.1656C37.4592 12.1187 38.3039 11.3679 38.3509 10.1947C38.4447 8.8807 37.7877 7.98907 36.5676 7.80136C35.1598 7.56672 33.705 7.75443 32.2972 7.7075C32.0156 7.7075 31.9687 7.84829 31.9687 8.12985C31.9687 9.34998 31.9687 10.5701 31.9217 11.7902C31.9217 12.0718 32.0156 12.2126 32.2972 12.1656C33.0011 12.1656 33.705 12.1656 34.362 12.1656Z" fill="white"/>
<path d="M140.374 11.1333C141.406 9.77237 142.767 9.25617 144.316 9.35002C145.911 9.44388 147.131 10.1478 147.741 11.7433C148.211 11.2271 148.492 10.664 148.962 10.2416C150.322 9.16231 151.871 9.06846 153.467 9.63159C154.968 10.1478 155.531 11.4148 155.766 12.8696C156.095 14.6998 155.907 16.5769 155.954 18.4071C156.001 19.6742 155.954 20.9412 156.001 22.2083C156.001 22.7714 155.813 22.9122 155.297 22.8653C154.405 22.8183 153.514 22.8183 152.622 22.8653C152.153 22.8653 152.012 22.6775 152.012 22.2552C152.059 19.768 152.059 17.3278 152.059 14.8406C152.059 14.3244 152.059 13.8082 151.871 13.3389C151.496 12.2595 150.322 11.8841 149.431 12.635C148.539 13.3858 148.258 14.4182 148.164 15.4976C148.023 17.7032 148.164 19.8619 148.164 22.0675C148.164 22.8653 148.164 22.8653 147.366 22.8653C146.521 22.8653 145.677 22.8653 144.832 22.8653C144.41 22.8653 144.222 22.7245 144.269 22.3021C144.316 19.6272 144.269 16.9993 144.316 14.3244C144.316 13.949 144.269 13.6205 144.128 13.292C143.753 12.2595 142.626 11.931 141.735 12.635C140.89 13.292 140.608 14.2775 140.515 15.2629C140.327 17.4216 140.515 19.5803 140.468 21.6921C140.468 23.006 140.655 22.8653 139.294 22.8653C138.544 22.8653 137.746 22.8653 136.995 22.8653C136.62 22.8653 136.432 22.7245 136.479 22.3491C136.62 18.3133 136.526 14.2305 136.573 10.1947C136.573 9.8193 136.713 9.67852 137.089 9.67852C137.98 9.67852 138.872 9.67852 139.764 9.67852C140.233 9.67852 140.374 9.8193 140.327 10.2886C140.327 10.5232 140.28 10.7579 140.374 11.1333Z" fill="white"/>
<path d="M94.1487 11.2269C95.4158 9.77217 96.9644 9.20903 98.7477 9.39674C101.141 9.63138 102.69 11.3208 102.83 13.8549C102.924 15.2627 102.877 16.6236 102.877 18.0315C102.877 19.3924 102.924 20.7533 102.924 22.1142C102.924 22.865 102.924 22.865 102.126 22.865C101.329 22.865 100.531 22.865 99.7331 22.865C98.9823 22.865 98.9823 22.865 98.9823 22.1142C98.9823 19.5801 99.0292 17.046 99.0292 14.5588C99.0292 13.4325 98.5599 12.6348 97.7152 12.3532C96.8236 12.0716 95.7912 12.4001 95.1342 13.2448C94.5242 13.9957 94.2895 14.9342 94.2426 15.8728C94.1957 18.0315 94.1957 20.1902 94.2426 22.3019C94.2426 22.7712 94.1018 22.865 93.6794 22.865C92.7409 22.8181 91.7554 22.865 90.8169 22.865C90.4414 22.865 90.3006 22.7243 90.3476 22.3488C90.3476 18.313 90.3945 14.2303 90.3945 10.1945C90.3945 9.77217 90.5353 9.63138 90.9576 9.63138C91.8493 9.63138 92.7409 9.67831 93.6325 9.63138C94.0549 9.63138 94.1957 9.77217 94.1957 10.1945C94.1487 10.523 94.1487 10.8046 94.1487 11.2269Z" fill="white"/>
<path d="M71.1523 16.2955C71.1993 14.1369 71.8093 12.2128 73.5457 10.758C74.3434 10.1011 75.282 9.6787 76.2675 9.53791C77.6753 9.30327 79.1301 9.30327 80.491 9.77255C82.5558 10.4765 83.8698 11.9312 84.386 14.043C84.8553 15.8263 84.8083 17.6095 84.1514 19.2989C83.072 22.2085 80.5848 23.3817 77.4876 23.2409C76.0798 23.1939 74.7658 22.8654 73.6395 21.9738C71.8093 20.5191 71.1993 18.5481 71.1523 16.2955ZM75.1412 16.2017C75.1412 16.9995 75.1881 17.7034 75.3289 18.4073C75.6105 19.7213 76.5021 20.566 77.8161 20.6129C79.1301 20.7068 80.0686 20.0498 80.3971 18.6889C80.8195 17.0464 80.8195 15.357 80.3502 13.7145C80.0217 12.5883 79.2239 11.9782 78.1446 11.9782C76.8775 11.9312 76.0328 12.4474 75.5636 13.5737C75.1881 14.4184 75.0943 15.357 75.1412 16.2017Z" fill="white"/>
<path d="M128.923 23.2407C127.937 23.1937 126.952 23.0999 126.06 22.7244C124.324 22.0675 123.151 20.8004 122.588 19.0641C121.978 17.2339 121.978 15.3568 122.635 13.5266C123.526 10.8986 125.544 9.63158 128.219 9.39694C129.533 9.30308 130.847 9.39694 132.114 9.96007C134.038 10.8517 135.164 12.4003 135.587 14.4651C135.915 16.1545 135.868 17.797 135.211 19.3926C134.366 21.4574 132.818 22.7244 130.612 23.0999C130.002 23.1468 129.486 23.2407 128.923 23.2407ZM126.154 16.1545C126.154 17.14 126.201 17.8909 126.389 18.6887C126.717 19.8149 127.515 20.5188 128.688 20.6127C129.908 20.7065 130.941 20.1903 131.269 19.0641C131.879 17.2339 131.879 15.3568 131.222 13.5266C130.753 12.3065 129.908 11.8841 128.547 11.978C127.515 12.0718 126.764 12.7757 126.436 13.8551C126.201 14.6998 126.154 15.4976 126.154 16.1545Z" fill="white"/>
<path d="M68.4317 14.4185C68.3378 14.4185 68.1971 14.4185 68.1032 14.4185C67.2585 14.5123 66.6484 14.4654 66.4138 13.386C66.1792 12.4944 65.3345 11.9782 64.302 12.0251C63.1758 12.072 62.378 12.5883 62.0026 13.6207C61.3925 15.3101 61.3925 17.0464 61.9087 18.7827C62.3311 20.1906 63.3166 20.7068 64.5836 20.6599C65.7099 20.6129 66.5546 19.7213 66.7423 18.4073C66.8361 17.8911 66.9769 17.7503 67.4931 17.7503C68.2909 17.7973 69.0887 17.7973 69.8865 17.7503C70.3557 17.7503 70.4965 17.8911 70.4027 18.3604C70.1211 20.566 68.5255 22.3962 66.1792 23.0062C64.302 23.4755 62.4249 23.3347 60.6886 22.3962C58.8584 21.4107 57.9668 19.7682 57.6383 17.7503C57.4036 16.3425 57.4975 14.8877 57.9668 13.5268C58.8584 11.0396 60.9702 9.491 63.5981 9.39714C64.7713 9.35022 65.9445 9.39714 67.0239 9.86642C68.8071 10.6642 69.8395 11.9782 70.1211 13.9022C70.168 14.3246 70.0272 14.4654 69.6518 14.4185C69.3233 14.3715 68.854 14.4185 68.4317 14.4185Z" fill="white"/>
<path d="M119.443 14.4179C119.396 14.4179 119.349 14.4179 119.349 14.4179C118.364 14.5587 117.66 14.4179 117.331 13.2447C117.097 12.3531 116.205 11.9777 115.267 12.0246C114.234 12.0715 113.436 12.4939 113.061 13.4794C112.357 15.3565 112.357 17.2805 113.061 19.1576C113.53 20.3308 114.704 20.7062 115.736 20.6124C116.768 20.5185 117.566 19.6738 117.754 18.5476C117.895 17.7498 117.895 17.7498 118.692 17.7498C119.443 17.7498 120.147 17.7498 120.898 17.7498C121.414 17.7498 121.555 17.9375 121.461 18.4537C121.133 20.7062 119.302 22.6303 117.003 23.0996C115.454 23.4281 113.906 23.3342 112.451 22.7711C110.245 21.9264 109.119 20.1431 108.744 17.8906C108.509 16.4358 108.556 14.981 109.072 13.5263C109.917 11.0861 112.123 9.49052 114.797 9.39666C116.299 9.34973 117.754 9.49052 119.021 10.3352C120.335 11.1799 121.039 12.4 121.273 13.9486C121.32 14.371 121.18 14.5118 120.757 14.4648C120.288 14.371 119.866 14.4179 119.443 14.4179Z" fill="white"/>
<path d="M50.083 16.1076C50.083 15.0752 50.083 13.9959 50.083 12.9635C50.083 12.5411 49.9422 12.4472 49.5668 12.4472C48.3936 12.4472 48.3936 12.4472 48.3936 11.2741C48.3936 11.1802 48.3936 11.1333 48.3936 11.0394C48.3936 9.77237 48.3936 9.77236 49.6606 9.6785C49.9422 9.6785 50.036 9.58465 50.036 9.30308C50.036 8.55223 50.036 7.75446 50.036 7.00362C50.036 6.58126 50.1299 6.39355 50.5522 6.39355C51.4908 6.39355 52.4763 6.39355 53.4148 6.39355C53.7433 6.39355 53.8841 6.53434 53.8841 6.86283C53.8841 7.61368 53.931 8.41145 53.8841 9.1623C53.8841 9.53772 53.978 9.6785 54.4003 9.6785C55.1042 9.63157 55.8551 9.6785 56.559 9.6785C56.9344 9.6785 57.0752 9.81929 57.0752 10.1947C57.0752 10.7578 57.0752 11.3679 57.0752 11.931C57.0752 12.3065 56.9344 12.4472 56.559 12.4003C55.8081 12.4003 55.1042 12.4003 54.3534 12.4003C54.0249 12.4003 53.8841 12.4942 53.8841 12.8696C53.8841 14.7937 53.8841 16.7646 53.8841 18.6887C53.8841 19.9557 54.3065 20.3311 55.5735 20.2842C55.7143 20.2842 55.8551 20.2842 55.9489 20.2842C57.0283 20.1904 57.0283 20.1904 57.0283 21.2697C57.0283 21.3166 57.0283 21.3636 57.0283 21.3636C57.0283 22.8653 57.1691 22.6306 55.8082 22.9122C54.4942 23.1937 53.1802 23.1937 51.9601 22.5368C50.6461 21.8328 50.1299 20.6127 50.036 19.2049C49.9891 18.2194 50.083 17.1401 50.083 16.1076Z" fill="white"/>
<path d="M47.5475 16.2481C47.5475 18.266 47.5475 20.237 47.5475 22.2549C47.5475 22.7242 47.4067 22.9119 46.9374 22.865C45.9988 22.818 45.1072 22.818 44.1687 22.865C43.7463 22.865 43.5586 22.7242 43.5586 22.3018C43.6055 20.7532 43.6524 19.2046 43.6524 17.656C43.6524 15.2627 43.6055 12.9163 43.5586 10.523C43.5586 9.63135 43.5586 9.63135 44.4502 9.63135C45.2011 9.63135 45.9988 9.63135 46.7497 9.63135C47.5005 9.63135 47.5005 9.63135 47.5005 10.3822C47.5475 12.3532 47.5475 14.3241 47.5475 16.2481Z" fill="white"/>
<path d="M89.4087 16.3425C89.4087 18.3135 89.4087 20.2845 89.4087 22.2085C89.4087 22.6778 89.3149 22.9124 88.7987 22.8655C87.8601 22.8186 86.9685 22.8655 86.0299 22.8655C85.6076 22.8655 85.4668 22.7247 85.4668 22.3024C85.5137 21.6454 85.4668 21.0353 85.4668 20.3783C85.6076 17.0465 85.4668 13.7146 85.4668 10.3827C85.4668 9.67875 85.4668 9.67875 86.2176 9.67875C87.0623 9.67875 87.907 9.72568 88.7517 9.67875C89.2679 9.63182 89.4087 9.86646 89.4087 10.3357C89.3618 12.3067 89.4087 14.3246 89.4087 16.3425Z" fill="white"/>
<path d="M105.831 22.8653C105.315 22.8653 104.799 22.8653 104.236 22.8653C103.907 22.8653 103.813 22.7246 103.813 22.443C103.813 21.5044 103.813 20.6128 103.813 19.6742C103.813 19.2988 103.954 19.158 104.33 19.205C105.315 19.205 106.301 19.205 107.333 19.205C107.708 19.205 107.849 19.3458 107.849 19.7681C107.849 20.6597 107.849 21.5514 107.849 22.443C107.849 22.8184 107.708 22.9592 107.333 22.9592C106.864 22.8653 106.348 22.8653 105.831 22.8653Z" fill="white"/>
<path d="M45.5764 8.45855C45.1072 8.45855 44.6379 8.45855 44.1686 8.45855C43.7932 8.45855 43.6055 8.31777 43.6055 7.94234C43.6055 7.09764 43.6055 6.29987 43.6055 5.45517C43.6055 5.07975 43.7463 4.93896 44.1217 4.93896C45.1072 4.93896 46.0926 4.93896 47.0781 4.93896C47.4536 4.93896 47.5943 5.12667 47.5943 5.5021C47.5943 6.29987 47.5943 7.09764 47.5943 7.94234C47.5943 8.31777 47.4536 8.50548 47.0312 8.45855C46.515 8.45855 46.0457 8.45855 45.5764 8.45855Z" fill="white"/>
<path d="M87.4847 8.45855C87.0154 8.45855 86.4992 8.45855 86.0299 8.45855C85.6545 8.45855 85.4668 8.31777 85.4668 7.94234C85.4668 7.09764 85.4668 6.29987 85.4668 5.45517C85.4668 5.07975 85.6076 4.93896 85.983 4.93896C86.9685 4.93896 87.954 4.93896 88.9864 4.93896C89.3149 4.93896 89.4557 5.12667 89.4557 5.40824C89.4557 6.25294 89.4557 7.09764 89.4557 7.94234C89.4557 8.31777 89.268 8.45855 88.9395 8.41162C88.4233 8.45855 87.954 8.45855 87.4847 8.45855Z" fill="white"/>
</g>
<defs>
<clipPath id="clip0_413_2">
<rect width="156" height="29" fill="white"/>
</clipPath>
</defs>
</svg>
