<svg width="500" height="500" viewBox="0 0 500 500" fill="none" xmlns="http://www.w3.org/2000/svg">
<circle cx="250" cy="250" r="250" fill="#F0B90B"/>
<path d="M250 80L397.224 165V335L250 420L102.776 335V165L250 80Z" fill="white"/>
<path d="M255.5 135.474L250 132.298L244.5 135.474L153.567 187.974L148.067 191.149V197.5V302.5V308.851L153.567 312.026L244.5 364.526L250 367.702L255.5 364.526L346.433 312.026L351.933 308.851V302.5V197.5V191.149L346.433 187.974L255.5 135.474Z" fill="white" stroke="#F0B90B" stroke-width="22"/>
<path fill-rule="evenodd" clip-rule="evenodd" d="M249.364 210.777L369.833 142.445L370.05 114.084L249.025 182.731L130.163 112.89L129.951 140.613L249.364 210.777ZM218.445 269.25L98.5 200L73.9378 214.181L194.435 283.75V421.612L218.445 407.75V269.25ZM402.945 200L283 269.25V407.75L307.01 421.612V283.75L427.507 214.181L402.945 200Z" fill="#F0B90B"/>
<g clip-path="url(#clip0_35_97)">
<mask id="path-5-outside-1_35_97" maskUnits="userSpaceOnUse" x="366.691" y="-0.583252" width="133" height="150" fill="black">
<rect fill="white" x="366.691" y="-0.583252" width="133" height="150"/>
<path d="M433.146 12.596C433.338 12.4851 433.575 12.4851 433.767 12.596L486.912 43.2792C487.104 43.3901 487.222 43.595 487.222 43.8169V105.183C487.222 105.405 487.104 105.61 486.912 105.721L433.767 136.404C433.575 136.515 433.338 136.515 433.146 136.404L380.001 105.721C379.809 105.61 379.691 105.405 379.691 105.183V43.8168C379.691 43.595 379.809 43.3901 380.001 43.2792L433.146 12.596Z"/>
</mask>
<path d="M433.767 12.596L439.975 1.84282L433.767 12.596ZM433.146 12.596L426.938 1.84282L433.146 12.596ZM380.001 43.2792L386.209 54.0323L380.001 43.2792ZM380.001 105.721L386.209 94.9678L380.001 105.721ZM433.767 136.404L439.975 147.157L433.767 136.404ZM433.146 136.404L426.938 147.157L433.146 136.404ZM486.912 105.721L480.703 94.9678L486.912 105.721ZM486.912 43.2792L493.12 32.526L486.912 43.2792ZM474.805 43.8169V105.183H499.639V43.8169H474.805ZM480.703 94.9678L427.558 125.651L439.975 147.157L493.12 116.474L480.703 94.9678ZM439.354 125.651L386.209 94.9678L373.793 116.474L426.938 147.157L439.354 125.651ZM392.107 105.183V43.8168H367.274V105.183H392.107ZM427.558 23.3491L480.703 54.0323L493.12 32.526L439.975 1.84282L427.558 23.3491ZM386.209 54.0323L439.354 23.3491L426.938 1.84282L373.793 32.526L386.209 54.0323ZM439.975 1.84282C435.941 -0.486094 430.971 -0.48612 426.938 1.84282L439.354 23.3491C435.705 25.4563 431.208 25.4562 427.558 23.3491L439.975 1.84282ZM392.107 43.8168C392.107 48.0311 389.859 51.9252 386.209 54.0323L373.793 32.526C369.759 34.855 367.274 39.159 367.274 43.8168H392.107ZM386.209 94.9678C389.859 97.075 392.107 100.969 392.107 105.183H367.274C367.274 109.841 369.759 114.145 373.793 116.474L386.209 94.9678ZM427.558 125.651C431.208 123.544 435.705 123.544 439.354 125.651L426.938 147.157C430.971 149.486 435.941 149.486 439.975 147.157L427.558 125.651ZM474.805 105.183C474.805 100.969 477.054 97.0749 480.703 94.9678L493.12 116.474C497.154 114.145 499.639 109.841 499.639 105.183H474.805ZM499.639 43.8169C499.639 39.159 497.154 34.855 493.12 32.526L480.703 54.0323C477.054 51.9252 474.805 48.0311 474.805 43.8169H499.639Z" fill="#673910" mask="url(#path-5-outside-1_35_97)"/>
<path d="M487.222 105.542V43.4583L433.456 74.4999V136.583L487.222 105.542Z" fill="#AA561F"/>
<path d="M379.691 105.542L433.456 136.583V74.4999L379.691 43.4583V105.542Z" fill="#F1B155"/>
<path d="M487.222 43.4584L433.456 12.4167L379.691 43.4584L433.456 74.5001L487.222 43.4584Z" fill="#C56D28"/>
</g>
<defs>
<clipPath id="clip0_35_97">
<rect width="132.858" height="149" fill="white" transform="translate(367.142)"/>
</clipPath>
</defs>
</svg>
