<svg width="500" height="500" viewBox="0 0 500 500" fill="none" xmlns="http://www.w3.org/2000/svg">
<path d="M492.492 310.476C459.103 444.406 323.454 525.913 189.508 492.515C55.6183 459.126 -25.8888 323.468 7.51521 189.549C40.8898 55.6048 176.539 -25.9084 310.443 7.48085C444.379 40.8702 525.882 176.543 492.489 310.479L492.491 310.476H492.492Z" fill="#F7931A"/>
<path d="M360.239 214.381C365.215 181.112 339.886 163.228 305.25 151.298L316.486 106.231L289.053 99.3956L278.115 143.276C270.903 141.477 263.496 139.782 256.135 138.102L267.152 93.9322L239.736 87.0964L228.494 132.148C222.526 130.789 216.664 129.446 210.977 128.031L211.009 127.89L173.177 118.443L165.88 147.743C165.88 147.743 186.233 152.409 185.804 152.696C196.913 155.468 198.922 162.822 198.588 168.651L185.79 219.993C186.554 220.187 187.547 220.468 188.642 220.908C187.726 220.681 186.752 220.432 185.742 220.191L167.802 292.112C166.444 295.488 162.998 300.553 155.232 298.629C155.506 299.028 135.293 293.653 135.293 293.653L121.672 325.056L157.372 333.955C164.014 335.621 170.522 337.363 176.931 339.002L165.579 384.586L192.981 391.421L204.223 346.322C211.709 348.354 218.974 350.228 226.085 351.995L214.881 396.882L242.316 403.718L253.667 358.22C300.446 367.073 335.621 363.504 350.426 321.192C362.357 287.126 349.833 267.476 325.222 254.662C343.147 250.529 356.649 238.739 360.249 214.385L360.24 214.379L360.239 214.381ZM297.56 302.273C289.082 336.339 231.725 317.924 213.129 313.306L228.193 252.916C246.788 257.559 306.421 266.745 297.561 302.273H297.56ZM306.044 213.888C298.31 244.874 250.571 229.132 235.085 225.271L248.743 170.501C264.229 174.361 314.101 181.566 306.047 213.888H306.044Z" fill="white"/>
<g clip-path="url(#clip0_35_43)">
<mask id="path-3-outside-1_35_43" maskUnits="userSpaceOnUse" x="366.691" y="-0.583252" width="133" height="150" fill="black">
<rect fill="white" x="366.691" y="-0.583252" width="133" height="150"/>
<path d="M433.146 12.596C433.338 12.4851 433.575 12.4851 433.767 12.596L486.912 43.2792C487.104 43.3901 487.222 43.595 487.222 43.8169V105.183C487.222 105.405 487.104 105.61 486.912 105.721L433.767 136.404C433.575 136.515 433.338 136.515 433.146 136.404L380.001 105.721C379.809 105.61 379.691 105.405 379.691 105.183V43.8168C379.691 43.595 379.809 43.3901 380.001 43.2792L433.146 12.596Z"/>
</mask>
<path d="M433.767 12.596L439.975 1.84282L433.767 12.596ZM433.146 12.596L426.938 1.84282L433.146 12.596ZM380.001 43.2792L386.209 54.0323L380.001 43.2792ZM380.001 105.721L386.209 94.9678L380.001 105.721ZM433.767 136.404L439.975 147.157L433.767 136.404ZM433.146 136.404L426.938 147.157L433.146 136.404ZM486.912 105.721L480.703 94.9678L486.912 105.721ZM486.912 43.2792L493.12 32.526L486.912 43.2792ZM474.805 43.8169V105.183H499.639V43.8169H474.805ZM480.703 94.9678L427.558 125.651L439.975 147.157L493.12 116.474L480.703 94.9678ZM439.354 125.651L386.209 94.9678L373.793 116.474L426.938 147.157L439.354 125.651ZM392.107 105.183V43.8168H367.274V105.183H392.107ZM427.559 23.3491L480.703 54.0323L493.12 32.526L439.975 1.84282L427.559 23.3491ZM386.209 54.0323L439.354 23.3491L426.938 1.84282L373.793 32.526L386.209 54.0323ZM439.975 1.84282C435.941 -0.486094 430.972 -0.48612 426.938 1.84282L439.354 23.3491C435.705 25.4563 431.208 25.4562 427.559 23.3491L439.975 1.84282ZM392.107 43.8168C392.107 48.0311 389.859 51.9252 386.209 54.0323L373.793 32.526C369.759 34.855 367.274 39.159 367.274 43.8168H392.107ZM386.209 94.9678C389.859 97.075 392.107 100.969 392.107 105.183H367.274C367.274 109.841 369.759 114.145 373.793 116.474L386.209 94.9678ZM427.558 125.651C431.208 123.544 435.705 123.544 439.354 125.651L426.938 147.157C430.971 149.486 435.941 149.486 439.975 147.157L427.558 125.651ZM474.805 105.183C474.805 100.969 477.054 97.0749 480.703 94.9678L493.12 116.474C497.154 114.145 499.639 109.841 499.639 105.183H474.805ZM499.639 43.8169C499.639 39.159 497.154 34.855 493.12 32.526L480.703 54.0323C477.054 51.9252 474.805 48.0311 474.805 43.8169H499.639Z" fill="#673910" mask="url(#path-3-outside-1_35_43)"/>
<path d="M487.222 105.542V43.4583L433.456 74.4999V136.583L487.222 105.542Z" fill="#AA561F"/>
<path d="M379.691 105.542L433.456 136.583V74.4999L379.691 43.4583V105.542Z" fill="#F1B155"/>
<path d="M487.222 43.4584L433.456 12.4167L379.691 43.4584L433.456 74.5001L487.222 43.4584Z" fill="#C56D28"/>
</g>
<defs>
<clipPath id="clip0_35_43">
<rect width="132.858" height="149" fill="white" transform="translate(367.142)"/>
</clipPath>
</defs>
</svg>
