<?xml version="1.0" encoding="UTF-8"?>
<svg width="115px" height="28px" viewBox="0 0 115 28" version="1.1" xmlns="http://www.w3.org/2000/svg" xmlns:xlink="http://www.w3.org/1999/xlink">
    <title>编组</title>
    <defs>
        <polygon id="path-1" points="0 0 18.552694 0 18.552694 6.82757368 0 6.82757368"></polygon>
        <polygon id="path-3" points="0 24 110 24 110 0 0 0"></polygon>
    </defs>
    <g id="页面-1" stroke="none" stroke-width="1" fill="none" fill-rule="evenodd">
        <g id="按钮规范&amp;-切图" transform="translate(-792.000000, -296.000000)">
            <g id="编组" transform="translate(792.000000, 296.000000)">
                <path d="M21.4460945,8.27802191 L23.1200989,9.95183688 L19.6884104,13.3548368 L14.6947007,8.41747231 L9.70058079,13.3548368 L2.4192155,6.13007558 C-1.29140533,11.5694615 -0.733540599,19.0735337 4.09321988,23.8993379 C6.82716724,26.6329759 10.3979117,28 13.9969596,28 C17.2055022,28 20.4415278,26.8843968 23.036009,24.7085604 L19.9115563,21.5840511 C16.145149,24.5129197 10.6772543,24.2623191 7.21767255,20.8031288 C5.43209523,19.0177536 4.48372519,16.6745767 4.42793872,14.3313998 L9.72847402,19.5755552 L14.6947007,14.6103006 L19.6884104,19.5476651 L26.2445515,13.075936 L27.9464491,14.7776411 L27.9464491,8.27802191 L21.4460945,8.27802191 Z" id="Fill-1" fill="#7650FF"></path>
                <g transform="translate(4.455668, 0.000000)">
                    <mask id="mask-2" fill="white">
                        <use xlink:href="#path-1"></use>
                    </mask>
                    <g id="Clip-4"></g>
                    <path d="M18.552694,3.28471319 C13.195962,-1.23471026 5.21726579,-1.09484971 0,3.73095447 L3.12486287,6.82757368 C4.93833343,5.20953888 7.22598901,4.37242632 9.51364458,4.37242632 C11.6060475,4.37242632 13.6705572,5.04219839 15.3999379,6.38092225 L18.552694,3.28471319 Z" id="Fill-3" fill="#7650FF" mask="url(#mask-2)"></path>
                </g>
                <g id="编组-10" transform="translate(5.000000, 2.000000)">
                    <path d="M47.142396,19.356618 C45.2308536,21.2451749 42.7628307,22.1223062 40.0814785,22.1223062 C33.1795053,22.1223062 30.2595612,17.3618914 30.2332459,12.5209703 C30.2062289,7.6540341 33.3651158,2.70659167 40.0814785,2.70659167 C42.6028338,2.70659167 44.9922617,3.66422921 46.9038041,5.55243452 L44.5673576,7.8132888 C43.3463283,6.61589031 41.7007458,6.05726841 40.0814785,6.05726841 C35.5955994,6.05726841 33.6573909,9.40899982 33.6840571,12.5209703 C33.7100215,15.605871 35.4892857,18.8243628 40.0814785,18.8243628 C41.7007458,18.8243628 43.5319388,18.1592195 44.7536698,16.9358059 L47.142396,19.356618 Z" id="Fill-5" fill="#FFFFFF"></path>
                    <path d="M51.2298616,15.1539111 C51.2298616,17.1486377 52.4242247,19.0104764 54.7866357,19.0104764 C57.1493975,19.0104764 58.3444623,17.1486377 58.3444623,15.1539111 C58.3444623,13.1859026 56.9634361,11.2706275 54.7866357,11.2706275 C52.4508909,11.2706275 51.2298616,13.1859026 51.2298616,15.1539111 M61.6093121,15.1539111 C61.6093121,18.9306732 59.0339228,21.9895588 54.7866357,21.9895588 C50.5393485,21.9895588 47.9909762,18.9306732 47.9909762,15.1539111 C47.9909762,11.4038671 50.5930317,8.31826332 54.7606712,8.31826332 C58.927609,8.31826332 61.6093121,11.4038671 61.6093121,15.1539111" id="Fill-7" fill="#FFFFFF"></path>
                    <mask id="mask-4" fill="white">
                        <use xlink:href="#path-3"></use>
                    </mask>
                    <g id="Clip-10"></g>
                    <path d="M63.8384273,21.696959 L67.076611,21.696959 L67.076611,8.53120056 L63.8384273,8.53120056 L63.8384273,21.696959 Z M67.3685352,4.88767798 C67.3685352,7.41430831 63.5465031,7.41430831 63.5465031,4.88767798 C63.5465031,2.36034452 67.3685352,2.36034452 67.3685352,4.88767798 L67.3685352,4.88767798 Z" id="Fill-9" fill="#FFFFFF" mask="url(#mask-4)"></path>
                    <path d="M79.632897,21.6969942 L79.632897,14.8353313 C79.632897,12.8402531 78.5441459,11.3243452 76.4736592,11.3243452 C74.4824692,11.3243452 73.1291618,12.9998594 73.1291618,14.994586 L73.1291618,21.6969942 L69.9172934,21.6969942 L69.9172934,8.55795395 L72.8105714,8.55795395 L73.0231989,10.3399895 C74.3501911,9.03677272 75.677885,8.37198102 77.3231166,8.37198102 C80.4020051,8.37198102 82.8710806,10.6852171 82.8710806,14.8082616 L82.8710806,21.6969942 L79.632897,21.6969942 Z" id="Fill-11" fill="#FFFFFF" mask="url(#mask-4)"></path>
                    <polygon id="Fill-12" fill="#FFFFFF" mask="url(#mask-4)" points="103.310619 21.6969942 100.336992 21.6969942 98.0279133 15.8457022 96.0630387 9.96769204 94.1255319 15.8984356 91.8694347 21.6969942 88.8958074 21.6969942 82.0741836 3.0789594 86.0025295 3.0789594 90.3827965 16.5108455 94.8956926 3.0789594 97.1784559 3.0789594 101.82363 16.5108455 106.070917 3.0789594 109.999965 3.0789594"></polygon>
                </g>
            </g>
        </g>
    </g>
</svg>