<svg width="500" height="500" viewBox="0 0 500 500" fill="none" xmlns="http://www.w3.org/2000/svg">
<path d="M250 0C388.084 0 500 111.939 500 250C500 388.084 388.084 500 250 500C111.939 500 0 388.073 0 250C0 111.939 111.939 0 250 0Z" fill="#F5AC37"/>
<path d="M259.214 267.652H354.21C356.235 267.652 357.191 267.652 357.337 264.997C358.114 255.333 358.114 245.613 357.337 235.937C357.337 234.059 356.404 233.282 354.367 233.282H165.309C162.969 233.282 162.339 234.059 162.339 236.252V264.063C162.339 267.652 162.339 267.652 166.085 267.652H259.214V267.652ZM346.728 200.781C346.998 200.072 346.998 199.296 346.728 198.598C345.142 195.145 343.263 191.848 341.081 188.754C337.796 183.467 333.926 178.596 329.516 174.219C327.434 171.576 325.027 169.202 322.327 167.188C308.804 155.679 292.728 147.534 275.448 143.439C266.729 141.482 257.819 140.548 248.886 140.627H164.983C162.643 140.627 162.328 141.56 162.328 143.597V199.06C162.328 201.4 162.328 202.03 165.298 202.03H345.603C345.603 202.03 347.167 201.715 347.482 200.781H346.717H346.728ZM346.728 300.153C344.073 299.861 341.396 299.861 338.741 300.153H165.467C163.127 300.153 162.339 300.153 162.339 303.281V357.506C162.339 360.004 162.339 360.634 165.467 360.634H245.466C249.291 360.926 253.116 360.656 256.863 359.857C268.473 359.025 279.892 356.505 290.782 352.354C294.742 350.981 298.567 349.192 302.178 347.044H303.269C322.023 337.29 337.256 321.967 346.863 303.157C346.863 303.157 347.955 300.794 346.728 300.176V300.153ZM130.94 388.748V387.814V351.409V339.067V302.347C130.94 300.311 130.94 300.007 128.443 300.007H94.5347C92.6559 300.007 91.8796 300.007 91.8796 297.509V267.82H128.128C130.153 267.82 130.94 267.82 130.94 265.165V235.791C130.94 233.912 130.94 233.451 128.443 233.451H94.5347C92.6559 233.451 91.8796 233.451 91.8796 230.954V203.458C91.8796 201.737 91.8796 201.276 94.3772 201.276H127.97C130.31 201.276 130.94 201.276 130.94 198.306V114.087C130.94 111.59 130.94 110.96 134.068 110.96H251.249C259.754 111.297 268.203 112.231 276.561 113.772C293.785 116.956 310.334 123.11 325.466 131.896C335.501 137.803 344.737 144.935 352.961 153.148C359.149 159.572 364.729 166.524 369.679 173.927C374.595 181.431 378.679 189.452 381.885 197.833C382.279 200.016 384.371 201.49 386.554 201.118H414.522C418.11 201.118 418.11 201.118 418.268 204.561V230.189C418.268 232.686 417.334 233.316 414.825 233.316H393.259C391.076 233.316 390.446 233.316 390.604 236.129C391.459 245.646 391.459 255.198 390.604 264.715C390.604 267.37 390.604 267.685 393.585 267.685H418.257C419.348 269.092 418.257 270.498 418.257 271.915C418.414 273.727 418.414 275.56 418.257 277.372V296.283C418.257 298.938 417.48 299.726 415.129 299.726H385.598C383.539 299.332 381.536 300.648 381.064 302.696C374.032 320.977 362.782 337.368 348.247 350.509C342.937 355.29 337.357 359.79 331.53 363.941C325.274 367.541 319.188 371.288 312.776 374.258C300.974 379.568 288.599 383.483 275.898 385.969C263.838 388.129 251.609 389.108 239.335 388.939H130.895V388.781L130.94 388.748Z" fill="#FEFEFD"/>
<g clip-path="url(#clip0_35_48)">
<mask id="path-3-outside-1_35_48" maskUnits="userSpaceOnUse" x="366.691" y="-0.583252" width="133" height="150" fill="black">
<rect fill="white" x="366.691" y="-0.583252" width="133" height="150"/>
<path d="M433.146 12.596C433.338 12.4851 433.575 12.4851 433.767 12.596L486.912 43.2792C487.104 43.3901 487.222 43.595 487.222 43.8169V105.183C487.222 105.405 487.104 105.61 486.912 105.721L433.767 136.404C433.575 136.515 433.338 136.515 433.146 136.404L380.001 105.721C379.809 105.61 379.691 105.405 379.691 105.183V43.8168C379.691 43.595 379.809 43.3901 380.001 43.2792L433.146 12.596Z"/>
</mask>
<path d="M433.767 12.596L439.975 1.84282L433.767 12.596ZM433.146 12.596L426.938 1.84282L433.146 12.596ZM380.001 43.2792L386.209 54.0323L380.001 43.2792ZM380.001 105.721L386.209 94.9678L380.001 105.721ZM433.767 136.404L439.975 147.157L433.767 136.404ZM433.146 136.404L426.938 147.157L433.146 136.404ZM486.912 105.721L480.703 94.9678L486.912 105.721ZM486.912 43.2792L493.12 32.526L486.912 43.2792ZM474.805 43.8169V105.183H499.639V43.8169H474.805ZM480.703 94.9678L427.558 125.651L439.975 147.157L493.12 116.474L480.703 94.9678ZM439.354 125.651L386.209 94.9678L373.793 116.474L426.938 147.157L439.354 125.651ZM392.107 105.183V43.8168H367.274V105.183H392.107ZM427.559 23.3491L480.703 54.0323L493.12 32.526L439.975 1.84282L427.559 23.3491ZM386.209 54.0323L439.354 23.3491L426.938 1.84282L373.793 32.526L386.209 54.0323ZM439.975 1.84282C435.941 -0.486094 430.972 -0.48612 426.938 1.84282L439.354 23.3491C435.705 25.4563 431.208 25.4562 427.559 23.3491L439.975 1.84282ZM392.107 43.8168C392.107 48.0311 389.859 51.9252 386.209 54.0323L373.793 32.526C369.759 34.855 367.274 39.159 367.274 43.8168H392.107ZM386.209 94.9678C389.859 97.075 392.107 100.969 392.107 105.183H367.274C367.274 109.841 369.759 114.145 373.793 116.474L386.209 94.9678ZM427.558 125.651C431.208 123.544 435.705 123.544 439.354 125.651L426.938 147.157C430.971 149.486 435.941 149.486 439.975 147.157L427.558 125.651ZM474.805 105.183C474.805 100.969 477.054 97.0749 480.703 94.9678L493.12 116.474C497.154 114.145 499.639 109.841 499.639 105.183H474.805ZM499.639 43.8169C499.639 39.159 497.154 34.855 493.12 32.526L480.703 54.0323C477.054 51.9252 474.805 48.0311 474.805 43.8169H499.639Z" fill="#673910" mask="url(#path-3-outside-1_35_48)"/>
<path d="M487.222 105.542V43.4583L433.456 74.4999V136.583L487.222 105.542Z" fill="#AA561F"/>
<path d="M379.691 105.542L433.456 136.583V74.4999L379.691 43.4583V105.542Z" fill="#F1B155"/>
<path d="M487.222 43.4584L433.456 12.4167L379.691 43.4584L433.456 74.5001L487.222 43.4584Z" fill="#C56D28"/>
</g>
<defs>
<clipPath id="clip0_35_48">
<rect width="132.858" height="149" fill="white" transform="translate(367.142)"/>
</clipPath>
</defs>
</svg>
