<svg width="48" height="48" viewBox="0 0 48 48" fill="none" xmlns="http://www.w3.org/2000/svg">
<path fill-rule="evenodd" clip-rule="evenodd" d="M24 48C37.2548 48 48 37.2548 48 24C48 10.7452 37.2548 0 24 0C10.7452 0 0 10.7452 0 24C0 37.2548 10.7452 48 24 48ZM28.6623 12C30.8787 12.372 33.0021 13.0385 35.0015 13.9529C38.4733 19.0212 40.1952 24.7559 39.5288 31.3585C36.8769 33.2959 34.2885 34.4739 31.7621 35.2489C31.1422 34.4119 30.5842 33.5129 30.1037 32.5675C31.0182 32.2265 31.8861 31.808 32.7231 31.312C32.5728 31.2047 32.43 31.09 32.2842 30.9729C32.2196 30.9209 32.1543 30.8685 32.0876 30.8161C27.0969 33.1255 21.6241 33.1255 16.5714 30.8161C16.3699 30.9866 16.1529 31.1571 15.9359 31.312C16.7728 31.808 17.6408 32.2265 18.5553 32.5675C18.0748 33.5129 17.5168 34.4119 16.8968 35.2489C14.3689 34.4739 11.796 33.2959 9.13012 31.3585C8.58765 25.6548 9.6726 19.8736 13.6869 13.9529C15.6723 13.0385 17.7957 12.372 20.0276 12C20.2911 12.4805 20.6166 13.1314 20.8336 13.6429C23.1585 13.3019 25.4989 13.3019 27.8563 13.6429C28.0733 13.1314 28.3833 12.4805 28.6623 12ZM16.4938 24.7714C16.4938 26.4608 17.7338 27.8402 19.2527 27.8402C20.7871 27.8402 22.0115 26.4608 22.0115 24.7714C22.0425 23.082 20.7871 21.7025 19.2527 21.7025C17.7028 21.7025 16.4938 23.082 16.4938 24.7714ZM26.6768 24.7714C26.6768 26.4608 27.9183 27.8402 29.4373 27.8402C30.9872 27.8402 32.1961 26.4608 32.1961 24.7714C32.2271 23.082 30.9717 21.7025 29.4373 21.7025C27.8873 21.7025 26.6768 23.082 26.6768 24.7714Z" fill="black"/>
</svg>
