<svg width="530" height="530" viewBox="0 0 530 530" fill="none" xmlns="http://www.w3.org/2000/svg">
<path d="M263.34 25.1702C130.24 25.1702 22.34 133.07 22.34 266.17C22.34 332.87 49.47 393.19 93.26 436.81L93.3199 436.93L93.7 437.24C103.46 446.92 114.02 455.79 125.31 463.69L125.32 463.7L125.33 463.71C132.34 468.61 139.64 473.12 147.17 477.27L147.8 477.66L148.1 477.79C162.61 485.7 178 492.19 194.12 497.02C188.18 494.83 181.99 492.24 175.58 489.24L172.56 487.05L171.76 486.59C142.52 474.5 116.15 456.85 94.0299 434.92L104.74 423.35L102.06 426.24C94.7999 420.37 81.06 408.05 71.74 392.11L76.39 387.09C75.16 385.22 73.9399 383.33 72.7699 381.41L67.2999 382.68L54.83 385.57L63.63 376.27L67.48 372.2C64.55 366.79 61.87 361.22 59.38 355.55L53.7699 356.09L41.0299 357.32L50.97 349.25L55.35 345.7C53.15 339.96 51.2 334.11 49.48 328.15L43.83 327.96L31.0399 327.52L41.95 320.82L46.7699 317.86C45.3499 311.89 44.1199 305.85 43.1899 299.71L37.6499 298.78L25.0199 296.67L36.71 291.45L41.85 289.16C41.23 283.08 40.9099 276.92 40.7899 270.71L35.33 269.04L23.09 265.3L35.36 261.65L40.84 260.02C41.01 253.81 41.3999 247.67 42.0599 241.6L36.9099 239.25L25.26 233.95L37.8999 231.93L43.47 231.04C44.44 224.91 45.6799 218.86 47.1499 212.91L42.37 209.92L31.51 203.14L44.3099 202.79L49.9399 202.64C51.7099 196.7 53.72 190.87 55.96 185.15L51.6 181.56L41.72 173.42L54.45 174.75L60.0699 175.33C62.5999 169.68 65.3199 164.15 68.2899 158.76L64.45 154.65L55.71 145.29L68.1599 148.27L73.64 149.58C76.88 144.32 80.34 139.21 83.99 134.25L80.7 129.64L73.26 119.22L85.22 123.8L90.51 125.83C94.4 121.05 98.4999 116.45 102.77 112.01L100.09 106.97L94.0699 95.6702L105.33 101.77L110.35 104.49C114.82 100.26 119.46 96.2102 124.26 92.3602L122.27 87.0302L117.78 75.0402L128.14 82.5502L132.74 85.8802C137.72 82.2602 142.84 78.8102 148.12 75.6102L146.85 70.1402L143.96 57.6702L153.26 66.4702L157.33 70.3202C162.74 67.3802 168.31 64.7102 173.98 62.2202L173.44 56.6102L172.21 43.8702L180.28 53.8102L183.83 58.1902C189.57 55.9902 195.42 54.0402 201.37 52.3202L201.56 46.6702L202 33.8802L208.7 44.7902L211.66 49.6102C217.63 48.1902 223.67 46.9602 229.82 46.0302L230.74 40.4902L232.85 27.8602L238.07 39.5502L240.36 44.6902C246.44 44.0702 252.6 43.7502 258.81 43.6302L260.48 38.1702L264.22 25.9301L267.87 38.2002L269.5 43.6802C275.71 43.8502 281.86 44.2402 287.93 44.9002L290.28 39.7502L295.58 28.1002L297.6 40.7402L298.49 46.3102C304.62 47.2802 310.67 48.5202 316.62 49.9902L319.61 45.2102L326.39 34.3502L326.74 47.1502L326.89 52.7802C332.83 54.5502 338.66 56.5602 344.38 58.8002L347.97 54.4402L356.11 44.5602L354.79 57.2902L354.2 62.9102C359.85 65.4402 365.39 68.1602 370.77 71.1402L374.89 67.3002L384.25 58.5602L381.27 71.0102L379.96 76.4902C385.22 79.7302 390.33 83.1802 395.29 86.8402L399.9 83.5502L410.32 76.1102L405.74 88.0702L403.71 93.3702C408.49 97.2602 413.09 101.36 417.53 105.62L422.57 102.94L433.87 96.9202L427.77 108.18L425.05 113.2C429.28 117.67 433.33 122.31 437.18 127.12L442.51 125.13L454.5 120.64L446.99 131L443.66 135.6C447.28 140.58 450.73 145.7 453.93 150.98L459.4 149.71L471.87 146.82L463.07 156.12L459.22 160.19C462.16 165.6 464.83 171.17 467.32 176.84L472.93 176.3L485.67 175.07L475.73 183.14L471.35 186.69C473.55 192.43 475.5 198.28 477.22 204.23L482.87 204.42L495.67 204.86L484.76 211.56L479.94 214.52C481.36 220.49 482.59 226.53 483.52 232.67L489.06 233.59L501.69 235.7L490 240.92L484.86 243.21C485.48 249.29 485.8 255.45 485.92 261.66L491.39 263.33L503.63 267.07L491.36 270.72L485.88 272.35C485.71 278.56 485.32 284.71 484.66 290.78L489.81 293.12L501.46 298.42L488.82 300.44L483.26 301.33C482.29 307.46 481.05 313.51 479.58 319.46L484.36 322.45L495.22 329.23L482.42 329.58L476.79 329.73C475.02 335.67 473 341.5 470.77 347.22L475.13 350.81L485.01 358.95L472.28 357.62L466.66 357.04C464.13 362.69 461.41 368.22 458.44 373.61L462.28 377.73L471.02 387.09L458.57 384.11L453.08 382.8C452.17 384.28 451.21 385.72 450.26 387.18L454.85 392.14C445.52 408.08 431.79 420.4 424.53 426.27L432.57 434.96C410.37 456.97 383.9 474.67 354.53 486.76L353.94 487.1L348.92 490.75L349.12 490.66C345.98 492.12 342.87 493.51 339.83 494.76C435.44 462.79 504.39 372.58 504.39 266.21C504.34 133.07 396.44 25.1702 263.34 25.1702ZM170.6 487.65L170.69 487.69L170.59 487.82L170.6 487.65ZM354.34 488.31L354.46 488.26L354.48 488.48L354.34 488.31ZM408.84 457.27L408.88 457.24L408.91 457.32L408.84 457.27Z" fill="url(#paint0_linear_511_6)"/>
<path d="M412.9 398.15L421.45 403.09L430.01 398.15V388.27L421.45 383.33L412.9 388.27V398.15Z" fill="url(#paint1_linear_511_6)"/>
<path d="M113.65 398.15V388.27L105.1 383.33L96.5399 388.27V398.15L105.1 403.09L113.65 398.15Z" fill="url(#paint2_linear_511_6)"/>
<path d="M456.28 390.75L420.97 352.59C420.56 352.15 420 351.9 419.37 351.95C418.77 351.99 418.22 352.3 417.87 352.8C405.7 370.21 389.08 381.92 388.87 382.08C388.82 382.12 383.75 385.88 376.98 388.88C372.87 390.7 364.94 393.37 364.86 393.4C364.6 393.49 364.38 393.63 364.18 393.81C363.84 394.01 363.55 394.28 363.37 394.64C363.05 395.29 363.12 396.06 363.53 396.65L371.75 408.35C338.21 427.82 303.16 437.03 263.28 437.07C223.39 437.03 188.34 427.82 154.8 408.35L163.02 396.65C163.44 396.06 163.5 395.29 163.18 394.64C163 394.27 162.71 394 162.37 393.81C162.17 393.64 161.95 393.49 161.69 393.4C161.61 393.37 153.68 390.71 149.57 388.88C142.8 385.88 137.73 382.12 137.68 382.08C137.47 381.92 120.85 370.21 108.68 352.8C108.33 352.31 107.78 351.99 107.18 351.95C106.55 351.9 105.98 352.14 105.58 352.59L70.2699 390.75C69.6699 391.4 69.57 392.36 70.01 393.11C78.91 408.32 91.4999 420.08 99.1499 426.43L92.5499 433.56C91.8199 434.35 91.85 435.57 92.61 436.33C138.21 481.54 198.61 506.55 262.72 506.76C262.81 506.77 262.89 506.78 262.98 506.78H263.56C263.65 506.78 263.73 506.78 263.81 506.76C327.92 506.55 388.33 481.53 433.92 436.33C434.68 435.57 434.71 434.35 433.98 433.56L427.38 426.43C435.03 420.08 447.62 408.32 456.52 393.11C456.98 392.36 456.87 391.4 456.28 390.75ZM369.03 397.54C377.65 398.12 383.59 398.29 387.69 398.23C383.53 401.09 379.36 403.75 375.16 406.28L369.03 397.54ZM151.38 406.28C147.19 403.75 143.01 401.09 138.85 398.23C142.96 398.29 148.9 398.13 157.51 397.54L151.38 406.28ZM74.2199 392.37L106.85 357.1C119.24 373.97 134.67 384.85 135.35 385.32C135.52 385.44 140.76 389.34 147.96 392.53C148.93 392.96 150.08 393.43 151.28 393.89C142.87 394.3 131.49 391.45 129.44 393.7L101.88 423.48C94.68 417.5 82.7499 406.41 74.2199 392.37ZM429.75 434.85C385.01 478.52 326.06 502.63 263.56 502.78C263.48 502.78 263.41 502.78 263.33 502.79C263.29 502.79 263.25 502.79 263.21 502.79C263.14 502.78 263.06 502.77 262.98 502.77C200.48 502.62 141.53 478.51 96.7899 434.84L131.17 397.7C171.97 427.21 214 440.99 263.28 441.04C312.55 440.99 354.57 427.21 395.37 397.7L429.75 434.85ZM424.66 423.48L397.1 393.7C394.89 391.4 383.67 394.3 375.26 393.89C376.47 393.42 377.62 392.96 378.58 392.53C385.78 389.34 391.03 385.44 391.19 385.32C391.87 384.85 407.3 373.97 419.69 357.1L452.32 392.37C443.8 406.41 431.87 417.5 424.66 423.48Z" fill="url(#paint3_linear_511_6)"/>
<path d="M262.7 486.94C254.67 487.03 249.42 482.46 248.47 475.85C250.41 475.01 251.57 474.49 253.62 473.52C251.57 472.35 250.49 471.71 248.58 470.54C249.86 463.98 255.09 459.97 262.28 459.99C268.65 460 273.29 462.84 274.83 465.6C275.95 467.6 276.17 468.47 276.17 468.47C277.07 468.19 277.52 468.05 278.41 467.76C277.28 462.55 276.73 459.94 275.69 454.72C273.96 454.83 273.09 454.88 271.36 454.95C271.52 455.67 271.59 456.03 271.75 456.74C271.75 456.74 267.97 455.16 261.77 455.13C251.38 455.08 243.45 460.72 241.37 469.99C239.32 470.82 238.15 471.28 235.95 472.11C237.93 473.46 238.98 474.15 240.96 475.42C241.64 484.68 249.77 491.94 261.99 491.81C270.39 491.71 274.46 487.87 275.99 485.94C279.24 481.83 279.75 477.39 279.75 477.39C277.84 477.56 276.89 477.63 274.98 477.76C274.97 477.79 276.2 486.79 262.7 486.94ZM369.06 446.73C366.6 446.8 365.33 446.82 362.96 446.82C361.64 444.23 360.72 442.45 359.2 439.47C357.65 436.44 360.81 433.38 360.84 433.35C360.42 432.57 360.21 432.18 359.8 431.41C354.78 434.11 352.23 435.37 347.08 437.69C347.44 438.49 347.62 438.89 347.99 439.7C348.03 439.69 352.36 439.06 353.82 442.13C355.23 445.08 357.39 449.57 357.39 449.57L354.82 453.92L359.8 454.58C359.8 454.58 361.89 458.5 362.55 459.89C362.37 459.97 362.28 460.01 362.1 460.1C350.91 454.95 333.57 443.34 333.57 443.34C333.57 443.34 332.72 443.58 332.06 443.82C330.47 444.39 322.04 447.08 322.04 447.08C322.3 447.92 322.42 448.35 322.68 449.19C322.72 449.19 327.05 449.14 328.1 452.38C329.14 455.58 329.75 457.48 330.66 460.27C329.05 461.9 328.16 462.79 326.43 464.45C328.79 464.89 330.04 465.11 332.35 465.47C333.18 468.02 333.78 469.87 334.76 472.9C335.81 476.14 331.66 478.74 331.62 478.77C331.87 479.61 332 480.04 332.26 480.88C338.47 479 341.56 477.96 347.66 475.66C347.41 474.81 347.29 474.39 347.04 473.54C346.99 473.55 342.1 474.02 340.96 470.8C339.96 467.97 339.14 465.65 338.37 463.46C340.01 461.74 340.87 460.8 342.49 459C340.08 458.74 338.83 458.59 336.53 458.27C335.72 455.97 334.85 453.53 333.79 450.53C345.46 458.42 351.77 462 365.24 468.18C368.02 466.88 369.41 466.2 372.16 464.8C369.45 459.5 367.94 456.55 365.49 451.76C366.91 449.8 367.66 448.75 369.06 446.73ZM319.96 476.77C314 472.64 311.13 470.47 305.67 465.98C308.42 462.43 309.73 460.63 312.23 457C316.67 451.2 319.21 450.22 319.23 450.21C318.98 449.36 318.85 448.93 318.6 448.08C313.35 449.56 310.71 450.22 305.39 451.35C305.53 452.23 305.6 452.66 305.73 453.54C306.42 453.39 306.45 453.75 306.59 454.39C306.72 454.99 305.96 456.15 305.09 457.24C305.09 457.24 294.55 470.3 294.52 470.33C293.88 465.91 293.56 463.7 292.92 459.28C292.45 456.03 296.19 455.34 296.35 455.31C296.2 454.43 296.13 453.99 295.98 453.12C290.44 454.03 287.66 454.39 282.08 454.91C282.16 455.8 282.2 456.24 282.28 457.13C282.44 457.12 286.27 456.82 286.65 460.09C287.1 464.03 287.36 466.27 287.77 469.84C286.2 470.91 285.15 471.6 283.34 472.77C285.34 473.58 286.52 474.04 288.33 474.72C288.72 478.1 288.98 480.38 289.42 484.23C289.76 487.21 286.07 487.76 285.24 487.84C285.31 488.73 285.35 489.17 285.42 490.06C291.96 489.44 295.22 489.02 301.71 487.96C301.53 487.09 301.44 486.65 301.26 485.78C300.94 485.83 299.8 485.98 298.68 485.71C297.33 485.39 296.59 484.6 296.41 483.33C296.06 480.9 295.88 479.69 295.53 477.26C295.7 477.08 295.98 476.77 296.42 476.31C298.48 474.16 299.48 473.07 301.44 470.88C301.52 470.95 311.58 478.88 311.58 478.88C314.13 480.72 314.84 481.72 314.96 482.26C315.12 482.98 313.92 483.36 313.03 483.55C312.99 483.56 312.95 483.56 312.91 483.57C313.08 484.44 313.16 484.88 313.33 485.76C319.86 484.36 323.11 483.54 329.54 481.68C329.27 480.83 329.14 480.41 328.87 479.56C328.48 479.65 324.84 480.55 319.96 476.77ZM214.14 449.3C203.93 446.81 194.7 450.36 190.51 458.9C188.32 459.22 187.06 459.39 184.71 459.66C186.31 461.41 187.19 462.35 188.77 463.98C187.22 473.2 193.57 482.03 205.42 484.92C217.22 487.8 226.8 482.89 229.67 474.03C231.87 473.29 233.07 472.86 235.3 472.03C233.34 470.69 232.32 469.96 230.49 468.63C230.73 459.15 224.31 451.78 214.14 449.3ZM222.25 472.78C220.03 478.83 214.03 481.96 206.59 480.15C199.18 478.34 195.49 473 196.2 466.36C198.38 465.99 199.64 465.75 201.93 465.29C200.17 463.64 199.26 462.77 197.61 461.14C200.37 455.11 206.24 452.42 212.97 454.07C219.69 455.71 223.36 460.59 223.17 467.46C221.06 468.12 219.85 468.48 217.59 469.11C219.43 470.6 220.42 471.39 222.25 472.78ZM148.76 440.95C152 441.42 154.91 439.95 156.55 437.07C159.49 431.9 157.37 426.88 150.97 422.72C148.73 421.26 131.97 408.75 131.97 408.74C131.41 409.42 131.13 409.76 130.56 410.44C130.59 410.48 133.19 414.19 131.08 416.86C129 419.48 127.77 421.03 125.95 423.33C123.58 422.83 122.3 422.54 119.85 421.93C120.88 424.23 121.44 425.43 122.52 427.66C120.85 429.76 119.66 431.27 117.69 433.76C115.57 436.43 110.92 434.27 110.87 434.24C110.31 434.92 110.03 435.26 109.46 435.94C109.46 435.94 129.73 451.04 132.54 452.84C143.3 459.78 148.42 455.98 150.66 451.96C152.62 448.44 151.83 444.42 148.76 440.95ZM143.81 448.15C142.06 451.05 138.93 451.14 134.36 448.17C130.22 445.47 128.17 444.06 124.14 441.13C122.77 440.13 122.64 439.48 123.54 438.26C125.49 435.63 126.47 434.31 128.43 431.68C128.83 431.14 128.99 431.18 129.48 431.54C133.26 434.33 135.18 435.67 139.06 438.23C144.25 441.64 145.85 444.77 143.81 448.15ZM141.88 434.25C138.03 431.71 136.12 430.38 132.37 427.61C131.89 427.26 131.82 427.11 132.22 426.58C134.2 423.92 135.19 422.59 137.16 419.92C137.52 419.43 137.64 419.42 138.14 419.79C141.63 422.36 143.39 423.6 146.98 425.97C151.27 428.81 152.3 431.1 150.41 434.18C148.8 436.8 145.9 436.9 141.88 434.25ZM178.44 470.64C173.25 468.65 170.67 467.58 165.58 465.27C164.08 464.59 163.83 463.98 164.47 462.6C165.79 459.76 166.6 458.01 167.71 455.62C170.25 455.54 171.51 455.49 174.02 455.33C172.42 453.39 171.64 452.42 170.11 450.45C171.33 447.83 172.16 446.04 173.55 443.03C175.83 438.11 179.28 440.52 179.32 440.52C179.67 439.71 179.85 439.31 180.21 438.5C174.87 436.15 172.23 434.88 167.03 432.13C166.61 432.92 166.41 433.31 165.99 434.1C165.99 434.1 170.03 435.53 167.69 440.2C166.19 443.19 165.3 444.96 163.99 447.57C161.6 447.59 160.33 447.58 157.85 447.53C159.27 449.55 160.03 450.59 161.49 452.55C160.29 454.94 159.43 456.66 158.01 459.49C156.48 462.54 151.58 461.42 151.58 461.42C151.17 462.2 150.96 462.59 150.55 463.37C150.55 463.37 155.84 465.93 158.29 467.12C160.65 468.26 163.34 469.55 166.31 470.88C169.94 472.51 174 474.23 178.43 475.89C181.86 477.17 181.34 477.93 181.34 477.93C181.87 478.12 182.13 478.21 182.66 478.4C183.94 474.66 184.59 472.79 185.88 469.06C185.43 468.9 185.2 468.82 184.75 468.66C184.75 468.66 183.84 472.71 178.44 470.64ZM413.81 432.48C413.8 432.49 411.61 432.95 409.79 430.8C408.69 429.5 408.14 428.85 407.04 427.55C404.83 424.94 407.02 422.13 407.11 422.01C406.49 421.38 406.18 421.06 405.56 420.43C401.11 424.31 400.1 425.12 395.46 428.66C395.99 429.38 396.25 429.73 396.78 430.45C396.94 430.35 400.14 427.32 403.35 431.36C404.3 432.55 404.9 433.32 405.27 433.98C405.67 434.7 406.98 439.74 400.44 443.66C393.58 447.77 388.05 446.22 383.43 441.34C384.59 439.43 385.26 438.3 386.43 436.24C384 436.55 382.72 436.69 380.39 436.91C377.62 430.84 378.59 425.81 384.71 421.35C393.84 414.7 399.8 417.71 400.06 417.85C400.55 417.06 400.79 416.66 401.28 415.87C396.97 414 394.85 413.03 390.68 410.99C390.17 410.72 389.91 410.58 389.4 410.3C389.41 410.32 388.03 412.17 388.03 412.17C388.03 412.17 389.82 412.99 388.59 413.53C386.61 414.4 384.16 414.75 379.42 418.91C372.6 424.9 370.73 433.39 374.15 441.1C374.07 440.97 374.01 440.86 373.92 440.71C372.57 442.82 371.87 443.87 370.45 445.96C372.97 445.87 374.24 445.8 376.8 445.62C376.73 445.5 376.68 445.41 376.61 445.29C379.9 449.33 385.58 451.21 391.29 450.94C395.92 450.72 400.45 448.95 403.99 446.05C410.12 441.01 407.35 438.24 411.5 435.57C413.13 434.53 414.56 433.8 414.58 433.78C414.27 433.13 414.12 433.15 413.81 432.48Z" fill="url(#paint4_linear_511_6)"/>
<path d="M238.12 146.28C232.48 147.25 226.81 148.53 221.12 150.18C212.83 152.67 205.05 155.84 197.69 159.51C196.59 161.38 195.65 163.35 195.08 165.49C194.9 166.18 194.76 166.87 194.63 167.56C203.29 162.68 212.64 158.58 222.75 155.53C227.15 154.22 231.54 153.17 235.92 152.3L238.12 146.28ZM235.16 154.39C231.21 155.19 227.25 156.13 223.27 157.28C212.84 160.39 203.22 164.61 194.35 169.67C194.16 171.83 194.26 173.98 194.64 176.09C203.82 170.52 213.92 165.96 224.9 162.63C227.57 161.84 230.24 161.16 232.91 160.54L235.16 154.39ZM229.07 171.08C228.58 171.22 228.08 171.33 227.59 171.47C216.81 174.68 206.98 179.21 198.07 184.71V184.7L197.35 185.14L199.31 190.76L199.37 190.72V190.73C207.6 185.38 216.69 180.93 226.65 177.67L229.07 171.08ZM384.64 131.81H384.6C391.1 136.84 397.28 142.27 403.11 148.06C411.71 148.62 420.42 149.18 429.14 149.75C428.13 148.31 427.02 146.95 425.97 145.54C425.67 145.08 424.37 143.36 424.03 142.96C420.55 138.43 416.95 134 413.1 129.78L384.62 131.78C384.62 131.8 384.63 131.81 384.64 131.81ZM241.03 138.33C233.73 139.39 226.36 140.94 218.97 143.09C216.45 143.85 214 144.7 211.58 145.59C211.42 145.59 204.5 149.31 199.55 156.68C206.22 153.49 213.21 150.69 220.6 148.44C226.72 146.63 232.81 145.27 238.87 144.25L241.03 138.33ZM246.72 122.75C236.15 123.79 225.44 125.78 214.66 128.9C203.39 132.29 192.86 136.7 183.08 141.96C185.46 143.25 187.83 144.2 190.13 144.8C198.35 140.65 207.04 137.06 216.3 134.24C225.82 131.44 235.28 129.57 244.63 128.48L246.72 122.75ZM243.9 130.48C234.96 131.56 225.91 133.36 216.82 135.99C208.39 138.52 200.44 141.71 192.88 145.36C193.76 145.48 194.63 145.52 195.47 145.56C203.63 145.96 213.66 142.95 213.66 142.95C215.25 142.4 216.82 141.83 218.45 141.34C226.27 139.03 234.06 137.37 241.78 136.28L243.9 130.48ZM375.68 115.16L372.69 123.24L372.73 123.27L372.71 123.32C376.42 125.78 380.06 128.33 383.59 131.02C393.12 130.39 402.79 129.75 412.48 129.11C411.34 127.88 410.13 126.72 408.96 125.51C408.56 125.04 406.92 123.37 406.5 123C402.49 118.98 398.37 115.07 394.03 111.4L375.91 115.08L375.68 115.16ZM341.62 106.41L341.58 106.42C348.79 109.53 355.79 113.04 362.54 116.96C365.57 116.35 368.64 115.74 371.69 115.13L378.24 108.12L376 114.27C381.76 113.12 387.54 111.97 393.34 110.81C391.93 109.63 390.43 108.54 388.98 107.4C388.64 107.09 387.22 105.99 386.86 105.74C382.26 102.21 377.57 98.8101 372.68 95.6701L341.59 106.39C341.6 106.4 341.61 106.41 341.62 106.41ZM223.3 186.87L225.87 179.85C216.52 182.99 207.97 187.19 200.19 192.2L199.88 192.39L201.79 197.84L201.83 197.96C208.56 193.45 215.78 189.75 223.3 186.87ZM318.8 98.2001L318.76 98.2201C326.15 100.37 333.37 102.94 340.39 105.91C350.75 102.38 361.32 98.7901 371.92 95.1901C370.42 94.2401 368.85 93.3901 367.32 92.4801C366.89 92.1901 365.15 91.1601 364.71 90.9401C359.74 88.0801 354.68 85.3501 349.46 82.8901L318.78 98.2101C318.79 98.2001 318.79 98.2001 318.8 98.2001ZM133.47 193.13C140.85 182.92 149.41 173.46 159.25 165.13C160.4 162.53 161.1 159.46 161.34 156.05C144.3 169.07 130.38 185.04 119.84 202.86C121.89 202.26 123.68 201.41 125.22 200.38L125.19 200.44C125.2 200.43 130.38 197.15 133.47 193.13ZM249.29 90.8601L249.27 90.8801C252.55 90.6401 258.53 90.4401 258.53 90.4401L259.54 87.6701L263.29 77.4201L267.04 87.6701L268.05 90.4401C268.05 90.4401 269.22 90.4201 271.02 90.4901C279.92 82.6601 289.04 74.6601 298.18 66.6401C295.99 66.2601 293.78 65.9401 291.56 65.6301C291.5 65.6201 291.43 65.6001 291.37 65.5901C291.33 65.5901 291.28 65.5801 291.24 65.5801C285.15 64.7301 278.98 64.1601 272.73 63.8501L272.43 64.2001L249.29 90.8601ZM272.34 90.5101L272.31 90.5301C279.74 90.8501 287.06 91.6201 294.27 92.7501C303.99 86.2401 313.92 79.5901 323.9 72.9301C322.3 72.4301 320.65 72.0301 319.03 71.5601C318.46 71.3601 316.27 70.7501 315.75 70.6401C310.27 69.1601 304.74 67.8201 299.08 66.8101L298.73 67.1201C298.73 67.1101 272.33 90.5101 272.34 90.5101ZM295.59 92.9301L295.56 92.9501C303.02 94.1701 310.35 95.8101 317.52 97.8501C327.73 92.8001 338.17 87.6501 348.64 82.4801C347.11 81.7701 345.53 81.1601 343.98 80.4901C343.44 80.2201 341.32 79.3201 340.8 79.1301C335.56 76.9601 330.25 74.9201 324.79 73.1901L295.58 92.9201C295.58 92.9301 295.58 92.9301 295.59 92.9301ZM232.16 162.6C229.92 163.13 227.68 163.72 225.43 164.38C214.37 167.68 204.23 172.26 195.02 177.85L196.71 183.31L196.78 183.58L197.15 183.31C206.17 177.67 216.14 173.04 227.05 169.73C227.97 169.45 228.9 169.23 229.82 168.98L232.16 162.6ZM190.03 188.15L191.32 187.37L186.96 183.21C168.52 196.44 154.55 214.08 145.42 233.85L150.04 238.05C158.6 218.58 172.13 201.2 190.03 188.15ZM144.25 232.76C144.49 232.25 144.92 231.52 145.16 231.01C154.28 211.97 167.98 195.02 185.75 182.08C184.22 180.71 182.54 179.54 180.72 178.59C162.83 191.92 149.03 209.2 139.72 228.57C141.11 230.07 142.48 231.63 144.25 232.76ZM200.61 110.17C188 114.55 176.22 120.01 165.36 126.47C166.61 128.03 167.88 129.54 169.2 130.94C179.38 124.9 190.37 119.74 202.11 115.58L200.61 110.17ZM179.09 177.78C176.83 176.81 174.42 176.2 171.94 175.94C156.36 188.51 144 204.04 135.06 221.22C135.98 223.5 137.18 225.61 138.71 227.48C147.94 208.32 161.54 191.16 179.09 177.78ZM249.54 115.03C237.36 115.99 224.97 118.2 212.5 121.81C199.41 125.76 187.32 131.06 176.17 137.39C177.87 138.74 179.6 139.94 181.32 140.98C191.45 135.4 202.4 130.73 214.14 127.16C225.34 123.86 236.47 121.8 247.45 120.75L249.54 115.03ZM255.08 99.8801C241.73 100.47 228.13 102.52 214.42 106.02L215.9 111.37C228.41 108.13 240.83 106.16 253.05 105.46L255.08 99.8801ZM252.32 107.42C240.23 108.15 227.93 110.13 215.54 113.36L210.4 118.58L203.87 116.89C191.91 121 180.74 126.13 170.4 132.18C171.84 133.64 173.3 135 174.78 136.25C186.18 129.67 198.55 124.16 211.97 120.07C224.86 116.28 237.67 113.98 250.26 113.03L252.32 107.42ZM72.97 277.82C74.31 255.14 79.62 232.83 88.62 212C87.14 210.6 85.54 209.25 83.89 207.94C81.39 213.55 79.08 219.24 77.11 225.04L75.1 231.17C75.09 231.17 75.09 231.17 75.08 231.17C75.05 231.26 75.03 231.35 75.01 231.43L74.8999 231.76H74.9199C70.4199 246.71 67.69 262.17 66.73 277.81H72.97V277.82ZM132 160.33C140.12 151.96 149.11 144.27 159 137.46C158.44 135.56 157.79 133.64 157.04 131.71C146.27 138.92 136.53 147.14 127.75 156.14L132 160.33ZM134.41 219.49C142.88 203.42 154.34 188.81 168.6 176.69C168.95 176.39 168.95 176.39 169.67 175.79C162.96 176.11 158.34 177.98 158.34 177.98C158.34 177.98 150.14 186.43 147.22 189.87C142.07 195.94 137.44 202.37 133.36 209.12C132.98 212.19 133.18 215.34 134.01 218.41C134.1 218.78 134.29 219.12 134.41 219.49ZM257.83 92.3601C240.89 92.8501 223.54 95.4701 206.05 100.52C189.71 105.46 174.68 112.19 161.02 120.38L160.45 120.59L164.32 125.13C175.37 118.49 187.37 112.89 200.21 108.4L205.98 102.54L213.24 104.42C227.6 100.65 241.84 98.4601 255.81 97.8901L257.83 92.3601ZM117.29 165.5L119.26 157.9L125.66 156.13C134.83 146.54 145.05 137.78 156.41 130.15C155.72 128.47 154.13 125.13 154.13 125.13C154.13 125.13 154.04 124.89 154.03 124.86C125.13 143.94 102.91 169.81 88.0599 199.19C89.9299 199.95 91.7999 200.64 93.6599 201.22C100.1 188.54 108.05 176.56 117.29 165.5ZM158.58 167.72L153.47 172.39C150.28 175.41 147.25 178.56 144.36 181.82C142.99 183.37 141.65 184.95 140.34 186.55C139.77 187.25 139.73 187.52 139.56 187.86C139.42 188.14 139.28 188.45 139.15 188.75C135.43 195.88 134.08 202.5 133.61 206.16C134.19 205.19 134.29 204.87 134.29 204.87C139.99 195.16 147.46 186.63 155.58 178.63L145.8 181.35C145.8 181.35 152.34 175.14 153.76 173.72C156.7 170.76 158.58 167.72 158.58 167.72ZM161.43 153.92C161.47 151.74 161.33 149.45 161.03 147.07C139.67 162.37 122.76 181.98 110.65 204.06C113.32 204.05 115.76 203.78 117.99 203.29C128.87 184.44 143.43 167.55 161.43 153.92ZM160.78 145.26C160.46 143.26 160.01 141.22 159.46 139.14C149.82 145.77 141.04 153.26 133.1 161.4L131.13 169.57L123.98 171.55C115.71 181.44 108.52 192.1 102.59 203.39C104.81 203.75 106.99 203.93 109.11 204C121.4 181.21 138.77 160.97 160.78 145.26ZM122.4 171.1L118.09 166.86C109.09 177.64 101.32 189.29 94.99 201.65C97.06 202.26 99.11 202.73 101.14 203.11C107.04 191.77 114.18 181.06 122.4 171.1ZM343.25 142.18C324.01 131.71 302.54 124.93 279.83 122.71L281.93 128.45C301.23 130.68 319.57 136.37 336.28 144.92C338.56 144.34 340.9 143.42 343.25 142.18ZM345.02 141.18C346.77 140.15 348.52 138.96 350.25 137.6C328.29 125 303.42 117.03 277.02 115L279.1 120.69C302.75 122.89 325.09 130.06 345.02 141.18ZM367.01 119.74L367.24 119.9L367.25 119.89L370.72 116.17L370.8 116.08L369.97 116.3L363.67 117.59C363.68 117.59 363.69 117.6 363.69 117.61L363.65 117.62C364.79 118.3 365.89 119.04 367.01 119.74ZM270.78 97.9201C285.4 98.4701 299.59 100.77 313.24 104.48L320.69 102.55L326.18 108.52C326.18 108.52 331.56 110.18 338.4 113.22C338.55 113.29 338.7 113.35 338.85 113.41C346.92 116.88 354.72 120.87 362.17 125.41L366.14 121.09L365.51 120.7C337.05 103.46 303.94 93.2801 268.75 92.3701L270.78 97.9201ZM351.68 136.43C353.17 135.19 354.63 133.84 356.08 132.39C345.51 126.14 334.24 121 322.47 116.97L316.27 118.58L311.31 113.54C299.37 110.29 286.99 108.16 274.26 107.41L276.31 113.02C303.5 115 329.13 123.27 351.68 136.43ZM310.76 111.45L312.23 106.14C299.12 102.66 285.51 100.47 271.51 99.8901L273.54 105.44C286.31 106.13 298.75 108.23 310.76 111.45ZM324.52 115.73C335.99 119.81 346.98 124.94 357.3 131.13C358.6 129.75 359.86 128.28 361.09 126.75C350.06 120.12 338.29 114.66 326 110.37L324.52 115.73ZM394.47 160.54L398.66 156.41C389.76 147.38 380 139.19 369.46 132.08C368.74 133.96 368.09 135.83 367.55 137.7C377.24 144.42 386.23 152.1 394.47 160.54ZM297.54 171.15L299.94 177.72C309.63 180.97 318.77 185.48 327.2 191.04L327.54 191.26L329.61 185.73L329.09 185.46C319.38 179.29 308.78 174.43 297.54 171.15ZM331.5 178.18C320.14 171.2 307.67 165.91 294.44 162.66L296.76 169C308.36 172.29 319.31 177.23 329.33 183.58L329.96 183.92L331.5 178.18ZM282.67 130.45L284.79 136.25C294.35 137.6 303.63 139.87 312.58 142.93C312.58 142.93 316.15 143.72 319.18 144.33C322.21 144.93 328.93 146.09 333.43 145.46C317.72 137.79 300.63 132.62 282.67 130.45ZM448.08 216.55L448.05 216.53C449.38 219.94 450.56 223.42 451.7 226.92L453.44 232.62C454.37 235.79 455.31 238.97 456.08 242.21C459.09 244.22 462.11 246.24 465.14 248.26C464.99 246.6 464.73 244.98 464.55 243.33C464.51 242.68 464.22 240.23 464.11 239.65C463.38 234.03 462.51 228.46 461.31 222.99L448.06 216.51C448.07 216.53 448.07 216.54 448.08 216.55ZM332.29 170.02C319.74 162.75 305.97 157.39 291.41 154.37L293.67 160.55C307.32 163.81 320.21 169.22 331.91 176.43C332.32 174.32 332.46 172.17 332.29 170.02ZM322.23 151.55C319.47 148.9 316.12 146.19 316.12 146.19C306.33 142.57 296.11 139.86 285.54 138.31L287.68 144.18C301.63 146.55 314.96 150.94 327.35 157.02C327.16 156.77 324.99 154.2 322.23 151.55ZM332.04 167.88C331.91 167.1 331.74 166.32 331.53 165.54C330.99 163.51 330.12 161.64 329.11 159.86C316.47 153.41 302.79 148.76 288.43 146.24L290.64 152.28C305.37 155.26 319.31 160.58 332.04 167.88ZM400.46 199.82C402.63 201.31 405.62 202.64 406.89 203.01C396.03 184.98 381.85 169.25 365.28 156.52C365.58 160.2 366.43 163.36 367.73 165.98C373.48 170.89 378.86 176.21 383.86 181.89C386.86 185.3 392.77 192.76 392.77 192.76C394.05 194.11 397.24 197.62 400.46 199.82ZM438.59 199.29C436.34 194.91 434.11 190.55 431.55 186.37C416.53 161.86 396.33 140.97 372.52 125.14L372.16 124.84L370.1 130.5C381.04 137.91 391.13 146.47 400.31 155.94L407.42 157.91L409.55 166.19C409.55 166.19 411.52 168.5 414.38 172.16C419.81 179.12 428.47 190.98 433.05 201.31C434.26 200.91 436.67 200.08 438.59 199.29ZM439.98 198.81L449.34 195.9L436.26 191.57C436.27 191.58 436.27 191.59 436.28 191.61L436.24 191.6C437.56 193.96 438.75 196.4 439.98 198.81ZM431.73 201.73C425.24 189.26 417.34 177.69 408.36 167.08L404.1 171.27C412.3 181.1 419.56 191.76 425.6 203.2C427.63 202.8 429.67 202.34 431.73 201.73ZM421.46 168.99L421.42 168.98C426.61 175.83 431.36 183.04 435.65 190.55C440.56 192.21 445.5 193.89 450.45 195.57L452.94 194.82C452.51 193.69 452.02 192.59 451.57 191.47C451.43 191.05 450.74 189.35 450.53 188.91C448.34 183.58 446.02 178.31 443.38 173.23L421.44 168.96C421.44 168.96 421.45 168.98 421.46 168.99ZM460.05 277.82C459.2 262.67 456.66 248.02 452.61 234.04L452.63 234.03L452.5 233.61C452.47 233.52 452.45 233.42 452.43 233.33H452.42L450.39 226.8C448.24 220.32 445.74 214.02 442.95 207.87L442.79 207.5L438.12 212.01C447.01 232.3 452.51 254.45 453.79 277.82H460.05ZM424.21 203.46C418.07 191.97 410.67 181.28 402.32 171.44L395.55 169.57L393.53 161.77C385.44 153.52 376.6 146 367.08 139.41C366.53 141.49 366.07 143.55 365.76 145.57C387.08 160.89 404.89 180.87 417.65 204.09C419.79 204.03 421.98 203.83 424.21 203.46ZM443.76 206.63C445.09 209.54 446.42 212.45 447.61 215.45C452.11 217.66 456.62 219.89 461.14 222.12C460.72 220.21 460.17 218.36 459.69 216.47C459.62 216.12 459.28 214.77 459.17 214.45C457.65 208.72 455.97 203.05 453.98 197.52C453.96 197.48 453.95 197.43 453.93 197.39L443.79 206.63H443.76ZM404.05 148.98H404.01C409.94 154.95 415.5 161.3 420.64 167.99C428.03 169.45 435.49 170.94 442.96 172.42C442.07 170.72 441.07 169.08 440.13 167.41C439.96 167.06 439.2 165.71 438.99 165.39C436.06 160.31 433 155.32 429.66 150.53L404.04 148.96C404.03 148.96 404.04 148.97 404.05 148.98ZM391.59 221.14C382.26 203.63 369.43 188.32 354.11 176.04C351.73 176.34 349.43 177 347.27 177.96C364.38 190.99 378.42 207.9 388.05 227.41C389.55 225.53 390.7 223.41 391.59 221.14ZM392.58 218.51C393.4 215.43 393.61 212.29 393.23 209.22C387.83 200.49 381.55 192.37 374.56 184.94C373.24 183.53 367.61 177.79 366.96 177.24C366.96 177.24 366.8 177.06 366.73 177.05C360.83 175.26 356.47 175.88 356.47 175.88C370.99 187.92 383.19 202.7 392.22 219.47C392.32 219.14 392.49 218.85 392.58 218.51ZM385.03 230.47C385.75 229.84 386.43 229.17 387.07 228.46C377.35 208.74 363.04 191.74 345.62 178.77C343.83 179.73 342.17 180.91 340.66 182.29C356.65 193.98 369.94 209.2 379.37 226.83C380.38 228.72 382.45 233 382.45 233L385.03 230.47ZM416.03 204.17C416.06 204.17 416.08 204.17 416.11 204.17C403.57 181.7 386.23 162.36 365.54 147.45C365.31 149.38 365.15 151.28 365.15 153.12C365.15 153.56 365.19 153.96 365.2 154.38C382.68 167.7 397.54 184.34 408.75 203.44C410.95 203.91 413.38 204.17 416.03 204.17ZM376.63 238.04L381.29 233.8C371.77 213.63 357.31 196.32 339.45 183.46L335.28 187.61L335.47 187.7C353.22 200.48 367.54 217.83 376.63 238.04ZM382.1 191.19C389.18 199.26 393.15 206.83 393.15 206.83C393.15 206.83 392.37 199.96 390.2 194.81C389.5 193.14 388.13 189.62 387.16 188.04C385.06 184.64 381.47 181.39 379.44 179.3C377.09 176.87 371.74 171.79 369.43 170.22C369.43 170.22 372.2 172.84 374.81 175.29C376.61 176.98 380.88 181.33 380.88 181.33L370.36 178.41C374.51 182.45 378.28 186.84 382.1 191.19ZM452.59 301.37C452.61 301.03 452.6 300.7 452.62 300.37C452.16 300.72 451.7 301.05 451.23 301.42L449.95 302.42L449.93 302.43L448.86 303.26V303.27L448.87 303.25C448.7 303.38 448.52 303.54 448.34 303.67L447.64 304.22V304.23C447.04 304.71 446.44 305.18 445.82 305.69C445.25 312.01 444.46 318.37 443.22 324.81C440.52 338.06 436.28 350.91 430.78 363.19L435.85 368.66C442.03 355.08 446.5 340.76 449.53 326.07C451.98 314.23 452.59 301.37 452.59 301.37ZM363.53 396.65C363.33 396.37 363.23 396.05 363.2 395.73C363.19 395.75 363.18 395.76 363.16 395.78C363.16 395.76 363.14 395.75 363.14 395.73C360.53 399.17 358.12 402.4 355.91 405.43L364.19 412.49C364.2 412.48 364.21 412.48 364.22 412.47L364.24 412.49C366.13 411.48 368.02 410.44 369.9 409.37L364.51 398.05L363.53 396.65ZM267.23 241.88L297.84 259.56L299.83 260.71V263.01V300.61V302.91L297.84 304.06L267.23 321.73C300.92 319.56 329.39 290.59 337.27 281.8C329.41 273.01 300.98 244.04 267.23 241.88ZM349.49 414.48L349.44 414.47C347.56 417.15 345.92 419.56 344.46 421.74C344.49 421.73 344.51 421.72 344.54 421.7C344.53 421.71 344.52 421.72 344.52 421.74C348.45 420.14 352.34 418.41 356.21 416.55L349.5 414.47L349.49 414.48ZM377.77 305.31C383.38 292.88 381.05 283.3 380.94 282.85L379.57 277.82L379.04 275.58L447.28 251.36L443.56 254.8C444.96 262.32 445.88 270 446.34 277.82H452.63C451.3 254.79 445.85 232.99 437.1 213.02C435.46 214.63 433.93 216.27 432.57 217.93C436.99 228.49 440.49 239.53 442.88 251.01L441.61 250.91C439.27 239.89 435.88 229.28 431.64 219.13C430.05 221.17 428.68 223.23 427.54 225.28C430.67 233.38 433.23 241.76 435.14 250.41L433.84 250.31C432.01 242.24 429.59 234.41 426.7 226.83C424.94 230.35 423.93 233.78 423.72 236.96C423.71 245.67 427.62 257.3 427.62 257.3C427.62 257.3 422.83 251.38 418.16 246.03C413.49 240.68 408.91 239.28 408.91 239.28C409.85 242.09 410.96 245.67 411.74 248.56L410.41 248.45C409.54 245.32 408.4 241.8 407.35 238.76C405.07 237.72 402.79 237.46 400.27 237.15C401.6 240.69 402.84 244.27 403.9 247.93L402.56 247.82C401.47 244.16 400.21 240.59 398.85 237.06C398.36 237.03 397.88 236.96 397.39 236.96C395.75 236.96 394.12 237.18 392.52 237.51C393.8 240.72 394.99 243.98 396.03 247.3L394.65 247.19C393.63 243.99 392.45 240.86 391.21 237.77C389.21 238.05 386.82 238.74 385.3 239.42C386.17 241.59 387.25 244.43 388 246.66L386.6 246.55C385.78 244.2 384.84 241.92 383.89 239.63L377.98 241.28C378.64 242.86 379.34 244.41 379.93 246.02L378.5 245.91C377.95 244.46 377.34 243.05 376.74 241.63L370.92 243.26L375.63 238.98C366.5 218.72 352.01 201.45 334.1 188.83L329.97 192.93C348.55 205.95 363.31 224.21 371.86 245.64H370.46C361.85 224.61 347.2 206.76 328.8 194.1L324.86 198.01L327.01 192.91L326.66 192.69C318.64 187.42 309.96 183.1 300.76 179.94L303.22 186.66C310.57 189.49 317.66 193.14 324.33 197.68C342.67 209.84 355.83 226.75 363.73 245.64H362.27C354.38 227.21 341.4 210.79 323.41 199.06C317.3 194.93 310.79 191.56 304.04 188.89L314.9 218.6L318.18 227.58C318.18 227.58 318.18 227.58 318.8 229.97C352.17 248.64 373.21 277.75 374.46 279.49L376.11 281.8L374.46 284.11C373.55 285.38 362.1 301.19 343.05 316.9L343.6 318.45L345.72 322.96L352.96 338.36C357.45 333.92 365.4 325.25 374.11 312.01C375.27 310.25 376.23 308.53 377.06 306.85L377.77 305.31ZM429.41 267.9L423.71 273.17C423.86 274.71 423.99 276.26 424.09 277.82H430.32C430.1 274.48 429.82 271.17 429.41 267.9ZM427.68 321.93C425.98 323.57 424.24 325.27 422.45 327.06L425.39 331.73C426.23 328.49 427.03 325.23 427.68 321.93ZM421.11 275.58L422.94 277.27C422.86 276.23 422.74 275.2 422.64 274.16L421.11 275.58ZM177.1 414.49L177.05 414.5C177.05 414.49 177.04 414.49 177.04 414.49L170.33 416.57C174.2 418.42 178.09 420.15 182.01 421.75C182 421.74 181.99 421.73 181.99 421.72C182.02 421.73 182.04 421.74 182.07 421.76C180.61 419.57 178.97 417.17 177.1 414.49ZM152.15 284.12L150.5 281.81L152.15 279.5C153.39 277.76 174.28 248.86 207.44 230.19C208.85 226.4 208.42 227.59 208.42 227.59L211.7 218.61L222.46 189.16C205.93 195.65 190.96 206.1 179.56 220.3C173.08 228 168.05 236.58 164.19 245.64H162.76C166.65 236.28 171.78 227.38 178.41 219.35C185.16 210.93 193.08 203.78 201.8 197.97L197.65 193.85C178.55 206.89 164.54 225.13 156.32 245.64H154.87C163.04 224.73 177.16 206.07 196.45 192.67L192.27 188.52C173.73 201.52 159.8 219.15 151.07 238.99L155.77 243.26L149.97 241.64C149.38 243.06 148.79 244.47 148.26 245.91L146.84 246.02C147.42 244.42 148.1 242.87 148.74 241.3L142.9 239.66C141.98 241.94 141.05 244.22 140.26 246.54L138.85 246.65C139.59 244.43 140.68 241.39 141.53 239.21C139.24 238.53 137.62 238.28 135.69 237.75C134.46 240.85 133.3 243.99 132.29 247.17L130.9 247.28C131.92 243.96 133.11 240.7 134.38 237.46C132.68 237.09 130.95 236.85 129.21 236.85C128.82 236.85 128.43 236.91 128.04 236.93C126.68 240.51 125.4 244.13 124.32 247.81L122.94 247.92C124 244.24 125.25 240.62 126.58 237.03C124.06 237.31 121.63 237.97 119.35 238.98C118.27 242.1 117.28 245.25 116.41 248.44L115.08 248.55C115.87 245.61 116.75 242.69 117.71 239.8C112.07 242.32 99.08 257.31 99.08 257.31C99.08 257.31 103.08 245.43 102.93 237.67C102.87 234.44 101.93 230.86 100.09 227.09C97.25 234.67 94.88 242.41 93.08 250.3L91.7699 250.4C93.6499 241.94 96.1999 233.65 99.2699 225.54C99.0699 225.18 98.91 224.82 98.7 224.45C97.68 222.69 96.4799 220.97 95.1799 219.26C90.9899 229.5 87.67 240.08 85.35 250.9L84.0499 251C86.4099 239.71 89.83 228.66 94.22 217.99C92.85 216.3 91.3099 214.66 89.6799 213.05C80.8299 233.54 75.5699 255.5 74.1599 277.83H80.3999C80.8599 270.12 81.78 262.45 83.2 254.87L79.4199 251.38L147.66 275.6L145.66 282.88C145.63 282.99 143.15 292.72 148.83 305.33L149.59 306.94C150.42 308.61 151.37 310.31 152.51 312.05C161.22 325.29 169.17 333.96 173.66 338.4L180.9 323L183.02 318.49L183.04 318.5L183.74 317.07C164.57 301.29 153.06 285.4 152.15 284.12ZM228.74 304.06L226.75 302.91V300.61V263.01V260.71L228.74 259.56L259.34 241.89C226.89 244.14 197.56 273.06 189.36 281.86C197.29 290.72 225.68 319.57 259.35 321.73L228.74 304.06ZM305.18 348.03L303.33 341.03C293.42 345.02 282.7 347.86 271.31 348.79L267.04 361.23L263.27 372.2L259.49 361.23L255.21 348.79C243.82 347.86 233.1 345.03 223.19 341.05L222.7 342.52L221.85 345.82C212.64 381.68 203.02 414.84 199.18 427.88C201.03 428.44 202.89 428.97 204.76 429.49L235.08 386.95L237.75 435.71C240.91 436.05 244.09 436.34 247.31 436.55L263.27 392.1L279.23 436.54C282.45 436.33 285.64 436.04 288.8 435.69L291.47 387.15L321.74 429.47C323.59 428.96 325.44 428.44 327.28 427.87C323.52 415.09 314.22 383.03 305.18 348.03ZM434.99 323.18C435.58 320.02 436.06 316.87 436.46 313.74C434.04 315.91 431.51 318.26 428.87 320.78C428.8 321.16 428.75 321.53 428.68 321.91C427.93 325.56 427.03 329.17 426.04 332.75L430.75 340.22C432.44 334.63 433.87 328.95 434.99 323.18ZM300.93 434.03C304.23 433.48 307.5 432.85 310.74 432.15L304.12 427.98L300.93 434.03ZM215.79 432.17C219.05 432.87 222.33 433.5 225.65 434.05L222.45 427.97L215.79 432.17ZM259.89 437.02C261 437.04 262.11 437.07 263.23 437.07C264.39 437.07 265.53 437.03 266.68 437.02L263.29 433.35L259.89 437.02ZM444.66 306.65C442.42 308.5 440.07 310.53 437.6 312.72C437.15 316.25 436.63 319.8 435.94 323.37C434.71 329.38 433.16 335.31 431.31 341.14L434.73 346.57L429.04 347.86C427.89 351.05 426.64 354.19 425.31 357.3L430.31 362.7C435.62 350.5 439.69 337.75 442.24 324.62C443.39 318.58 444.12 312.59 444.66 306.65ZM465.22 249.17L456.35 243.27C456.35 243.28 456.36 243.3 456.36 243.31L456.33 243.29C458.37 252.06 459.82 261.06 460.66 270.26C462.38 271.76 464.1 273.27 465.82 274.78C465.94 271.96 466.03 269.14 466.03 266.29C466.02 260.52 465.7 254.82 465.22 249.17ZM163.36 395.71C163.36 395.73 163.34 395.74 163.34 395.76C163.33 395.74 163.32 395.73 163.3 395.71C163.27 396.05 163.16 396.37 162.96 396.66L162.37 397.5L156.69 409.44C158.57 410.51 160.45 411.54 162.33 412.55L162.35 412.53C162.36 412.54 162.37 412.54 162.38 412.55L170.65 405.5C168.42 402.43 166 399.18 163.36 395.71ZM408.45 341.72L434.74 346.57L416 333.67C413.56 336.22 411.05 338.89 408.45 341.72ZM436.04 261.76L430.5 266.89C430.96 270.49 431.27 274.14 431.5 277.81H437.75C437.41 272.39 436.86 267.03 436.04 261.76ZM461.39 294.23C461.39 294.23 461.29 297.43 461.2 299.14C461.79 299.81 462.38 300.49 462.97 301.16C463.3 299.26 464.18 292.73 464.22 292.43L464.15 292.51L461.39 294.23ZM461.17 300.21L461.15 300.19C460.82 305.87 460.23 311.61 459.42 317.39C460.72 312.34 461.89 307.24 462.81 302.05L461.17 300.16C461.18 300.18 461.17 300.2 461.17 300.21ZM453.71 299.54C453.67 300.28 453.68 301 453.63 301.74C453.63 301.74 452.63 315.76 450.48 326.26C447.45 341.1 442.64 355.48 436.27 369.13L441.29 374.55C444.13 368.56 446.68 362.44 448.92 356.19C449.11 355.65 449.29 355.11 449.48 354.57C452.55 345.76 455.01 336.72 456.8 327.52C458.85 316.5 459.92 305.66 460.23 294.99C458.22 296.32 456.06 297.82 453.71 299.54ZM460.77 271.37L460.75 271.35C460.93 273.5 461.08 275.65 461.19 277.82H461.21H465.62C465.66 277.12 465.75 276.43 465.79 275.72L460.78 271.33C460.77 271.34 460.77 271.35 460.77 271.37ZM389.18 363.55L389.15 363.52C386.04 367.16 383.06 370.71 380.25 374.13L391.96 379.71C391.97 379.71 391.97 379.7 391.98 379.69L392.02 379.71C393.68 378.41 395.89 376.59 398.42 374.33L389.2 363.52C389.19 363.53 389.18 363.54 389.18 363.55ZM374.9 387.14H374.84L374.94 389.71C374.96 389.7 374.98 389.69 375 389.69V389.71C375.71 389.43 376.38 389.15 376.97 388.89C378.1 388.39 379.16 387.87 380.18 387.35L374.9 387.14ZM445.18 277.82C444.72 270.34 443.83 262.98 442.51 255.78L437.09 260.79C437.97 266.37 438.56 272.06 438.89 277.81H445.18V277.82ZM420.29 349.85C420.01 350.56 419.7 351.26 419.41 351.96C420.02 351.92 420.57 352.15 420.97 352.59L424.85 356.78C426.04 353.9 427.19 351 428.23 348.05L420.29 349.85ZM411.49 351.85C409.24 357.1 406.71 362.22 403.93 367.2L404.39 368.69C408.84 364.25 413.62 358.89 417.87 352.81C418.06 352.54 418.32 352.34 418.6 352.19C418.89 351.47 419.2 350.76 419.48 350.04L411.49 351.85ZM402.43 353.91C401.91 355.01 401.36 356.09 400.82 357.18L403.74 366.6C406.31 361.86 408.65 357 410.74 352.02L402.43 353.91ZM401.65 354.08C401.65 354.08 401.65 354.07 401.66 354.07L399.92 354.46L400.53 356.42C400.54 356.4 400.55 356.37 400.56 356.35L400.58 356.42C400.96 355.63 401.34 354.86 401.71 354.07L401.65 354.08ZM248.02 90.9701C255.82 82.0601 263.8 72.9401 271.82 63.8001C271.89 63.8001 266.24 63.5801 263.33 63.5801C257.56 63.5801 251.87 63.8801 246.23 64.3501L226.82 93.7301C233.93 92.4301 241 91.5201 248.02 90.9701ZM87.9299 196.17C91.2499 189.78 94.97 183.59 98.99 177.57C96.8 171.12 92.26 157.85 92.21 157.7C91.11 159.42 90.13 161.22 89.08 162.98C88.94 163.18 88.47 163.98 88.37 164.18C85.34 169.37 82.45 174.64 79.87 180.11L87.9099 196.21C87.9199 196.19 87.9199 196.18 87.9299 196.17ZM78.5 217.03C79.8 213.65 81.2 210.31 82.7 207C82.7 207 82.6999 207 82.6899 206.99L72.5499 198.02C71.7499 200.26 70.8899 202.47 70.1699 204.75L78.49 217.07C78.49 217.05 78.5 217.04 78.5 217.03ZM65.5 310.49C65.97 312.6 66.56 314.65 67.09 316.73C66.82 314.8 66.6 312.86 66.39 310.92C66.1 310.78 65.8 310.63 65.5 310.49ZM71.51 239.15L71.5199 239.16C72.2099 236.46 73.0099 233.79 73.8099 231.12L76 224.32C76.72 222.2 77.3999 220.06 78.1899 217.97C75.5399 214.01 72.88 210.03 70.21 206.04C70.21 206.05 70.2 206.06 70.2 206.07C70.09 205.91 69.99 205.75 69.88 205.59C67.34 213.69 65.36 222.03 63.84 230.54L71.5 239.18C71.5 239.18 71.5 239.17 71.51 239.15ZM67.0399 262.19L67.0499 262.2C68.0599 254.74 69.4399 247.34 71.2699 240.05C68.8499 237.29 63.7799 231.55 63.6699 231.43C63.3099 233.48 62.63 238.62 62.62 238.81C61.8 244.76 61.15 250.77 60.87 256.88L67.0399 262.23C67.0299 262.21 67.0299 262.2 67.0399 262.19ZM65.36 294.41C65.36 294.38 65.36 294.31 65.36 294.31L62.45 292.52C63.2 298.28 64.11 303.99 65.33 309.59L66.3199 310.07C65.7599 304.86 65.49 299.64 65.36 294.41ZM65.6 277.82C65.63 277.24 65.68 276.66 65.72 276.08C65.99 271.74 66.3499 267.4 66.9099 263.09C65.0099 261.42 60.95 257.9 60.83 257.8C60.71 260.62 60.62 263.45 60.62 266.3C60.62 270.17 60.7899 274.01 61.0199 277.82H65.6ZM86.71 198.66C86.72 198.66 87.21 197.6 87.48 197.08C84.9 191.86 79.71 181.37 79.7 181.38C79.62 181.22 79.55 181.07 79.47 180.91C77.45 185.25 73.9199 194.19 73.9199 194.19L86.6599 198.77C86.6799 198.74 86.69 198.7 86.71 198.66ZM183.11 107.17C183.11 107.16 183.11 107.16 183.12 107.15C183.12 107.15 183.13 107.15 183.13 107.14C186.55 97.0201 193.66 76.0301 193.72 75.8601C191.57 76.6501 189.48 77.5701 187.36 78.4301C187.34 78.4401 187.31 78.4501 187.29 78.4501C187.27 78.4601 187.24 78.4701 187.22 78.4801C181.44 80.8401 175.75 83.3801 170.25 86.2301L164.38 116.56C170.38 113.15 176.62 110.01 183.11 107.17ZM203.93 99.3401C203.93 99.3301 203.94 99.3301 203.94 99.3201H203.95C208.87 89.3301 219.05 68.6301 219.12 68.4901C217.11 68.9401 215.14 69.5101 213.15 70.0101C212.91 70.0601 212.03 70.2801 211.83 70.3501C205.98 71.8701 200.19 73.5501 194.56 75.5801L184.17 106.73C190.55 103.97 197.11 101.48 203.93 99.3401ZM205.51 98.8001C212.24 96.8301 218.94 95.2201 225.61 93.9501C225.62 93.9401 225.62 93.9301 225.63 93.9301C232.01 84.3601 245.22 64.5701 245.3 64.4501C243.51 64.6101 241.76 64.8801 239.99 65.0801C239.48 65.1101 237.59 65.3301 237.15 65.4201C231.37 66.1601 225.64 67.0501 220.03 68.2701L205.11 98.9301C205.24 98.8901 205.37 98.8401 205.51 98.8001ZM99.5499 176.69C103.33 171.1 107.43 165.71 111.79 160.5C112.03 160.21 112.25 159.91 112.49 159.63C112.5 159.62 112.5 159.61 112.51 159.61C111 152.03 107.87 136.43 107.83 136.28C106.57 137.79 105.41 139.38 104.2 140.93C103.99 141.16 103.24 142.13 103.07 142.37C99.4299 147.09 95.93 151.92 92.7 156.95L99.5299 176.73C99.5399 176.71 99.5499 176.7 99.5499 176.69ZM153.45 123.27L153.63 123.16V123.15L147.95 106.7L159.58 119.48L159.8 119.36L160.03 119.2C161.15 118.52 162.25 117.82 163.39 117.16V117.15C163.4 117.15 163.4 117.14 163.41 117.14C165.37 107.25 169.41 86.8201 169.44 86.6601C167.64 87.6001 165.92 88.6501 164.16 89.6401C163.91 89.7601 162.95 90.3001 162.73 90.4501C157.54 93.4301 152.44 96.5401 147.55 99.9501L145.83 128.48C148.29 126.67 150.85 124.95 153.45 123.27ZM127.88 143.41C127.89 143.4 127.89 143.39 127.9 143.39C127.33 134.85 126.15 117.25 126.14 117.09C124.68 118.43 123.32 119.87 121.9 121.25C121.65 121.46 120.75 122.35 120.54 122.58C116.34 126.76 112.25 131.06 108.43 135.6L113.18 158.83C117.79 153.46 122.66 148.3 127.88 143.41ZM144.92 129.18C144.93 129.17 144.93 129.16 144.94 129.16C145.54 119.85 146.78 100.64 146.79 100.49C145.24 101.58 143.76 102.77 142.24 103.91C141.91 104.12 140.71 105.03 140.44 105.26C135.76 108.83 131.17 112.53 126.83 116.49L128.69 142.71C133.82 137.95 139.21 133.41 144.92 129.18ZM96.4199 277.82H102.63C102.74 276.29 102.9 274.77 103.05 273.25L97.35 267.98C96.92 271.24 96.6399 274.53 96.4199 277.82ZM98.33 348.03C99.36 350.98 100.49 353.9 101.68 356.81L105.58 352.59C105.94 352.19 106.44 351.99 106.99 351.98C106.69 351.24 106.36 350.52 106.08 349.78L98.33 348.03ZM81.5299 277.82H87.83C88.2 272.15 88.81 266.5 89.7 260.9L84.23 255.84C82.88 263.09 81.9999 270.43 81.5299 277.82ZM91.9299 346.58L118.14 341.74C115.55 338.92 113.05 336.26 110.61 333.72L91.9299 346.58L95.2899 341.25C92.3799 331.88 90.3299 322.36 89.0399 312.78C86.5299 310.55 84.13 308.48 81.86 306.6C83.57 325.7 88.24 344.7 96.09 362.86L101.19 357.35C99.8699 354.21 98.63 351.04 97.49 347.85L91.9299 346.58ZM106.88 349.97C107.16 350.7 107.47 351.41 107.76 352.14C108.12 352.28 108.45 352.49 108.68 352.82C112.96 358.94 117.78 364.34 122.26 368.8L122.62 367.63C119.71 362.46 117.17 357.17 114.9 351.8L106.88 349.97ZM137.4 363.61C137.39 363.6 137.38 363.59 137.37 363.58L128.15 374.39C130.68 376.64 132.88 378.45 134.53 379.74L134.56 379.72C134.57 379.72 134.57 379.73 134.58 379.74L146.3 374.16C143.49 370.75 140.52 367.21 137.42 363.57L137.4 363.61ZM115.67 351.96C117.79 357.04 120.15 362.05 122.83 366.96L125.74 357.58C125.12 356.34 124.5 355.09 123.92 353.83L115.67 351.96ZM72.83 299.51C70.52 297.81 68.3899 296.33 66.4099 295.02C67.0699 322.05 73.22 349.17 85.21 374.6L90.2 369.2C80.91 349.14 75.4 328.01 73.45 306.74L72.83 299.51ZM125.96 356.84L126.7 354.46L124.63 353.99C125.07 354.95 125.51 355.9 125.96 356.84ZM104.13 274.25C104.04 275.22 103.94 276.18 103.86 277.15L105.56 275.57L104.13 274.25ZM101.14 331.97L104.19 327.13C102.41 325.34 100.68 323.64 98.98 322.01C99.61 325.34 100.29 328.66 101.14 331.97ZM74.13 300L74.4299 306.34C76.2299 327.57 81.55 348.69 90.63 368.76L95.6499 363.34C87.4099 344.78 82.5299 325.3 80.7699 305.71C79.7499 304.87 74.13 300 74.13 300ZM151.72 387.14L146.33 387.35C147.35 387.87 148.4 388.39 149.53 388.89C150.15 389.16 150.87 389.46 151.62 389.76V389.74C151.64 389.75 151.66 389.75 151.68 389.76L151.78 387.14H151.72ZM88.96 277.82H95.2699C95.4999 274.2 95.8099 270.58 96.2799 266.99L90.7699 261.89C89.9299 267.16 89.34 272.48 88.96 277.82ZM95.85 340.35L100.55 332.89C99.4799 328.91 98.5699 324.91 97.8099 320.89C95.1399 318.33 92.58 315.96 90.14 313.76C91.35 322.7 93.24 331.59 95.85 340.35Z" fill="url(#paint5_linear_511_6)"/>
<path d="M230.78 262.91V300.51L263.34 319.31L295.9 300.51V262.91L263.34 244.11L230.78 262.91ZM289.13 266.17L289.4 266.65L289.71 267.2L266.47 283.15L263.93 311.86H262.75L260.21 283.21L236.96 267.19L237.55 266.17L263.4 278.25L289.13 266.17Z" fill="url(#paint6_radial_511_6)"/>
<path d="M332.6 185.92C337.85 176.83 347.38 171.75 357.18 171.75C361.99 171.75 366.87 172.98 371.34 175.56C357.78 167.73 357.84 142.25 371.47 118.65C360.56 137.54 344.25 149.49 331.23 149.49C327.98 149.49 324.94 148.75 322.24 147.18C335.79 155.02 340.43 172.36 332.6 185.92ZM422.01 247.03C414.18 233.47 426.95 211.43 450.55 197.8C438.71 204.64 426.4 208.06 416.08 208.06C405.83 208.06 397.55 204.69 393.64 197.93C401.47 211.49 396.83 228.83 383.27 236.67C387.74 234.09 392.62 232.86 397.43 232.86C407.23 232.86 416.76 237.94 422.01 247.03ZM263.34 181.75L273.83 209.45C287.29 210.8 299.81 214.64 311.18 219.86L263.34 88.9302L215.5 219.86C226.87 214.64 239.39 210.8 252.85 209.45L263.34 181.75ZM371.24 281.71C371.24 281.71 328.62 221.83 268.5 218.53L263.36 203.59L258.23 218.53C198.09 221.82 155.46 281.71 155.46 281.71C155.46 281.71 198.1 341.61 258.23 344.89L263.37 359.83L268.5 344.89C328.62 341.58 371.24 281.71 371.24 281.71ZM263.34 325.83C219.57 325.83 184.09 281.7 184.09 281.7C184.09 281.7 221.26 237.57 263.34 237.57C307.11 237.57 342.59 281.7 342.59 281.7C342.59 281.7 307.11 325.83 263.34 325.83ZM174.98 344.89C174.98 344.89 163.08 335.2 149.21 314.1C137.77 296.7 141.84 281.7 141.84 281.7H47.4199C47.4199 281.7 70.1599 282.31 124.94 343.11C162.19 384.45 182.76 414.94 190.32 426.88L195.02 428.13C198.49 416.39 208.47 382.22 218.09 344.72C205.45 339.24 194.17 332.03 184.53 324.57L174.98 344.89ZM104.66 246.92C109.91 237.83 119.44 232.74 129.24 232.75C134.05 232.75 138.93 233.98 143.4 236.56C129.84 228.73 125.2 211.38 133.03 197.82C129.13 204.58 120.84 207.95 110.59 207.95C100.27 207.95 87.96 204.53 76.12 197.69C99.72 211.32 112.5 233.36 104.66 246.92ZM155.38 175.49C159.84 172.91 164.72 171.69 169.52 171.69C179.32 171.69 188.86 176.78 194.11 185.88C186.28 172.32 190.93 154.98 204.5 147.15C201.8 148.71 198.76 149.45 195.52 149.45C182.49 149.45 166.19 137.48 155.28 118.58C168.9 142.19 168.94 167.66 155.38 175.49ZM384.84 281.71C384.84 281.71 388.91 296.72 377.47 314.11C363.6 335.2 351.7 344.9 351.7 344.9L342.14 324.57C332.51 332.04 321.23 339.24 308.58 344.72C318.36 382.83 328.5 417.49 331.81 428.68L336.03 427.4C343.3 415.86 363.92 385.08 401.73 343.12C456.52 282.32 479.25 281.71 479.25 281.71H384.84Z" fill="url(#paint7_linear_511_6)"/>
<path d="M332.6 185.92C337.85 176.83 347.38 171.75 357.18 171.75C361.99 171.75 366.87 172.98 371.34 175.56C357.78 167.73 357.84 142.25 371.47 118.65C360.56 137.54 344.25 149.49 331.23 149.49C327.98 149.49 324.94 148.75 322.24 147.18C335.79 155.02 340.43 172.36 332.6 185.92Z" fill="url(#paint8_linear_511_6)"/>
<path d="M422.01 247.03C414.18 233.47 426.95 211.43 450.55 197.8C438.71 204.64 426.4 208.06 416.08 208.06C405.83 208.06 397.55 204.69 393.64 197.93C401.47 211.49 396.83 228.83 383.27 236.67C387.74 234.09 392.62 232.86 397.43 232.86C407.23 232.86 416.76 237.94 422.01 247.03Z" fill="url(#paint9_linear_511_6)"/>
<path d="M104.66 246.92C109.91 237.83 119.44 232.74 129.24 232.75C134.05 232.75 138.93 233.98 143.4 236.56C129.84 228.73 125.2 211.38 133.03 197.82C129.13 204.58 120.84 207.95 110.59 207.95C100.27 207.95 87.96 204.53 76.12 197.69C99.72 211.32 112.5 233.36 104.66 246.92Z" fill="url(#paint10_linear_511_6)"/>
<path d="M155.38 175.49C159.84 172.91 164.72 171.69 169.52 171.69C179.32 171.69 188.86 176.78 194.11 185.88C186.28 172.32 190.93 154.98 204.5 147.15C201.8 148.71 198.76 149.45 195.52 149.45C182.49 149.45 166.19 137.48 155.28 118.58C168.9 142.19 168.94 167.66 155.38 175.49Z" fill="url(#paint11_linear_511_6)"/>
<path d="M245.92 249.64L208.87 187.37L244.27 250.58L245.92 249.64Z" fill="#E5C99B"/>
<path d="M254.39 244.74L235.14 176.48L252.72 245.71L254.39 244.74Z" fill="#E5C99B"/>
<path d="M264.24 241.89L263.34 172.77L262.43 241.89H264.24Z" fill="#E5C99B"/>
<path d="M226.74 260.71L227.73 260.14L168.99 227.24L226.74 261.6V260.71Z" fill="#E5C99B"/>
<path d="M237.47 254.52L186.31 204.68L235.8 255.48L237.47 254.52Z" fill="#E5C99B"/>
<path d="M299.84 260.71V261.65L357.68 227.24L298.89 260.16L299.84 260.71Z" fill="#E5C99B"/>
<path d="M226.74 270.94L158.11 253.51L226.74 272.86V270.94Z" fill="#E5C99B"/>
<path d="M299.84 272.89L368.56 253.51L299.84 270.96V272.89Z" fill="#E5C99B"/>
<path d="M273.94 245.76L291.53 176.48L272.27 244.79L273.94 245.76Z" fill="#E5C99B"/>
<path d="M299.84 280.76V282.65L372.27 281.71L299.84 280.76Z" fill="#E5C99B"/>
<path d="M290.84 255.51L340.37 204.68L289.17 254.55L290.84 255.51Z" fill="#E5C99B"/>
<path d="M282.38 250.63L317.8 187.37L280.73 249.68L282.38 250.63Z" fill="#E5C99B"/>
<path d="M226.74 302.91V301.82L168.99 336.18L227.56 303.38L226.74 302.91Z" fill="#E5C99B"/>
<path d="M280.82 313.89L317.81 376.05L282.46 312.94L280.82 313.89Z" fill="#E5C99B"/>
<path d="M289.3 308.99L340.37 358.74L290.97 308.03L289.3 308.99Z" fill="#E5C99B"/>
<path d="M272.32 318.8L291.53 386.93L273.98 317.84L272.32 318.8Z" fill="#E5C99B"/>
<path d="M226.74 280.76L154.4 281.71L226.74 282.65V280.76Z" fill="#E5C99B"/>
<path d="M299.84 292.45L368.56 309.9L299.84 290.52V292.45Z" fill="#E5C99B"/>
<path d="M299.84 302.91L299.07 303.35L357.68 336.18L299.84 301.77V302.91Z" fill="#E5C99B"/>
<path d="M226.74 290.55L158.11 309.91L226.74 292.47V290.55Z" fill="#E5C99B"/>
<path d="M235.67 308.07L186.31 358.74L237.34 309.03L235.67 308.07Z" fill="#E5C99B"/>
<path d="M262.43 321.73L263.33 390.65L264.23 321.73H262.43Z" fill="#E5C99B"/>
<path d="M252.68 317.88L235.14 386.94L254.34 318.84L252.68 317.88Z" fill="#E5C99B"/>
<path d="M244.19 312.98L208.87 376.05L245.83 313.93L244.19 312.98Z" fill="#E5C99B"/>
<defs>
<linearGradient id="paint0_linear_511_6" x1="263.337" y1="436.546" x2="263.337" y2="-293.123" gradientUnits="userSpaceOnUse">
<stop offset="0.1885" stop-color="#442A12"/>
<stop offset="0.3912" stop-color="#806235"/>
<stop offset="0.5731" stop-color="#88704B"/>
</linearGradient>
<linearGradient id="paint1_linear_511_6" x1="421.454" y1="404.932" x2="421.454" y2="355.543" gradientUnits="userSpaceOnUse">
<stop offset="0.6486" stop-color="#C1A881"/>
<stop offset="0.7808" stop-color="#B38C53"/>
<stop offset="0.88" stop-color="#442A12"/>
</linearGradient>
<linearGradient id="paint2_linear_511_6" x1="105.096" y1="404.932" x2="105.096" y2="355.543" gradientUnits="userSpaceOnUse">
<stop offset="0.6486" stop-color="#C1A881"/>
<stop offset="0.7808" stop-color="#B38C53"/>
<stop offset="0.88" stop-color="#442A12"/>
</linearGradient>
<linearGradient id="paint3_linear_511_6" x1="263.275" y1="521.219" x2="263.275" y2="134.155" gradientUnits="userSpaceOnUse">
<stop offset="0.1458" stop-color="#492F15"/>
<stop offset="0.2263" stop-color="#A27C3D"/>
<stop offset="0.4953" stop-color="#442A12"/>
</linearGradient>
<linearGradient id="paint4_linear_511_6" x1="262.02" y1="238.937" x2="262.02" y2="545.118" gradientUnits="userSpaceOnUse">
<stop offset="0.6486" stop-color="#C1A881"/>
<stop offset="0.7808" stop-color="#B38C53"/>
<stop offset="0.88" stop-color="#442A12"/>
</linearGradient>
<linearGradient id="paint5_linear_511_6" x1="263.319" y1="63.5916" x2="263.319" y2="437.07" gradientUnits="userSpaceOnUse">
<stop offset="0.1163" stop-color="#8C7145"/>
<stop offset="0.395" stop-color="#58452D"/>
<stop offset="0.7826" stop-color="#463119"/>
</linearGradient>
<radialGradient id="paint6_radial_511_6" cx="0" cy="0" r="1" gradientUnits="userSpaceOnUse" gradientTransform="translate(263.342 281.706) scale(35.1689 35.1689)">
<stop offset="0.2296" stop-color="#E6C983"/>
<stop offset="0.6" stop-color="#E6C983"/>
<stop offset="0.9379" stop-color="#C99C5A"/>
</radialGradient>
<linearGradient id="paint7_linear_511_6" x1="263.338" y1="22.9534" x2="263.338" y2="454.791" gradientUnits="userSpaceOnUse">
<stop offset="0.2653" stop-color="#D4B583"/>
<stop offset="0.5083" stop-color="#A78048"/>
<stop offset="0.7393" stop-color="#A78048"/>
<stop offset="1" stop-color="#74533F"/>
</linearGradient>
<linearGradient id="paint8_linear_511_6" x1="346.847" y1="105.58" x2="346.847" y2="191.091" gradientUnits="userSpaceOnUse">
<stop offset="0.2653" stop-color="#D4B583"/>
<stop offset="0.5083" stop-color="#A78048"/>
<stop offset="0.7393" stop-color="#A78048"/>
<stop offset="1" stop-color="#74533F"/>
</linearGradient>
<linearGradient id="paint9_linear_511_6" x1="416.912" y1="188.235" x2="416.912" y2="250.817" gradientUnits="userSpaceOnUse">
<stop offset="0.2653" stop-color="#D4B583"/>
<stop offset="0.5083" stop-color="#A78048"/>
<stop offset="0.7393" stop-color="#A78048"/>
<stop offset="1" stop-color="#74533F"/>
</linearGradient>
<linearGradient id="paint10_linear_511_6" x1="109.764" y1="188.125" x2="109.764" y2="250.708" gradientUnits="userSpaceOnUse">
<stop offset="0.2653" stop-color="#D4B583"/>
<stop offset="0.5083" stop-color="#A78048"/>
<stop offset="0.7393" stop-color="#A78048"/>
<stop offset="1" stop-color="#74533F"/>
</linearGradient>
<linearGradient id="paint11_linear_511_6" x1="179.886" y1="105.51" x2="179.886" y2="191.053" gradientUnits="userSpaceOnUse">
<stop offset="0.2653" stop-color="#D4B583"/>
<stop offset="0.5083" stop-color="#A78048"/>
<stop offset="0.7393" stop-color="#A78048"/>
<stop offset="1" stop-color="#74533F"/>
</linearGradient>
</defs>
</svg>
