<svg width="214" height="240" viewBox="0 0 214 240" fill="none" xmlns="http://www.w3.org/2000/svg">
<mask id="path-1-outside-1_9_9" maskUnits="userSpaceOnUse" x="0" y="0" width="214" height="240" fill="black">
<rect fill="white" width="214" height="240"/>
<path d="M106.103 20.2887C106.412 20.11 106.793 20.11 107.103 20.2887L192.705 69.7113C193.014 69.89 193.205 70.2201 193.205 70.5773V169.423C193.205 169.78 193.014 170.11 192.705 170.289L107.103 219.711C106.793 219.89 106.412 219.89 106.103 219.711L20.5 170.289C20.1906 170.11 20 169.78 20 169.423V70.5773C20 70.2201 20.1906 69.89 20.5 69.7113L106.103 20.2887Z"/>
</mask>
<path d="M107.103 20.2887L117.103 2.96817L107.103 20.2887ZM106.103 20.2887L96.1025 2.96817L106.103 20.2887ZM20.5 69.7113L10.5 52.3908L20.5 69.7113ZM20.5 170.289L10.5 187.609L10.5 187.609L20.5 170.289ZM107.103 219.711L97.1025 202.391L107.103 219.711ZM106.103 219.711L116.103 202.391L106.103 219.711ZM192.705 170.289L202.705 187.609L192.705 170.289ZM192.705 69.7113L182.705 87.0318L192.705 69.7113ZM173.205 70.5773V169.423H213.205V70.5773H173.205ZM182.705 152.968L97.1025 202.391L117.103 237.032L202.705 187.609L182.705 152.968ZM116.103 202.391L30.5 152.968L10.5 187.609L96.1025 237.032L116.103 202.391ZM40 169.423V70.5773H0V169.423H40ZM97.1025 37.6092L182.705 87.0318L202.705 52.3908L117.103 2.96817L97.1025 37.6092ZM30.5 87.0318L116.103 37.6092L96.1025 2.96817L10.5 52.3908L30.5 87.0318ZM117.103 2.96817C110.605 -0.783102 102.6 -0.783142 96.1025 2.96817L116.103 37.6092C110.224 41.0032 102.981 41.0032 97.1025 37.6092L117.103 2.96817ZM40 70.5773C40 77.3654 36.3786 83.6378 30.5 87.0318L10.5 52.3908C4.00261 56.1421 0 63.0747 0 70.5773H40ZM30.5 152.968C36.3787 156.362 40 162.635 40 169.423H0C0 176.925 4.00254 183.858 10.5 187.609L30.5 152.968ZM97.1025 202.391C102.981 198.997 110.224 198.997 116.103 202.391L96.1025 237.032C102.6 240.783 110.605 240.783 117.103 237.032L97.1025 202.391ZM173.205 169.423C173.205 162.635 176.826 156.362 182.705 152.968L202.705 187.609C209.202 183.858 213.205 176.925 213.205 169.423H173.205ZM213.205 70.5773C213.205 63.0748 209.203 56.1421 202.705 52.3908L182.705 87.0318C176.826 83.6378 173.205 77.3654 173.205 70.5773H213.205Z" fill="#673910" mask="url(#path-1-outside-1_9_9)"/>
<path d="M193.205 170V70L106.603 120V220L193.205 170Z" fill="#AA561F"/>
<path d="M20 170L106.603 220V120L20 70V170Z" fill="#F1B155"/>
<path d="M193.205 70L106.603 20L20 70L106.603 120L193.205 70Z" fill="#C56D28"/>
</svg>
