<svg width="235" height="235" viewBox="0 0 235 235" fill="none" xmlns="http://www.w3.org/2000/svg">
<mask id="path-1-inside-1_16_23" fill="white">
<path fill-rule="evenodd" clip-rule="evenodd" d="M56.7432 22.4069C14.3591 36.1265 -8.87812 81.6075 4.84146 123.992L22.4069 178.257C36.1265 220.641 81.6075 243.878 123.992 230.159L178.257 212.593C220.641 198.873 243.878 153.393 230.159 111.008L212.593 56.7432C198.873 14.3591 153.393 -8.87811 111.008 4.84147L56.7432 22.4069Z"/>
</mask>
<path fill-rule="evenodd" clip-rule="evenodd" d="M56.7432 22.4069C14.3591 36.1265 -8.87812 81.6075 4.84146 123.992L22.4069 178.257C36.1265 220.641 81.6075 243.878 123.992 230.159L178.257 212.593C220.641 198.873 243.878 153.393 230.159 111.008L212.593 56.7432C198.873 14.3591 153.393 -8.87811 111.008 4.84147L56.7432 22.4069Z" fill="#FBAF3E"/>
<path d="M4.84147 123.992L0.0844754 125.531L0.0844754 125.531L4.84147 123.992ZM56.7432 22.4069L58.283 27.1639L58.283 27.1639L56.7432 22.4069ZM22.4069 178.257L17.6499 179.797L22.4069 178.257ZM123.992 230.159L125.531 234.916L125.531 234.916L123.992 230.159ZM178.257 212.593L176.717 207.836L176.717 207.836L178.257 212.593ZM230.159 111.008L234.916 109.469L234.916 109.469L230.159 111.008ZM212.593 56.7432L217.35 55.2034L217.35 55.2034L212.593 56.7432ZM111.008 4.84147L109.469 0.0844755L109.469 0.0844755L111.008 4.84147ZM9.59846 122.452C-3.2707 82.6949 18.5261 40.0331 58.283 27.1639L55.2034 17.6499C10.1921 32.2199 -14.4855 80.5201 0.0844754 125.531L9.59846 122.452ZM27.1639 176.717L9.59846 122.452L0.0844754 125.531L17.6499 179.797L27.1639 176.717ZM122.452 225.402C82.6949 238.271 40.0331 216.474 27.1639 176.717L17.6499 179.797C32.2199 224.808 80.5201 249.486 125.531 234.916L122.452 225.402ZM176.717 207.836L122.452 225.402L125.531 234.916L179.797 217.35L176.717 207.836ZM225.402 112.548C238.271 152.305 216.474 194.967 176.717 207.836L179.797 217.35C224.808 202.78 249.486 154.48 234.916 109.469L225.402 112.548ZM207.836 58.283L225.402 112.548L234.916 109.469L217.35 55.2034L207.836 58.283ZM112.548 9.59846C152.305 -3.2707 194.967 18.5261 207.836 58.283L217.35 55.2034C202.78 10.1921 154.48 -14.4855 109.469 0.0844755L112.548 9.59846ZM58.283 27.1639L112.548 9.59846L109.469 0.0844755L55.2034 17.6499L58.283 27.1639Z" fill="black" mask="url(#path-1-inside-1_16_23)"/>
<path fill-rule="evenodd" clip-rule="evenodd" d="M10.3746 73.8624C5.01023 88.9138 4.38627 105.788 9.68753 122.165L27.5641 177.391C40.3405 216.861 82.6946 238.501 122.165 225.725L177.391 207.848C216.861 195.072 238.501 152.718 225.725 113.247L207.848 58.021C207.778 57.8035 207.706 57.5864 207.634 57.37C189.923 22.7345 149.208 5.08014 111.008 17.4452L56.7432 35.0106C36.0109 41.7216 19.8599 56.0321 10.3746 73.8624Z" fill="#B65100"/>
<g filter="url(#filter0_d_16_23)">
<mask id="path-4-outside-2_16_23" maskUnits="userSpaceOnUse" x="43.3468" y="43.6261" width="149" height="149" fill="black">
<rect fill="white" x="43.3468" y="43.6261" width="149" height="149"/>
<path fill-rule="evenodd" clip-rule="evenodd" d="M140.14 72.3078L134.756 56.4558C129.841 42.5246 113.735 48.8933 117.822 62.2076L123.182 77.9891L88.2517 89.6908L82.9003 73.9347C77.9851 60.0035 61.8787 66.3722 65.9654 79.6865L71.2929 95.3721L56.2144 100.423C42.2628 105.281 48.5644 121.413 61.8956 117.382L77.0447 112.307L88.4812 145.979L73.4571 151.012C59.5055 155.87 65.8071 172.002 79.1383 167.971L94.2331 162.914L100.013 179.933C104.245 191.73 120.866 187.879 116.948 174.181L111.192 157.233L146.122 145.531L151.87 162.454C156.101 174.251 172.722 170.4 168.804 156.702L163.081 139.85L179.526 134.341C191.34 130.158 187.559 113.521 173.845 117.382L157.329 122.915L145.892 89.2429L162.283 83.7518C174.097 79.5691 170.316 62.9322 156.602 66.7931L140.14 72.3078ZM128.933 94.9241L94.0036 106.626L105.44 140.298L140.37 128.596L128.933 94.9241Z"/>
</mask>
<path fill-rule="evenodd" clip-rule="evenodd" d="M140.14 72.3078L134.756 56.4558C129.841 42.5246 113.735 48.8933 117.822 62.2076L123.182 77.9891L88.2517 89.6908L82.9003 73.9347C77.9851 60.0035 61.8787 66.3722 65.9654 79.6865L71.2929 95.3721L56.2144 100.423C42.2628 105.281 48.5644 121.413 61.8956 117.382L77.0447 112.307L88.4812 145.979L73.4571 151.012C59.5055 155.87 65.8071 172.002 79.1383 167.971L94.2331 162.914L100.013 179.933C104.245 191.73 120.866 187.879 116.948 174.181L111.192 157.233L146.122 145.531L151.87 162.454C156.101 174.251 172.722 170.4 168.804 156.702L163.081 139.85L179.526 134.341C191.34 130.158 187.559 113.521 173.845 117.382L157.329 122.915L145.892 89.2429L162.283 83.7518C174.097 79.5691 170.316 62.9322 156.602 66.7931L140.14 72.3078ZM128.933 94.9241L94.0036 106.626L105.44 140.298L140.37 128.596L128.933 94.9241Z" fill="white"/>
<path d="M134.756 56.4558L139.491 54.8478L139.481 54.8199L139.472 54.7922L134.756 56.4558ZM140.14 72.3078L135.406 73.9158L137.007 78.6305L141.729 77.0489L140.14 72.3078ZM117.822 62.2076L113.042 63.6747L113.063 63.7455L113.087 63.8156L117.822 62.2076ZM123.182 77.9891L124.77 82.7302L129.531 81.1353L127.916 76.3811L123.182 77.9891ZM88.2517 89.6908L83.5173 91.2988L85.1186 96.0135L89.84 94.4318L88.2517 89.6908ZM82.9003 73.9347L87.6346 72.3267L87.6252 72.2988L87.6154 72.2711L82.9003 73.9347ZM65.9654 79.6865L61.1855 81.1536L61.2072 81.2244L61.231 81.2945L65.9654 79.6865ZM71.2929 95.3721L72.8812 100.113L77.642 98.5182L76.0273 93.7641L71.2929 95.3721ZM56.2144 100.423L54.6261 95.6824L54.5982 95.6918L54.5704 95.7015L56.2144 100.423ZM61.8956 117.382L63.3428 122.168L63.4137 122.147L63.4839 122.123L61.8956 117.382ZM77.0447 112.307L81.7791 110.699L80.1778 105.984L75.4565 107.566L77.0447 112.307ZM88.4812 145.979L90.0695 150.72L94.8303 149.125L93.2156 144.371L88.4812 145.979ZM73.4571 151.012L71.8688 146.271L71.8409 146.281L71.8131 146.29L73.4571 151.012ZM79.1383 167.971L80.5855 172.757L80.6564 172.736L80.7266 172.712L79.1383 167.971ZM94.2331 162.914L98.9675 161.306L97.3661 156.592L92.6448 158.173L94.2331 162.914ZM100.013 179.933L95.279 181.541L95.2927 181.582L95.3071 181.622L100.013 179.933ZM116.948 174.181L121.756 172.806L121.722 172.689L121.683 172.573L116.948 174.181ZM111.192 157.233L109.604 152.492L104.843 154.087L106.458 158.841L111.192 157.233ZM146.122 145.531L150.856 143.923L149.255 139.209L144.534 140.79L146.122 145.531ZM151.87 162.454L147.135 164.062L147.149 164.103L147.163 164.143L151.87 162.454ZM168.804 156.702L173.612 155.327L173.578 155.21L173.539 155.094L168.804 156.702ZM163.081 139.85L161.492 135.109L156.732 136.704L158.346 141.458L163.081 139.85ZM179.526 134.341L181.114 139.082L181.155 139.068L181.195 139.054L179.526 134.341ZM173.845 117.382L172.49 112.569L172.372 112.602L172.256 112.641L173.845 117.382ZM157.329 122.915L152.594 124.523L154.196 129.238L158.917 127.656L157.329 122.915ZM145.892 89.2429L144.304 84.5018L139.543 86.0967L141.158 90.8509L145.892 89.2429ZM162.283 83.7518L163.871 88.4928L163.912 88.4793L163.952 88.4651L162.283 83.7518ZM156.602 66.7931L155.247 61.9802L155.129 62.0133L155.014 62.0521L156.602 66.7931ZM128.933 94.9241L133.668 93.3162L132.067 88.6014L127.345 90.1831L128.933 94.9241ZM94.0036 106.626L92.4153 101.885L87.6545 103.48L89.2692 108.234L94.0036 106.626ZM105.44 140.298L100.706 141.906L102.307 146.621L107.028 145.039L105.44 140.298ZM140.37 128.596L141.958 133.337L146.719 131.742L145.104 126.988L140.37 128.596ZM130.022 58.0638L135.406 73.9158L144.875 70.6998L139.491 54.8478L130.022 58.0638ZM122.601 60.7404C121.232 56.2805 123.323 54.2901 124.635 53.8087C125.398 53.529 126.249 53.5525 127.087 54.0046C127.923 54.4563 129.139 55.5632 130.041 58.1194L139.472 54.7922C137.916 50.3827 135.276 47.0616 131.837 45.2053C128.4 43.3495 124.559 43.1852 121.191 44.4205C114.243 46.9692 110.324 54.8204 113.042 63.6747L122.601 60.7404ZM127.916 76.3811L122.556 60.5996L113.087 63.8156L118.447 79.5971L127.916 76.3811ZM89.84 94.4318L124.77 82.7302L121.593 73.2481L86.6634 84.9498L89.84 94.4318ZM78.1659 75.5427L83.5173 91.2988L92.9861 88.0828L87.6346 72.3267L78.1659 75.5427ZM70.7453 78.2193C69.3764 73.7594 71.4667 71.769 72.7791 71.2876C73.5418 71.0079 74.393 71.0314 75.2304 71.4835C76.0669 71.9352 77.2833 73.0422 78.1851 75.5983L87.6154 72.2711C86.0596 67.8616 83.4195 64.5405 79.9814 62.6842C76.5442 60.8284 72.7026 60.6641 69.3352 61.8994C62.3872 64.4481 58.4677 72.2993 61.1855 81.1536L70.7453 78.2193ZM76.0273 93.7641L70.6998 78.0785L61.231 81.2945L66.5585 96.9801L76.0273 93.7641ZM57.8026 105.165L72.8812 100.113L69.7046 90.6311L54.6261 95.6824L57.8026 105.165ZM60.4484 112.596C55.9827 113.947 54.0011 111.848 53.5252 110.534C53.2486 109.77 53.2757 108.919 53.7313 108.083C54.1864 107.248 55.2984 106.037 57.8583 105.145L54.5704 95.7015C50.1545 97.2388 46.8224 99.8651 44.9518 103.296C43.0817 106.725 42.9014 110.566 44.1227 113.938C46.6424 120.897 54.4772 124.849 63.3428 122.168L60.4484 112.596ZM75.4565 107.566L60.3073 112.641L63.4839 122.123L78.633 117.048L75.4565 107.566ZM93.2156 144.371L81.7791 110.699L72.3104 113.915L83.7469 147.587L93.2156 144.371ZM75.0453 155.754L90.0695 150.72L86.893 141.238L71.8688 146.271L75.0453 155.754ZM77.6911 163.185C73.2254 164.536 71.2439 162.437 70.7679 161.123C70.4913 160.359 70.5184 159.508 70.974 158.672C71.4291 157.837 72.5412 156.626 75.101 155.735L71.8131 146.29C67.3972 147.828 64.0651 150.454 62.1945 153.885C60.3244 157.314 60.1441 161.155 61.3654 164.527C63.8852 171.486 71.72 175.438 80.5855 172.757L77.6911 163.185ZM92.6448 158.173L77.55 163.23L80.7266 172.712L95.8214 167.655L92.6448 158.173ZM104.748 178.325L98.9675 161.306L89.4987 164.522L95.279 181.541L104.748 178.325ZM112.141 175.556C112.842 178.006 112.489 179.475 112.097 180.245C111.696 181.03 111.018 181.566 110.161 181.811C108.536 182.276 105.959 181.7 104.72 178.245L95.3071 181.622C98.2995 189.963 106.149 193.36 112.913 191.425C116.251 190.469 119.258 188.211 121.004 184.791C122.758 181.354 123.014 177.205 121.756 172.806L112.141 175.556ZM106.458 158.841L112.214 175.789L121.683 172.573L115.926 155.625L106.458 158.841ZM144.534 140.79L109.604 152.492L112.78 161.974L147.71 150.272L144.534 140.79ZM156.604 160.846L150.856 143.923L141.387 147.139L147.135 164.062L156.604 160.846ZM163.997 158.077C164.698 160.527 164.346 161.996 163.953 162.766C163.552 163.551 162.874 164.087 162.018 164.332C160.392 164.797 157.815 164.221 156.576 160.766L147.163 164.143C150.156 172.484 158.005 175.881 164.769 173.946C168.107 172.991 171.114 170.732 172.86 167.312C174.614 163.876 174.87 159.726 173.612 155.327L163.997 158.077ZM158.346 141.458L164.07 158.31L173.539 155.094L167.815 138.242L158.346 141.458ZM177.938 129.6L161.492 135.109L164.669 144.591L181.114 139.082L177.938 129.6ZM175.2 122.195C177.653 121.504 179.12 121.863 179.888 122.259C180.671 122.663 181.204 123.343 181.446 124.201C181.904 125.828 181.317 128.402 177.857 129.627L181.195 139.054C189.548 136.096 192.978 128.261 191.071 121.49C190.13 118.147 187.884 115.131 184.471 113.371C181.042 111.603 176.894 111.329 172.49 112.569L175.2 122.195ZM158.917 127.656L175.433 122.123L172.256 112.641L155.74 118.174L158.917 127.656ZM141.158 90.8509L152.594 124.523L162.063 121.307L150.627 87.6349L141.158 90.8509ZM160.695 79.0108L144.304 84.5018L147.481 93.9839L163.871 88.4928L160.695 79.0108ZM157.957 71.606C160.41 70.9155 161.877 71.2739 162.645 71.6698C163.429 72.074 163.961 72.7544 164.203 73.6117C164.661 75.2392 164.075 77.8135 160.614 79.0385L163.952 88.4651C172.306 85.5075 175.735 77.672 173.828 70.9006C172.887 67.5584 170.641 64.5421 167.228 62.782C163.799 61.0137 159.651 60.7403 155.247 61.9802L157.957 71.606ZM141.729 77.0489L158.19 71.5342L155.014 62.0521L138.552 67.5668L141.729 77.0489ZM127.345 90.1831L92.4153 101.885L95.5918 111.367L130.522 99.6652L127.345 90.1831ZM89.2692 108.234L100.706 141.906L110.174 138.69L98.7379 105.018L89.2692 108.234ZM107.028 145.039L141.958 133.337L138.782 123.855L103.852 135.557L107.028 145.039ZM145.104 126.988L133.668 93.3162L124.199 96.5321L135.636 130.204L145.104 126.988Z" fill="black" mask="url(#path-4-outside-2_16_23)"/>
</g>
<defs>
<filter id="filter0_d_16_23" x="41.3303" y="43.6263" width="152.271" height="157.906" filterUnits="userSpaceOnUse" color-interpolation-filters="sRGB">
<feFlood flood-opacity="0" result="BackgroundImageFix"/>
<feColorMatrix in="SourceAlpha" type="matrix" values="0 0 0 0 0 0 0 0 0 0 0 0 0 0 0 0 0 0 127 0" result="hardAlpha"/>
<feOffset dy="7.56221"/>
<feGaussianBlur stdDeviation="1.0083"/>
<feComposite in2="hardAlpha" operator="out"/>
<feColorMatrix type="matrix" values="0 0 0 0 0.811765 0 0 0 0 0.396078 0 0 0 0 0.00392157 0 0 0 1 0"/>
<feBlend mode="normal" in2="BackgroundImageFix" result="effect1_dropShadow_16_23"/>
<feBlend mode="normal" in="SourceGraphic" in2="effect1_dropShadow_16_23" result="shape"/>
</filter>
</defs>
</svg>
