<svg width="214" height="240" viewBox="0 0 214 240" fill="none" xmlns="http://www.w3.org/2000/svg">
<mask id="path-1-outside-1_14_2" maskUnits="userSpaceOnUse" x="0" y="0" width="214" height="240" fill="black">
<rect fill="white" width="214" height="240"/>
<path d="M106.103 20.2887C106.412 20.11 106.793 20.11 107.103 20.2887L192.705 69.7113C193.014 69.89 193.205 70.2201 193.205 70.5773V169.423C193.205 169.78 193.014 170.11 192.705 170.289L107.103 219.711C106.793 219.89 106.412 219.89 106.103 219.711L20.5 170.289C20.1906 170.11 20 169.78 20 169.423V70.5773C20 70.2201 20.1906 69.89 20.5 69.7113L106.103 20.2887Z"/>
</mask>
<path d="M107.103 20.2887L117.103 2.96817L107.103 20.2887ZM106.103 20.2887L96.1025 2.96817L106.103 20.2887ZM20.5 69.7113L10.5 52.3908L20.5 69.7113ZM20.5 170.289L10.5 187.609L10.5 187.609L20.5 170.289ZM107.103 219.711L97.1025 202.391L107.103 219.711ZM106.103 219.711L116.103 202.391L106.103 219.711ZM192.705 170.289L202.705 187.609L192.705 170.289ZM192.705 69.7113L182.705 87.0318L192.705 69.7113ZM173.205 70.5773V169.423H213.205V70.5773H173.205ZM182.705 152.968L97.1025 202.391L117.103 237.032L202.705 187.609L182.705 152.968ZM116.103 202.391L30.5 152.968L10.5 187.609L96.1025 237.032L116.103 202.391ZM40 169.423V70.5773H0V169.423H40ZM97.1025 37.6092L182.705 87.0318L202.705 52.3908L117.103 2.96817L97.1025 37.6092ZM30.5 87.0318L116.103 37.6092L96.1025 2.96817L10.5 52.3908L30.5 87.0318ZM117.103 2.96817C110.605 -0.783102 102.6 -0.783142 96.1025 2.96817L116.103 37.6092C110.224 41.0032 102.981 41.0032 97.1025 37.6092L117.103 2.96817ZM40 70.5773C40 77.3654 36.3786 83.6378 30.5 87.0318L10.5 52.3908C4.00261 56.1421 0 63.0747 0 70.5773H40ZM30.5 152.968C36.3787 156.362 40 162.635 40 169.423H0C0 176.925 4.00254 183.858 10.5 187.609L30.5 152.968ZM97.1025 202.391C102.981 198.997 110.224 198.997 116.103 202.391L96.1025 237.032C102.6 240.783 110.605 240.783 117.103 237.032L97.1025 202.391ZM173.205 169.423C173.205 162.635 176.826 156.362 182.705 152.968L202.705 187.609C209.202 183.858 213.205 176.925 213.205 169.423H173.205ZM213.205 70.5773C213.205 63.0748 209.203 56.1421 202.705 52.3908L182.705 87.0318C176.826 83.6378 173.205 77.3654 173.205 70.5773H213.205Z" fill="#401A68" mask="url(#path-1-outside-1_14_2)"/>
<path d="M193.205 170V70L106.603 120V220L193.205 170Z" fill="#5B22A7"/>
<path d="M20 170L106.603 220V120L20 70V170Z" fill="#9E50DA"/>
<path d="M193.205 70L106.603 20L20 70L106.603 120L193.205 70Z" fill="#7A29D7"/>
<path d="M133.025 95.615C129.615 95.615 127.187 96.235 125.74 97.475C124.397 98.6117 123.415 100.73 122.795 103.83L131.94 104.915C141.24 106.052 147.802 108.377 151.625 111.89C155.448 115.3 157.36 120.053 157.36 126.15C157.36 137.207 154.363 146.817 148.37 154.98C142.48 163.143 133.852 167.432 122.485 167.845L119.23 183.5H100.165L103.575 167.845C94.4817 167.122 86.7833 165.882 80.48 164.125L89.16 139.48C96.8067 141.753 105.125 142.89 114.115 142.89C117.835 142.89 121.4 142.683 124.81 142.27L125.895 135.76L116.905 134.675C107.915 133.538 101.612 131.162 97.995 127.545C94.4817 123.928 92.725 118.968 92.725 112.665C92.725 101.608 95.36 92.1017 100.63 84.145C105.9 76.1883 113.908 71.3317 124.655 69.575L127.445 56.71H146.045L143.565 69.11C151.108 69.6267 157.825 70.4533 163.715 71.59L155.19 95.615H133.025ZM88.23 107.86L22.355 100.885H89.16C88.85 102.022 88.54 104.347 88.23 107.86ZM93.965 86.005L91.175 92.825L26.85 86.005H93.965ZM88.23 115.765C88.4367 118.555 88.85 120.88 89.47 122.74L23.905 115.765H88.23ZM108.38 137.62L27.47 130.645H94.275C97.8917 134.158 102.593 136.483 108.38 137.62ZM107.605 71.125C104.195 73.295 101.663 75.4133 100.01 77.48L40.18 71.125H107.605ZM24.06 145.525H82.03L79.705 152.345L24.06 145.525ZM21.27 160.56H76.915L74.59 167.38L21.27 160.56Z" fill="white"/>
</svg>
