<svg width="147" height="37" viewBox="0 0 147 37" fill="none" xmlns="http://www.w3.org/2000/svg">
<path d="M63.7745 8.0399C66.2465 10.5119 67.4825 13.6319 67.4825 17.3999C67.4825 21.1679 66.2465 24.2999 63.7745 26.7959C61.3265 29.2679 58.2425 30.5039 54.5225 30.5039C50.8025 30.5039 47.7065 29.2679 45.2345 26.7959C42.7865 24.2999 41.5625 21.1679 41.5625 17.3999C41.5625 13.6319 42.7865 10.5119 45.2345 8.0399C47.7065 5.5439 50.8025 4.2959 54.5225 4.2959C58.2425 4.2959 61.3265 5.5439 63.7745 8.0399ZM48.6905 23.7719C50.2265 25.3319 52.1705 26.1119 54.5225 26.1119C56.8745 26.1119 58.8185 25.3319 60.3545 23.7719C61.8905 22.1879 62.6585 20.0639 62.6585 17.3999C62.6585 14.7359 61.8905 12.6239 60.3545 11.0639C58.8185 9.4799 56.8745 8.6879 54.5225 8.6879C52.1705 8.6879 50.2265 9.4799 48.6905 11.0639C47.1545 12.6239 46.3865 14.7359 46.3865 17.3999C46.3865 20.0639 47.1545 22.1879 48.6905 23.7719Z" fill="#2B48FE"/>
<path d="M67.7896 29.9999L77.9776 4.7999H82.5136L92.7016 29.9999H87.6256L85.1056 23.4119H75.3856L72.8656 29.9999H67.7896ZM79.3096 13.1159L77.0056 19.1639H83.4856L81.1816 13.1159C80.8696 12.2999 80.5576 11.3879 80.2456 10.3799L79.3096 13.1159Z" fill="#2B48FE"/>
<path d="M99.6659 11.0999C99.6659 12.0599 100.146 12.8519 101.106 13.4759C102.066 14.0759 103.614 14.5919 105.75 15.0239C108.534 15.5999 110.598 16.5119 111.942 17.7599C113.31 19.0079 113.994 20.6759 113.994 22.7639C113.994 24.8999 113.13 26.7239 111.402 28.2359C109.698 29.7479 107.43 30.5039 104.598 30.5039C101.598 30.5039 99.2099 29.7719 97.4339 28.3079C95.6579 26.8439 94.5179 24.8879 94.0139 22.4399L98.1899 20.3159C98.9339 24.3239 101.058 26.3279 104.562 26.3279C105.978 26.3279 107.106 26.0159 107.946 25.3919C108.81 24.7679 109.242 23.9519 109.242 22.9439C109.242 21.8399 108.738 20.9759 107.73 20.3519C106.746 19.7279 105.174 19.1999 103.014 18.7679C100.59 18.2879 98.6699 17.4239 97.2539 16.1759C95.8379 14.9039 95.1299 13.2479 95.1299 11.2079C95.1299 9.1199 95.9459 7.4519 97.5779 6.2039C99.2099 4.9319 101.346 4.2959 103.986 4.2959C108.786 4.2959 111.978 6.4559 113.562 10.7759L109.818 12.9359C108.81 9.9599 106.83 8.4719 103.878 8.4719C102.678 8.4719 101.67 8.6999 100.854 9.1559C100.062 9.5879 99.6659 10.2359 99.6659 11.0999Z" fill="#2B48FE"/>
<path d="M118.05 29.9999V4.7999H122.802V29.9999H118.05Z" fill="#2B48FE"/>
<path d="M132.221 11.0999C132.221 12.0599 132.701 12.8519 133.661 13.4759C134.621 14.0759 136.169 14.5919 138.305 15.0239C141.089 15.5999 143.153 16.5119 144.497 17.7599C145.865 19.0079 146.549 20.6759 146.549 22.7639C146.549 24.8999 145.685 26.7239 143.957 28.2359C142.253 29.7479 139.985 30.5039 137.153 30.5039C134.153 30.5039 131.765 29.7719 129.989 28.3079C128.213 26.8439 127.073 24.8879 126.569 22.4399L130.745 20.3159C131.489 24.3239 133.613 26.3279 137.117 26.3279C138.533 26.3279 139.661 26.0159 140.501 25.3919C141.365 24.7679 141.797 23.9519 141.797 22.9439C141.797 21.8399 141.293 20.9759 140.285 20.3519C139.301 19.7279 137.729 19.1999 135.569 18.7679C133.145 18.2879 131.225 17.4239 129.809 16.1759C128.393 14.9039 127.685 13.2479 127.685 11.2079C127.685 9.1199 128.501 7.4519 130.133 6.2039C131.765 4.9319 133.901 4.2959 136.541 4.2959C141.341 4.2959 144.533 6.4559 146.117 10.7759L142.373 12.9359C141.365 9.9599 139.385 8.4719 136.433 8.4719C135.233 8.4719 134.225 8.6999 133.409 9.1559C132.617 9.5879 132.221 10.2359 132.221 11.0999Z" fill="#2B48FE"/>
<circle cx="19.1463" cy="18.24" r="18.24" fill="url(#paint0_linear_3668_4401)"/>
<defs>
<linearGradient id="paint0_linear_3668_4401" x1="19.1463" y1="0" x2="19.1463" y2="36.48" gradientUnits="userSpaceOnUse">
<stop offset="0.166667" stop-color="#F20574"/>
<stop offset="0.71875" stop-color="#F5786B"/>
</linearGradient>
</defs>
</svg>
