<svg width="195" height="45" viewBox="0 0 195 45" fill="none" xmlns="http://www.w3.org/2000/svg">
<path fill-rule="evenodd" clip-rule="evenodd" d="M162.624 28.4408C161.218 29.9487 159.284 30.7026 156.825 30.7026H153.961V14.0511H156.825C159.284 14.0511 161.218 14.8038 162.624 16.3093C163.603 17.3796 164.258 18.7054 164.514 20.1331H171.126C170.74 17.3089 169.354 14.7169 167.22 12.8282C164.507 10.3776 161.042 9.1523 156.825 9.1523H147.522V35.5942H156.825C161.042 35.5942 164.507 34.3641 167.22 31.9039C169.431 29.8982 170.74 26.8716 171.148 23.9064H164.551C164.258 25.4972 163.624 27.373 162.624 28.4408ZM134.913 35.5978H141.351V9.15591H134.913V35.5978ZM195 13.9789V9.08376H176.302V20.1367H182.538V23.91H176.302V35.5978H195V30.7026H182.737V24.5701H191.721V20.2052H182.74V13.9789H195ZM66.5401 8.78075C62.7336 8.78075 59.5199 10.0553 56.8989 12.6045C54.2779 15.1537 52.9661 18.3871 52.9637 22.3047C52.9637 26.2175 54.2755 29.4557 56.8989 32.0193C59.4917 34.4856 62.933 35.861 66.5113 35.861C70.0895 35.861 73.5309 34.4856 76.1237 32.0193C78.7351 29.4581 80.0408 26.2199 80.0408 22.3047C80.0408 18.3895 78.7423 15.1573 76.1453 12.6081C73.5459 10.0565 70.3442 8.78075 66.5401 8.78075ZM71.5898 27.8384C70.3226 29.2284 68.6273 29.9234 66.5041 29.9234C64.3808 29.9234 62.6856 29.232 61.4183 27.8492C60.1487 26.4712 59.5151 24.6266 59.5175 22.3155C59.5199 20.0044 60.1535 18.1587 61.4183 16.7782C62.6831 15.3954 64.3784 14.704 66.5041 14.704C68.6297 14.704 70.3238 15.3954 71.5862 16.7782C72.8558 18.1611 73.4894 20.0068 73.487 22.3155C73.4846 24.6242 72.851 26.4652 71.5862 27.8384H71.5898ZM95.3377 9.15591H84.9029V35.5978H91.3412V25.3168H95.334C96.9615 25.3563 98.5814 25.0833 100.106 24.5124C101.281 24.0922 102.325 23.3722 103.136 22.4237C104.415 20.7644 105.056 19.0437 105.058 17.2616C105.067 16.1794 104.843 15.108 104.402 14.1201C103.96 13.1322 103.31 12.2511 102.497 11.5368C100.783 9.95193 98.3951 9.15831 95.334 9.15591H95.3377ZM97.6533 19.5523C97.3476 19.8482 96.9842 20.0778 96.5858 20.2268C96.1873 20.3757 95.7624 20.4409 95.3377 20.4181H91.3412V14.0511H95.334C95.7588 14.0322 96.1828 14.1027 96.5786 14.258C96.9744 14.4134 97.3331 14.6501 97.6316 14.9529C97.9219 15.2632 98.1479 15.628 98.2964 16.0261C98.445 16.4242 98.5133 16.8478 98.4973 17.2724C98.5166 17.6899 98.4516 18.1071 98.3059 18.4988C98.1603 18.8905 97.9371 19.2489 97.6497 19.5523H97.6533ZM126.613 22.3047C125.818 21.7857 124.964 21.3619 124.07 21.0421C123.15 20.7056 122.214 20.4166 121.264 20.1764C120.323 19.9347 119.461 19.6858 118.703 19.4224C118.003 19.1973 117.365 18.8105 116.842 18.2933C116.598 18.0347 116.408 17.7296 116.284 17.3962C116.16 17.0628 116.105 16.7079 116.121 16.3526C116.099 16.0061 116.157 15.6593 116.291 15.339C116.425 15.0188 116.631 14.7336 116.892 14.5056C117.455 14.0645 118.155 13.8382 118.869 13.8671C119.234 13.8539 119.598 13.9156 119.939 14.0484C120.28 14.1811 120.589 14.3822 120.849 14.6391C121.402 15.245 121.727 16.0241 121.769 16.8432H128.774C128.701 14.0535 127.785 12.0093 126.025 10.7107C124.265 9.41203 121.961 8.76511 119.114 8.76992C116.265 8.76992 113.924 9.51063 112.092 10.9921C111.202 11.6926 110.489 12.5929 110.012 13.62C109.534 14.6472 109.305 15.7724 109.343 16.9045C109.319 18.029 109.566 19.1428 110.065 20.1511C110.488 21.0069 111.131 21.7342 111.929 22.2578C112.725 22.7659 113.571 23.1891 114.454 23.5204C115.372 23.8693 116.309 24.1644 117.26 24.4042C118.202 24.6459 119.064 24.902 119.821 25.1761C120.518 25.4133 121.154 25.7999 121.686 26.3089C121.925 26.5508 122.113 26.8391 122.237 27.1561C122.361 27.4731 122.419 27.812 122.407 28.1522C122.417 28.5016 122.352 28.8489 122.216 29.1708C122.079 29.4926 121.875 29.7812 121.618 30.0172C121.009 30.5298 120.226 30.7882 119.432 30.7387C117.448 30.7387 116.366 29.6841 116.186 27.575H109.332C109.332 30.2204 110.243 32.2538 112.063 33.6751C113.883 35.0964 116.281 35.8118 119.255 35.8214C122.232 35.8214 124.629 35.0242 126.447 33.4298C128.265 31.8353 129.175 29.921 129.178 27.6869C129.206 26.5457 128.959 25.4146 128.456 24.3897C128.029 23.5483 127.393 22.8304 126.609 22.3047H126.613Z" fill="white"/>
<path fill-rule="evenodd" clip-rule="evenodd" d="M9.98395 11.5801L4.10469 7.31978C3.21346 8.7996 2.45544 10.3557 1.83956 11.9697L8.72874 14.199C9.0878 13.2988 9.50715 12.4238 9.98395 11.5801ZM15.636 5.05437L10.3302 0.0473633C8.69982 1.41628 7.22313 2.95847 5.92618 4.64673L11.7874 8.89259C12.9059 7.4583 14.1987 6.16897 15.636 5.05437ZM7.74767 17.2977L0.86209 15.0684C0.433673 16.7358 0.153644 18.4379 0.0252856 20.1547H7.27877C7.37203 19.1931 7.52866 18.2387 7.74767 17.2977ZM8.42577 29.6204L1.5474 31.8498C2.13057 33.5184 2.86713 35.1293 3.74761 36.662L9.6449 32.3909C9.17424 31.4908 8.76688 30.5591 8.42577 29.6024V29.6204ZM11.3546 35.1469L5.50778 39.3783C6.86539 41.2414 8.4394 42.9367 10.1968 44.4286L15.4917 39.4288C13.9243 38.1894 12.5326 36.7429 11.3546 35.1288V35.1469ZM7.22827 23.928H0.0144653C0.0968989 25.5475 0.315283 27.1573 0.667314 28.7402L7.58896 26.5001C7.4204 25.6441 7.29998 24.7794 7.22827 23.91V23.928Z" fill="#BEFE00"/>
<path fill-rule="evenodd" clip-rule="evenodd" d="M28.9418 8.2793C25.5988 8.28065 22.3664 9.47659 19.8274 11.6515C17.2884 13.8263 15.61 16.8369 15.0949 20.1403H22.1969C22.7148 18.5064 23.8074 17.1158 25.2721 16.226C26.7369 15.3362 28.4745 15.0077 30.163 15.3012C31.8514 15.5948 33.3762 16.4906 34.4548 17.8226C35.5333 19.1546 36.0925 20.8325 36.0286 22.5453C35.9648 24.2581 35.2822 25.8897 34.1075 27.1377C32.9328 28.3857 31.3455 29.1655 29.6399 29.3325C27.9343 29.4995 26.2259 29.0425 24.8315 28.0461C23.437 27.0497 22.451 25.5815 22.0562 23.9136H15.0444C15.3588 26.5957 16.4419 29.1298 18.1632 31.2104C19.8846 33.291 22.1708 34.8295 24.7463 35.6404C27.3219 36.4514 30.077 36.5003 32.6797 35.7812C35.2824 35.0621 37.6216 33.6056 39.4157 31.5874C41.2097 29.5691 42.382 27.0751 42.7913 24.4058C43.2006 21.7365 42.8295 19.0057 41.7226 16.5425C40.6157 14.0793 38.8203 11.9888 36.5527 10.5227C34.2851 9.05656 31.642 8.27749 28.9418 8.2793Z" fill="#BEFE00"/>
</svg>
