<?xml version="1.0" encoding="iso-8859-1"?>
<!-- Generator: Adobe Illustrator 19.0.0, SVG Export Plug-In . SVG Version: 6.00 Build 0)  -->
<svg version="1.1" id="Layer_1" xmlns="http://www.w3.org/2000/svg" xmlns:xlink="http://www.w3.org/1999/xlink" x="0px" y="0px"
	 viewBox="0 0 417.21 417.21" style="enable-background:new 0 0 417.21 417.21;" xml:space="preserve">
<g>
	<circle style="fill:#61CCF2;" cx="337.26" cy="79.96" r="19.643"/>
	<path style="fill:#FFFFFF;" d="M323.37,66.07c7.67-7.67,20.11-7.67,27.78,0s7.67,20.11,0,27.78"/>
	<polygon style="fill:#F24125;" points="277.04,225.05 261.02,241.06 241.051,261.03 229.311,272.78 228.281,271.75 144.441,187.9 
		156.191,176.16 176.161,156.19 192.161,140.18 276.01,224.02 	"/>
	<path style="fill:#F24125;" d="M308.54,135.72c10.51,21.13,7.79,47.16-8.17,65.74l-1.1-0.7l-83.74-83.73
		c18.46-16,44.36-18.86,65.49-8.59l27.35,27.36L308.54,135.72z"/>
	<polygon style="fill:#FCBC1D;" points="412.21,359.44 359.43,412.21 331.62,384.4 332.33,383.69 383.68,332.33 384.391,331.62 	"/>
	<polygon style="fill:#FCBC1D;" points="384.391,331.62 383.68,332.33 332.33,383.69 331.62,384.4 303.09,355.87 303.8,355.16 
		355.16,303.81 355.87,303.1 	"/>
	<polygon style="fill:#FCBC1D;" points="355.87,303.1 355.16,303.81 303.8,355.16 303.09,355.87 274.57,327.35 275.28,326.63 
		326.63,275.28 327.34,274.57 	"/>
	<polygon style="fill:#FCBC1D;" points="327.34,274.57 326.63,275.28 275.28,326.63 274.57,327.35 246.751,299.53 263.15,283.12 
		283.12,263.15 299.52,246.75 	"/>
	<polygon style="fill:#FCBC1D;" points="154.071,134.1 134.101,154.07 117.691,170.47 89.881,142.66 90.59,141.94 141.941,90.59 
		142.661,89.88 170.471,117.69 	"/>
	<polygon style="fill:#FCBC1D;" points="142.661,89.88 141.941,90.59 90.59,141.94 89.881,142.66 61.351,114.13 62.061,113.41 
		113.411,62.06 114.131,61.35 	"/>
	<polygon style="fill:#FCBC1D;" points="114.131,61.35 113.411,62.06 62.061,113.41 61.351,114.13 32.821,85.6 33.531,84.88 
		84.881,33.53 85.601,32.82 	"/>
	<polygon style="fill:#FCBC1D;" points="85.601,32.82 84.881,33.53 33.531,84.88 32.821,85.6 5.001,57.78 57.781,5 	"/>
	<g style="opacity:0.25;">
		<polygon points="359.43,412.21 331.62,384.4 332.33,383.69 383.68,332.33 384.391,331.62 		"/>
		<polygon points="332.33,383.69 331.62,384.4 303.09,355.87 303.8,355.16 355.16,303.81 355.87,303.1 		"/>
		<polygon points="303.8,355.16 303.09,355.87 274.57,327.35 275.28,326.63 326.63,275.28 327.34,274.57 		"/>
		<polygon points="275.28,326.63 274.57,327.35 246.751,299.53 263.15,283.12 283.12,263.15 299.52,246.75 		"/>
		<polygon points="117.691,170.47 89.881,142.66 90.59,141.94 141.941,90.59 142.661,89.88 		"/>
		<polygon points="90.59,141.94 89.881,142.66 61.351,114.13 62.061,113.41 113.411,62.06 114.131,61.35 		"/>
		<polygon points="62.061,113.41 61.351,114.13 32.821,85.6 33.531,84.88 84.881,33.53 85.601,32.82 		"/>
		<polygon points="33.531,84.88 32.821,85.6 5.001,57.78 57.781,5 		"/>
	</g>
	<polygon style="fill:#4A7984;" points="229.311,272.78 202.801,299.29 117.921,214.42 144.441,187.9 228.281,271.75 	"/>
	<path style="fill:#4A7984;" d="M299.27,200.76l1.1,0.7c-0.99,1.16-2.04,2.29-3.14,3.39l-20.19,20.2l-1.03-1.03l-83.85-83.84
		l20.2-20.2c1.03-1.03,2.09-2.01,3.17-2.95L299.27,200.76z"/>
	<path style="fill:#4A7984;" d="M377.71,39.51c23.44,23.43,23.44,61.43,0,84.87c-18.72,18.72-46.73,22.47-69.2,11.28
		c0.01,0.02,0.02,0.04,0.03,0.06l-0.17,0.08l-27.35-27.36c0.18,0.08,0.36,0.17,0.54,0.26c-11.19-22.46-7.45-50.47,11.28-69.19
		C316.27,16.07,354.27,16.07,377.71,39.51z M351.15,93.85c7.67-7.67,7.67-20.11,0-27.78s-20.11-7.67-27.78,0
		c-7.67,7.67-7.67,20.11,0,27.78S343.48,101.52,351.15,93.85z"/>
	<path style="fill:#333333;" d="M202.801,304.29c-1.279,0-2.559-0.488-3.535-1.464l-84.881-84.87
		c-0.938-0.938-1.465-2.209-1.465-3.536s0.526-2.598,1.465-3.536l94.44-94.44c1.063-1.062,2.214-2.134,3.423-3.186
		c16.828-14.585,39.637-19.368,60.549-13.319c-6.489-22.449-0.459-47.007,16.509-63.965c12.274-12.28,28.6-19.043,45.966-19.043
		s33.693,6.763,45.974,19.044c12.281,12.275,19.045,28.6,19.045,45.967c0,17.366-6.764,33.693-19.045,45.974
		c-12.491,12.492-29.108,19.054-45.965,19.056c-6.029,0-12.084-0.838-17.998-2.546c6.025,20.797,1.333,43.468-13.119,60.292
		c-1.04,1.219-2.187,2.457-3.396,3.667l-94.431,94.441C205.361,303.802,204.081,304.29,202.801,304.29z M124.992,214.42
		l77.81,77.799l90.894-90.904c1.025-1.026,1.992-2.069,2.873-3.102c14.42-16.788,17.358-40.439,7.496-60.267
		c-0.006-0.012-0.012-0.023-0.018-0.035l-0.029-0.06c-0.938-1.925-0.548-4.234,0.974-5.742c1.521-1.508,3.835-1.88,5.749-0.926
		c21.202,10.559,46.693,6.402,63.436-10.34c10.393-10.392,16.115-24.208,16.115-38.903c0-14.694-5.723-28.508-16.115-38.895
		c-10.393-10.393-24.208-16.116-38.903-16.116c-14.694,0-28.508,5.723-38.896,16.115c-16.747,16.739-20.902,42.227-10.34,63.425
		c0.959,1.925,0.579,4.248-0.942,5.768c-1.522,1.521-3.846,1.896-5.77,0.934c-0.113-0.057-0.226-0.115-0.339-0.166
		c-0.051-0.022-0.101-0.046-0.15-0.07c-19.83-9.638-43.393-6.548-60.03,7.872c-1.028,0.895-2.01,1.809-2.909,2.708L124.992,214.42z"
		/>
	<path style="fill:#FFFFFF;" d="M299.165,175.223c-0.287,0-0.579-0.025-0.872-0.077c-2.72-0.478-4.536-3.071-4.059-5.791
		c1.473-8.37,0.264-16.845-3.496-24.516l-0.788-1.467c-3.919-7.29-9.909-13.093-17.322-16.779l-0.313-0.149
		c-2.493-1.188-3.552-4.171-2.365-6.664c1.188-2.492,4.173-3.552,6.664-2.364l0.391,0.186c9.354,4.649,16.85,11.911,21.756,21.037
		l0.911,1.704c4.734,9.609,6.26,20.24,4.413,30.744C303.658,173.515,301.547,175.223,299.165,175.223z M242.376,124.153
		c-2.175,0-4.177-1.431-4.805-3.627c-0.759-2.655,0.778-5.422,3.434-6.182c4.477-1.279,9.109-1.928,13.771-1.928
		c2.762,0,5,2.239,5,5s-2.238,5-5,5c-3.731,0-7.439,0.519-11.022,1.543C243.294,124.09,242.831,124.153,242.376,124.153z
		 M379.738,94.071c-0.26,0-0.523-0.021-0.788-0.063c-2.728-0.432-4.588-2.994-4.156-5.721c0.329-2.077,0.496-4.212,0.496-6.345
		c0-10.687-4.163-20.733-11.722-28.289c-2.889-2.889-6.16-5.303-9.724-7.176c-2.445-1.284-3.386-4.307-2.101-6.752
		c1.283-2.445,4.309-3.385,6.751-2.101c4.457,2.342,8.543,5.355,12.145,8.957c9.447,9.444,14.65,22.002,14.65,35.36
		c0,2.656-0.208,5.317-0.619,7.91C384.28,92.314,382.155,94.071,379.738,94.071z M341.24,42.319c-0.217,0-0.437-0.014-0.657-0.043
		c-1.747-0.23-3.533-0.346-5.312-0.346c-2.762,0-5-2.239-5-5s2.238-5,5-5c2.212,0,4.438,0.145,6.614,0.431
		c2.738,0.36,4.666,2.872,4.306,5.609C345.86,40.487,343.712,42.319,341.24,42.319z"/>
	<path style="fill:#333333;" d="M308.37,140.8c-1.28,0-2.56-0.488-3.536-1.465l-30.188-30.199c-1.953-1.953-1.953-5.119,0-7.071
		c1.951-1.952,5.119-1.952,7.07,0l30.19,30.201c1.952,1.953,1.952,5.119-0.001,7.071C310.929,140.312,309.649,140.8,308.37,140.8z"
		/>
	<path style="fill:#333333;" d="M228.281,276.75c-1.279,0-2.56-0.488-3.536-1.465l-83.84-83.85
		c-1.952-1.953-1.952-5.119,0.001-7.071s5.118-1.953,7.071,0l83.84,83.85c1.952,1.953,1.952,5.118-0.001,7.071
		C230.84,276.262,229.561,276.75,228.281,276.75z"/>
	<path style="fill:#333333;" d="M299.271,205.76c-1.279,0-2.559-0.488-3.535-1.464l-83.851-83.84c-1.953-1.953-1.953-5.119,0-7.071
		c1.951-1.952,5.119-1.952,7.07,0l83.851,83.84c1.953,1.953,1.953,5.118,0.001,7.071C301.83,205.272,300.55,205.76,299.271,205.76z"
		/>
	<path style="fill:#333333;" d="M276.011,229.02c-1.279,0-2.559-0.488-3.535-1.464l-83.851-83.84
		c-1.953-1.952-1.953-5.118-0.001-7.071c1.953-1.953,5.118-1.954,7.071,0l83.851,83.84c1.953,1.952,1.953,5.118,0.001,7.071
		C278.57,228.532,277.29,229.02,276.011,229.02z"/>
	<path style="fill:#333333;" d="M337.26,104.592c-6.311,0-12.621-2.402-17.425-7.207c-9.608-9.608-9.608-25.243-0.001-34.852
		c9.608-9.607,25.243-9.609,34.852,0c9.608,9.609,9.608,25.243,0,34.852C349.882,102.19,343.572,104.592,337.26,104.592z
		 M337.261,65.323c-3.751,0-7.5,1.427-10.355,4.282c-5.709,5.709-5.709,15,0,20.709c5.712,5.711,15,5.709,20.71,0
		c5.709-5.709,5.709-15-0.001-20.709C344.761,66.751,341.01,65.323,337.261,65.323z"/>
	<path style="fill:#333333;" d="M154.701,179.67c-1.279,0-2.56-0.488-3.535-1.464l-20.729-20.728
		c-1.959-1.946-1.97-5.112-0.024-7.071c1.947-1.96,5.112-1.969,7.071-0.025l0.141,0.14l20.611,20.612
		c1.953,1.953,1.953,5.119,0,7.071C157.26,179.182,155.98,179.67,154.701,179.67z"/>
	<path style="fill:#333333;" d="M174.671,159.7c-1.279,0-2.56-0.488-3.535-1.464l-20.746-20.747
		c-1.949-1.956-1.943-5.122,0.013-7.071s5.121-1.944,7.071,0.012l0.14,0.14l20.593,20.594c1.953,1.953,1.953,5.119,0,7.071
		C177.23,159.212,175.95,159.7,174.671,159.7z"/>
	<path style="fill:#333333;" d="M262.421,287.39c-1.279,0-2.559-0.488-3.535-1.464l-20.159-20.15
		c-1.952-1.952-1.953-5.118-0.001-7.071c1.953-1.953,5.118-1.954,7.071-0.001l20.159,20.15c1.952,1.952,1.953,5.118,0.001,7.071
		C264.979,286.902,263.701,287.39,262.421,287.39z"/>
	<path style="fill:#333333;" d="M282.391,267.42c-1.279,0-2.559-0.488-3.534-1.463l-20.16-20.15
		c-1.953-1.952-1.954-5.118-0.002-7.071c1.951-1.952,5.119-1.954,7.07-0.002l20.16,20.15c1.953,1.952,1.954,5.118,0.002,7.071
		C284.951,266.931,283.671,267.42,282.391,267.42z"/>
	<path style="fill:#333333;" d="M117.691,175.47c-1.279,0-2.56-0.488-3.535-1.464L1.466,61.316c-0.939-0.938-1.465-2.21-1.465-3.536
		s0.526-2.598,1.465-3.536l52.78-52.78c1.951-1.952,5.119-1.952,7.07,0l112.69,112.69c1.952,1.952,1.953,5.117,0.001,7.07
		l-36.371,36.381c0,0,0,0-0.001,0.001l-16.41,16.4C120.25,174.982,118.971,175.47,117.691,175.47z M12.072,57.78l105.62,105.62
		l45.709-45.709L57.781,12.071L12.072,57.78z M134.102,154.07h0.01H134.102z"/>
	<path style="fill:#333333;" d="M359.431,417.21c-1.279,0-2.56-0.488-3.535-1.464l-112.681-112.68
		c-1.952-1.952-1.953-5.117-0.001-7.07l52.771-52.781c1.951-1.952,5.119-1.952,7.07,0l84.87,84.87l0,0l27.819,27.82
		c0.938,0.938,1.465,2.21,1.465,3.536c0,1.326-0.527,2.598-1.465,3.536l-52.779,52.77C361.99,416.722,360.71,417.21,359.431,417.21z
		 M253.821,299.529l105.61,105.61l45.708-45.7L299.521,253.821L253.821,299.529z"/>
	<path style="fill:#333333;" d="M33.531,89.88c-1.279,0-2.56-0.488-3.535-1.464c-1.953-1.953-1.953-5.119,0-7.071l51.35-51.35
		c1.951-1.952,5.119-1.952,7.07,0c1.953,1.953,1.953,5.119,0,7.071l-51.35,51.35C36.091,89.391,34.811,89.88,33.531,89.88z"/>
	<path style="fill:#333333;" d="M62.062,118.41c-1.279,0-2.56-0.488-3.535-1.464c-1.953-1.953-1.953-5.119,0-7.071l51.35-51.35
		c1.951-1.952,5.119-1.952,7.07,0c1.953,1.953,1.953,5.119,0,7.071l-51.35,51.35C64.621,117.922,63.341,118.41,62.062,118.41z"/>
	<path style="fill:#333333;" d="M90.59,146.94c-1.279,0-2.56-0.488-3.535-1.464c-1.953-1.953-1.953-5.119,0-7.071l51.351-51.35
		c1.951-1.952,5.119-1.952,7.07,0c1.953,1.953,1.953,5.119,0,7.071l-51.351,51.35C93.15,146.452,91.87,146.94,90.59,146.94z"/>
	<path style="fill:#333333;" d="M275.28,331.63c-1.279,0-2.56-0.488-3.535-1.464c-1.953-1.953-1.953-5.119,0-7.071l51.35-51.35
		c1.951-1.952,5.119-1.952,7.07,0c1.953,1.953,1.953,5.119,0,7.071l-51.35,51.35C277.84,331.141,276.56,331.63,275.28,331.63z"/>
	<path style="fill:#333333;" d="M303.801,360.16c-1.279,0-2.56-0.488-3.536-1.465c-1.952-1.953-1.952-5.119,0.001-7.071
		l51.359-51.35c1.953-1.952,5.118-1.953,7.071,0c1.952,1.953,1.952,5.119-0.001,7.071l-51.359,51.35
		C306.359,359.672,305.08,360.16,303.801,360.16z"/>
	<path style="fill:#333333;" d="M332.33,388.69c-1.279,0-2.559-0.488-3.535-1.464c-1.953-1.952-1.953-5.118-0.001-7.071
		l51.351-51.36c1.953-1.953,5.118-1.954,7.071,0c1.953,1.952,1.953,5.118,0.001,7.071l-51.351,51.36
		C334.891,388.202,333.609,388.69,332.33,388.69z"/>
</g>
<g>
</g>
<g>
</g>
<g>
</g>
<g>
</g>
<g>
</g>
<g>
</g>
<g>
</g>
<g>
</g>
<g>
</g>
<g>
</g>
<g>
</g>
<g>
</g>
<g>
</g>
<g>
</g>
<g>
</g>
</svg>
