<?xml version="1.0" encoding="iso-8859-1"?>
<!-- Generator: Adobe Illustrator 19.0.0, SVG Export Plug-In . SVG Version: 6.00 Build 0)  -->
<svg version="1.1" id="Layer_1" xmlns="http://www.w3.org/2000/svg" xmlns:xlink="http://www.w3.org/1999/xlink" x="0px" y="0px"
	 viewBox="0 0 376.038 376.038" style="enable-background:new 0 0 376.038 376.038;" xml:space="preserve">
<g>
	<circle style="fill:#4A7984;" cx="188.031" cy="187.982" r="155.382"/>
	<path style="fill:#4A7984;" d="M308.74,90.148c0,0-9.806-49.291-80.385-77.594s-132.509,24-132.509,24s30.93-17.303,73.93,5.697
		S308.74,90.148,308.74,90.148z"/>
	<path style="fill:#4A7984;" d="M90.197,67.273c0,0-49.291,9.806-77.594,80.385s24,132.509,24,132.509s-17.303-30.93,5.697-73.93
		S90.197,67.273,90.197,67.273z"/>
	<path style="fill:#4A7984;" d="M67.322,285.815c0,0,9.806,49.291,80.385,77.594s132.509-24,132.509-24s-30.93,17.303-73.93-5.697
		S67.322,285.815,67.322,285.815z"/>
	<path style="fill:#4A7984;" d="M285.864,308.691c0,0,49.291-9.806,77.594-80.385c28.303-70.579-24-132.509-24-132.509
		s17.303,30.93-5.697,73.93S285.864,308.691,285.864,308.691z"/>
	<circle style="fill:#FCBC1D;" cx="188.031" cy="187.982" r="136.25"/>
	<circle style="fill:#FCD275;" cx="188.031" cy="187.982" r="79.731"/>
	<g>
		<path style="fill:#FCBC1D;" d="M324.641,61.745c-2.762,0-5-2.239-5-5V35.312c0-2.761,2.238-5,5-5s5,2.239,5,5v21.433
			C329.641,59.506,327.403,61.745,324.641,61.745z"/>
		<path style="fill:#FCBC1D;" d="M335.358,51.028h-21.433c-2.762,0-5-2.239-5-5s2.238-5,5-5h21.433c2.762,0,5,2.239,5,5
			S338.12,51.028,335.358,51.028z"/>
	</g>
	<g>
		<path style="fill:#FCBC1D;" d="M31.516,365.116c-2.761,0-5-2.239-5-5v-21.434c0-2.761,2.239-5,5-5s5,2.239,5,5v21.434
			C36.516,362.878,34.277,365.116,31.516,365.116z"/>
		<path style="fill:#FCBC1D;" d="M42.233,354.399H20.799c-2.761,0-5-2.239-5-5s2.239-5,5-5h21.434c2.761,0,5,2.239,5,5
			S44.994,354.399,42.233,354.399z"/>
	</g>
	<g>
		<path style="fill:#333333;" d="M207.35,167.015c-0.979,0-1.967-0.287-2.833-0.884c-24.474-16.873-56.29-19.309-83.034-6.354
			c-2.484,1.203-5.475,0.166-6.68-2.32c-1.204-2.485-0.165-5.476,2.32-6.68c29.976-14.52,65.639-11.791,93.069,7.121
			c2.273,1.567,2.846,4.681,1.278,6.955C210.502,166.26,208.939,167.015,207.35,167.015z"/>
		<path style="fill:#333333;" d="M117.988,353.906c-0.933,0-1.876-0.261-2.717-0.806c-12.052-7.821-22.854-17.448-32.105-28.613
			c-19.559-23.605-28.755-53.415-25.894-83.937c2.862-30.522,17.438-58.103,41.044-77.662c2.126-1.762,5.279-1.466,7.04,0.66
			c1.762,2.126,1.466,5.278-0.66,7.04c-21.549,17.855-34.855,43.033-37.467,70.896s5.782,55.075,23.637,76.624
			c8.604,10.384,18.647,19.335,29.848,26.604c2.316,1.503,2.976,4.6,1.473,6.916C121.229,353.103,119.625,353.906,117.988,353.906z"
			/>
		<path style="fill:#333333;" d="M192.791,376.038c-18.102,0-36.271-3.473-53.573-10.472c-2.56-1.036-3.796-3.951-2.76-6.51
			c1.036-2.561,3.95-3.797,6.51-2.76c36.788,14.883,77.814,12.624,112.557-6.196c2.431-1.316,5.464-0.412,6.778,2.015
			c1.315,2.428,0.413,5.462-2.015,6.778C239.257,370.285,216.082,376.038,192.791,376.038z"/>
		<path style="fill:#333333;" d="M269.332,352.569c-1.605,0-3.183-0.771-4.148-2.202c-1.546-2.289-0.943-5.396,1.345-6.942
			c3.604-2.433,7.135-5.08,10.497-7.866c2.125-1.761,5.279-1.467,7.04,0.66c1.763,2.126,1.467,5.278-0.659,7.041
			c-3.613,2.994-7.408,5.838-11.28,8.453C271.267,352.292,270.295,352.569,269.332,352.569z"/>
		<path style="fill:#333333;" d="M218.576,234.425c-18.193,0-36.184-5.328-51.531-15.563c-2.297-1.532-2.917-4.637-1.385-6.934
			s4.637-2.917,6.934-1.385c19.366,12.916,43.46,17.075,66.109,11.404c2.672-0.67,5.394,0.957,6.064,3.636s-0.958,5.394-3.637,6.064
			C233.695,233.51,226.117,234.425,218.576,234.425z"/>
		<path style="fill:#333333;" d="M258.577,224.782c-1.814,0-3.565-0.991-4.452-2.717c-1.261-2.457-0.292-5.47,2.164-6.731
			c5.336-2.74,10.409-6.09,15.077-9.957c2.127-1.763,5.278-1.465,7.04,0.66c1.762,2.126,1.466,5.279-0.661,7.04
			c-5.226,4.33-10.907,8.082-16.888,11.152C260.126,224.604,259.345,224.782,258.577,224.782z"/>
		<path style="fill:#333333;" d="M290.557,197.902c-1.09,0-2.188-0.354-3.107-1.085c-2.162-1.717-2.522-4.863-0.805-7.025
			c14.716-18.527,22.759-41.841,22.646-65.648c-0.113-24.13-8.671-47.672-24.097-66.289c-11.39-13.746-25.128-24.848-40.831-32.998
			c-2.451-1.272-3.407-4.29-2.135-6.741c1.271-2.452,4.294-3.406,6.74-2.135c16.898,8.77,31.678,20.712,43.926,35.494
			c16.897,20.394,26.272,46.185,26.396,72.622c0.123,26.074-8.69,51.614-24.816,71.915
			C293.488,197.255,292.03,197.902,290.557,197.902z"/>
		<path style="fill:#333333;" d="M95.849,41.554c-1.438,0-2.864-0.617-3.853-1.81c-1.762-2.126-1.466-5.278,0.66-7.04
			c19.151-15.869,42.159-26.469,66.533-30.655c23.638-4.06,48.121-2.062,70.8,5.779c2.609,0.902,3.994,3.75,3.092,6.359
			c-0.901,2.61-3.748,3.994-6.359,3.092c-21.09-7.292-43.856-9.149-65.84-5.375c-22.653,3.891-44.039,13.745-61.846,28.5
			C98.103,41.177,96.972,41.554,95.849,41.554z"/>
		<path style="fill:#333333;" d="M219.597,202.983c-0.776,0-1.563-0.181-2.299-0.563c-2.451-1.272-3.407-4.29-2.135-6.741
			c15.368-29.612,11.545-65.345-9.738-91.032c-21.14-25.513-52.282-39.299-85.418-37.823c-2.737,0.117-5.094-2.014-5.217-4.773
			c-0.123-2.758,2.014-5.094,4.773-5.217c36.302-1.616,70.406,13.486,93.563,41.434c23.853,28.788,28.137,68.832,10.913,102.019
			C223.149,202,221.404,202.983,219.597,202.983z"/>
		<path style="fill:#333333;" d="M94.715,70.883c-2.18,0-4.184-1.436-4.808-3.637c-0.754-2.657,0.789-5.421,3.445-6.175
			c2.71-0.769,5.479-1.445,8.232-2.009c2.701-0.555,5.347,1.188,5.902,3.894c0.555,2.705-1.188,5.348-3.894,5.902
			c-2.511,0.515-5.038,1.132-7.511,1.833C95.626,70.821,95.166,70.883,94.715,70.883z"/>
		<path style="fill:#333333;" d="M11.441,239.147c-2.121,0-4.089-1.361-4.765-3.49c-8.459-26.681-8.866-55.064-1.177-82.082
			c7.875-27.67,23.79-52.034,46.026-70.458c7.638-6.329,16.032-11.637,24.949-15.777c2.504-1.164,5.478-0.075,6.641,2.43
			s0.075,5.478-2.43,6.641c-8.138,3.778-15.802,8.626-22.78,14.407c-20.673,17.129-35.468,39.777-42.788,65.495
			c-7.15,25.125-6.773,51.517,1.091,76.322c0.834,2.632-0.623,5.443-3.255,6.277C12.451,239.071,11.942,239.147,11.441,239.147z"/>
		<path style="fill:#333333;" d="M36.606,285.167c-1.438,0-2.864-0.617-3.853-1.81c-8.268-9.979-15.119-20.98-20.363-32.699
			c-1.128-2.521,0.001-5.479,2.521-6.606c2.524-1.128,5.479,0.002,6.606,2.521c4.875,10.893,11.246,21.123,18.936,30.404
			c1.762,2.126,1.466,5.278-0.66,7.04C38.86,284.79,37.729,285.167,36.606,285.167z"/>
		<path style="fill:#333333;" d="M152.974,256.408c-1.977,0-3.849-1.181-4.636-3.126c-11.728-28.981-8.152-61.654,9.565-87.398
			c1.565-2.275,4.678-2.85,6.954-1.285c2.275,1.566,2.85,4.679,1.285,6.954c-15.807,22.969-18.997,52.12-8.534,77.978
			c1.036,2.56-0.199,5.475-2.759,6.51C154.234,256.29,153.598,256.408,152.974,256.408z"/>
		<path style="fill:#333333;" d="M251.409,319.191c-33.024,0.002-65.806-14.138-88.473-41.495c-1.762-2.126-1.466-5.278,0.66-7.04
			c2.126-1.762,5.279-1.466,7.04,0.66c36.856,44.483,103.034,50.688,147.52,13.83c31.601-26.183,49.024-64.756,47.803-105.83
			c-0.082-2.76,2.089-5.064,4.85-5.146c2.743-0.09,5.063,2.088,5.146,4.849c1.313,44.175-17.428,85.664-51.418,113.827
			C303.164,310.555,277.21,319.19,251.409,319.191z"/>
		<path style="fill:#333333;" d="M368.512,162.146c-2.347,0-4.44-1.661-4.903-4.051c-4.182-21.608-13.864-42.048-28-59.109
			c-1.762-2.126-1.466-5.278,0.66-7.04c2.129-1.762,5.278-1.465,7.041,0.66c15.202,18.349,25.617,40.338,30.117,63.588
			c0.524,2.711-1.248,5.334-3.959,5.859C369.146,162.116,368.827,162.146,368.512,162.146z"/>
	</g>
	<circle style="fill:#F24125;" cx="188.031" cy="187.982" r="17.003"/>
	<path style="fill:#333333;" d="M188.031,209.985c-12.132,0-22.003-9.871-22.003-22.003s9.871-22.003,22.003-22.003
		s22.003,9.871,22.003,22.003C210.034,200.114,200.163,209.985,188.031,209.985z M188.031,175.979
		c-6.619,0-12.003,5.384-12.003,12.003s5.384,12.003,12.003,12.003s12.003-5.385,12.003-12.003S194.649,175.979,188.031,175.979z"/>
	<g>
		<path style="fill:#FFFFFF;" d="M268.774,263.251c-0.33,0-0.65-0.03-0.98-0.1c-0.32-0.06-0.63-0.16-0.93-0.28
			c-0.3-0.13-0.59-0.28-0.86-0.46c-0.28-0.18-0.53-0.39-0.77-0.62c-0.23-0.23-0.431-0.49-0.62-0.76c-0.181-0.28-0.33-0.57-0.46-0.87
			c-0.12-0.3-0.221-0.61-0.28-0.93c-0.07-0.32-0.1-0.65-0.1-0.98s0.029-0.65,0.1-0.98c0.06-0.32,0.16-0.63,0.28-0.93
			c0.13-0.3,0.279-0.59,0.46-0.87c0.189-0.27,0.39-0.53,0.62-0.76c0.239-0.23,0.489-0.44,0.77-0.62c0.271-0.18,0.561-0.33,0.86-0.46
			c0.3-0.12,0.609-0.22,0.93-0.28c0.65-0.13,1.31-0.13,1.96,0c0.32,0.06,0.63,0.16,0.93,0.28c0.301,0.13,0.601,0.28,0.87,0.46
			c0.271,0.18,0.53,0.39,0.761,0.62c0.229,0.23,0.439,0.49,0.619,0.76c0.181,0.28,0.33,0.57,0.46,0.87
			c0.12,0.3,0.221,0.61,0.28,0.93c0.07,0.33,0.101,0.65,0.101,0.98s-0.03,0.66-0.101,0.98c-0.06,0.32-0.16,0.63-0.28,0.93
			c-0.13,0.3-0.279,0.59-0.46,0.87c-0.18,0.27-0.39,0.53-0.619,0.76c-0.23,0.23-0.49,0.44-0.761,0.62
			c-0.27,0.18-0.569,0.33-0.87,0.46c-0.3,0.12-0.609,0.22-0.93,0.28C269.433,263.22,269.103,263.251,268.774,263.251z"/>
		<path style="fill:#FFFFFF;" d="M341.774,207.251c-1.311,0-2.601-0.53-3.53-1.46c-0.94-0.94-1.47-2.22-1.47-3.54
			c0-0.33,0.029-0.65,0.1-0.98c0.06-0.32,0.16-0.63,0.28-0.93c0.13-0.3,0.279-0.59,0.46-0.87c0.189-0.27,0.399-0.53,0.63-0.76
			c1.16-1.16,2.89-1.69,4.51-1.36c0.32,0.06,0.63,0.16,0.93,0.28c0.301,0.13,0.591,0.28,0.87,0.46c0.271,0.18,0.53,0.39,0.761,0.62
			c0.229,0.23,0.439,0.49,0.619,0.76c0.181,0.28,0.33,0.57,0.46,0.87c0.12,0.3,0.221,0.61,0.28,0.93
			c0.07,0.33,0.101,0.65,0.101,0.98c0,1.31-0.53,2.6-1.46,3.54c-0.23,0.23-0.49,0.44-0.761,0.62c-0.279,0.18-0.569,0.33-0.87,0.46
			c-0.3,0.12-0.609,0.22-0.93,0.28C342.433,207.22,342.103,207.251,341.774,207.251z"/>
		<path style="fill:#FFFFFF;" d="M75.774,97.251c-1.31,0-2.6-0.53-3.53-1.46c-0.23-0.23-0.44-0.49-0.63-0.76
			c-0.18-0.28-0.33-0.57-0.45-0.87c-0.13-0.3-0.23-0.61-0.29-0.93c-0.06-0.33-0.1-0.65-0.1-0.98s0.04-0.65,0.1-0.98
			c0.06-0.32,0.16-0.63,0.29-0.93c0.12-0.3,0.27-0.59,0.45-0.87c0.19-0.27,0.4-0.53,0.63-0.76s0.48-0.44,0.76-0.62
			c0.27-0.18,0.56-0.33,0.86-0.46c0.3-0.12,0.62-0.22,0.94-0.28c0.64-0.13,1.3-0.13,1.95,0c0.32,0.06,0.63,0.16,0.93,0.28
			c0.31,0.13,0.6,0.28,0.87,0.46s0.53,0.39,0.76,0.62c0.93,0.93,1.46,2.22,1.46,3.54s-0.53,2.6-1.46,3.54
			C78.384,96.72,77.094,97.251,75.774,97.251z"/>
		<path style="fill:#FFFFFF;" d="M248.774,189.251c-0.33,0-0.65-0.03-0.98-0.1c-0.32-0.06-0.63-0.16-0.93-0.28
			c-0.3-0.13-0.59-0.28-0.86-0.46c-0.28-0.18-0.53-0.39-0.77-0.62c-0.931-0.93-1.46-2.22-1.46-3.54c0-1.32,0.529-2.61,1.46-3.54
			c0.239-0.23,0.489-0.44,0.77-0.62c0.271-0.18,0.561-0.33,0.86-0.46c0.3-0.12,0.609-0.22,0.93-0.28c0.65-0.13,1.31-0.13,1.96,0
			c0.32,0.06,0.63,0.16,0.93,0.28c0.311,0.13,0.601,0.28,0.87,0.46c0.271,0.18,0.53,0.39,0.761,0.62c0.93,0.93,1.46,2.22,1.46,3.54
			c0,1.32-0.53,2.61-1.46,3.54c-0.23,0.23-0.49,0.44-0.761,0.62c-0.27,0.18-0.56,0.33-0.87,0.46c-0.3,0.12-0.609,0.22-0.93,0.28
			C249.433,189.22,249.103,189.251,248.774,189.251z"/>
		<path style="fill:#FFFFFF;" d="M241.774,156.251c-0.33,0-0.65-0.03-0.98-0.1c-0.32-0.06-0.63-0.16-0.93-0.28
			c-0.3-0.13-0.59-0.28-0.86-0.46c-0.28-0.18-0.53-0.39-0.76-0.62s-0.44-0.49-0.63-0.76c-0.181-0.28-0.33-0.57-0.46-0.87
			c-0.12-0.3-0.221-0.61-0.28-0.93c-0.07-0.33-0.1-0.65-0.1-0.98s0.029-0.65,0.1-0.98c0.06-0.32,0.16-0.63,0.28-0.93
			c0.13-0.3,0.279-0.59,0.46-0.87c0.189-0.27,0.399-0.52,0.63-0.76c0.229-0.23,0.479-0.43,0.76-0.62
			c0.271-0.18,0.561-0.33,0.86-0.46c0.3-0.12,0.609-0.22,0.93-0.28c0.65-0.13,1.31-0.13,1.96,0c0.32,0.06,0.63,0.16,0.93,0.28
			c0.311,0.13,0.601,0.28,0.87,0.46c0.271,0.19,0.53,0.39,0.761,0.62c0.93,0.94,1.46,2.22,1.46,3.54c0,1.32-0.53,2.6-1.46,3.54
			c-0.23,0.23-0.49,0.44-0.761,0.62c-0.27,0.18-0.56,0.33-0.87,0.46c-0.3,0.12-0.609,0.22-0.93,0.28
			C242.433,156.22,242.103,156.251,241.774,156.251z"/>
		<path style="fill:#FFFFFF;" d="M205.774,145.251c-0.32,0-0.65-0.03-0.98-0.1c-0.32-0.06-0.63-0.16-0.93-0.28
			c-0.3-0.13-0.59-0.28-0.87-0.46c-0.271-0.18-0.521-0.39-0.76-0.62c-0.931-0.93-1.46-2.22-1.46-3.54c0-1.32,0.529-2.61,1.46-3.54
			c0.239-0.23,0.489-0.43,0.76-0.62c0.28-0.18,0.57-0.33,0.87-0.46c0.3-0.12,0.609-0.22,0.93-0.28c1.63-0.33,3.36,0.2,4.521,1.36
			c0.229,0.23,0.439,0.49,0.619,0.76c0.181,0.28,0.33,0.57,0.46,0.87c0.12,0.3,0.221,0.61,0.28,0.93
			c0.07,0.33,0.101,0.65,0.101,0.98c0,1.32-0.53,2.61-1.46,3.54C208.384,144.72,207.094,145.251,205.774,145.251z"/>
		<path style="fill:#FFFFFF;" d="M134.774,210.251c-1.31,0-2.6-0.53-3.53-1.46c-0.23-0.23-0.44-0.49-0.63-0.76
			c-0.18-0.28-0.33-0.57-0.45-0.87c-0.13-0.3-0.23-0.61-0.29-0.93c-0.07-0.33-0.1-0.65-0.1-0.98c0-1.32,0.54-2.61,1.47-3.54
			c0.23-0.23,0.48-0.44,0.76-0.62c0.27-0.18,0.56-0.33,0.86-0.46c0.3-0.12,0.62-0.22,0.93-0.28c0.65-0.13,1.31-0.13,1.96,0
			c0.32,0.06,0.63,0.16,0.93,0.28c0.31,0.13,0.6,0.28,0.87,0.46s0.53,0.39,0.76,0.62c0.93,0.93,1.46,2.22,1.46,3.54
			c0,0.33-0.03,0.65-0.1,0.98c-0.06,0.32-0.16,0.63-0.28,0.93c-0.13,0.3-0.28,0.59-0.46,0.87c-0.18,0.27-0.39,0.53-0.62,0.76
			C137.374,209.72,136.094,210.251,134.774,210.251z"/>
		<path style="fill:#FFFFFF;" d="M162.444,238.581c-0.33,0-0.66-0.03-0.98-0.09c-0.32-0.07-0.63-0.16-0.93-0.29
			c-0.31-0.12-0.6-0.28-0.87-0.46c-0.27-0.18-0.53-0.39-0.76-0.62s-0.44-0.49-0.62-0.76c-0.18-0.27-0.33-0.56-0.46-0.86
			c-0.12-0.31-0.22-0.62-0.28-0.94c-0.07-0.32-0.1-0.65-0.1-0.98c0-1.31,0.53-2.6,1.46-3.53c0.23-0.23,0.49-0.44,0.76-0.62
			c0.27-0.18,0.56-0.34,0.87-0.46c0.3-0.13,0.61-0.22,0.93-0.29c1.62-0.33,3.35,0.21,4.51,1.37c0.23,0.23,0.44,0.48,0.62,0.76
			c0.19,0.27,0.34,0.56,0.46,0.86c0.13,0.3,0.23,0.62,0.29,0.94c0.07,0.32,0.1,0.65,0.1,0.97c0,0.33-0.03,0.66-0.1,0.98
			c-0.06,0.32-0.16,0.63-0.29,0.94c-0.12,0.3-0.27,0.59-0.46,0.86c-0.18,0.27-0.39,0.53-0.62,0.76
			C165.044,238.05,163.754,238.581,162.444,238.581z"/>
		<path style="fill:#FFFFFF;" d="M124.774,176.251c-1.31,0-2.6-0.53-3.53-1.46c-0.23-0.23-0.44-0.49-0.63-0.76
			c-0.18-0.28-0.33-0.57-0.46-0.87c-0.12-0.3-0.22-0.61-0.28-0.93c-0.07-0.33-0.1-0.65-0.1-0.98s0.03-0.65,0.1-0.98
			c0.06-0.32,0.16-0.63,0.28-0.93c0.13-0.3,0.28-0.6,0.46-0.87c0.19-0.27,0.4-0.53,0.63-0.76c1.16-1.16,2.89-1.69,4.51-1.36
			c0.32,0.06,0.63,0.16,0.93,0.28c0.31,0.13,0.6,0.28,0.87,0.46s0.53,0.39,0.76,0.62c0.93,0.93,1.46,2.22,1.46,3.54
			c0,0.33-0.03,0.65-0.1,0.98c-0.06,0.32-0.16,0.63-0.28,0.93c-0.13,0.3-0.28,0.59-0.46,0.87c-0.18,0.27-0.39,0.53-0.62,0.76
			C127.384,175.72,126.094,176.251,124.774,176.251z"/>
		<path style="fill:#FFFFFF;" d="M192.774,244.251c-0.32,0-0.65-0.03-0.98-0.1c-0.31-0.06-0.63-0.16-0.93-0.28
			c-0.3-0.13-0.59-0.28-0.86-0.46c-0.28-0.18-0.53-0.39-0.76-0.62s-0.44-0.49-0.63-0.76c-0.181-0.28-0.33-0.57-0.46-0.87
			c-0.12-0.3-0.22-0.61-0.28-0.93c-0.07-0.33-0.1-0.65-0.1-0.98s0.03-0.66,0.1-0.98c0.06-0.32,0.16-0.63,0.28-0.93
			c0.13-0.3,0.279-0.59,0.46-0.87c0.189-0.27,0.399-0.52,0.63-0.76c0.229-0.23,0.479-0.44,0.76-0.62
			c0.271-0.18,0.561-0.33,0.86-0.46c0.3-0.12,0.609-0.22,0.93-0.28c1.63-0.33,3.36,0.2,4.521,1.36c0.229,0.24,0.439,0.49,0.619,0.76
			c0.181,0.28,0.33,0.57,0.46,0.87c0.12,0.3,0.221,0.61,0.28,0.93c0.07,0.32,0.101,0.65,0.101,0.98s-0.03,0.65-0.101,0.98
			c-0.06,0.32-0.16,0.63-0.28,0.93c-0.13,0.3-0.279,0.59-0.46,0.87c-0.18,0.27-0.39,0.53-0.619,0.76
			C195.384,243.72,194.094,244.251,192.774,244.251z"/>
		<path style="fill:#FFFFFF;" d="M180.444,257.251c-0.33,0-0.66-0.03-0.98-0.1c-0.32-0.06-0.63-0.16-0.93-0.28
			c-0.31-0.13-0.6-0.28-0.87-0.46c-0.27-0.18-0.53-0.39-0.76-0.62c-0.93-0.93-1.46-2.22-1.46-3.54c0-1.32,0.53-2.61,1.46-3.54
			c0.23-0.23,0.49-0.44,0.76-0.62s0.56-0.33,0.87-0.46c0.3-0.12,0.61-0.22,0.93-0.28c1.63-0.33,3.35,0.2,4.51,1.36
			c0.23,0.23,0.44,0.49,0.63,0.76c0.18,0.28,0.33,0.57,0.45,0.87c0.13,0.3,0.23,0.61,0.29,0.93c0.07,0.33,0.1,0.65,0.1,0.98
			c0,1.32-0.54,2.61-1.47,3.54C183.044,256.72,181.754,257.251,180.444,257.251z"/>
		<path style="fill:#FFFFFF;" d="M221.774,251.251c-1.311,0-2.601-0.53-3.53-1.46c-0.23-0.23-0.44-0.49-0.63-0.76
			c-0.181-0.28-0.33-0.57-0.46-0.87c-0.12-0.3-0.221-0.61-0.28-0.93c-0.07-0.33-0.1-0.65-0.1-0.98c0-1.32,0.529-2.61,1.47-3.54
			c0.229-0.23,0.479-0.43,0.76-0.62c0.271-0.18,0.561-0.33,0.86-0.46c0.3-0.12,0.609-0.22,0.93-0.28c0.65-0.13,1.31-0.13,1.96,0
			c0.32,0.06,0.63,0.16,0.93,0.28c0.311,0.13,0.601,0.28,0.87,0.46c0.271,0.19,0.53,0.39,0.761,0.62
			c0.229,0.23,0.439,0.49,0.619,0.76c0.181,0.28,0.33,0.57,0.46,0.87c0.12,0.3,0.221,0.61,0.28,0.93
			c0.07,0.33,0.101,0.65,0.101,0.98s-0.03,0.65-0.101,0.98c-0.06,0.32-0.16,0.63-0.28,0.93c-0.13,0.3-0.279,0.59-0.46,0.87
			c-0.18,0.27-0.39,0.53-0.619,0.76c-0.23,0.23-0.49,0.44-0.761,0.62c-0.27,0.18-0.56,0.33-0.87,0.46
			c-0.3,0.12-0.609,0.22-0.93,0.28C222.433,251.22,222.103,251.251,221.774,251.251z"/>
		<path style="fill:#FFFFFF;" d="M175.774,129.251c-0.32,0-0.65-0.03-0.98-0.1c-0.31-0.06-0.63-0.16-0.93-0.28
			c-0.3-0.13-0.59-0.28-0.86-0.46c-0.28-0.18-0.53-0.39-0.76-0.62c-0.23-0.23-0.44-0.49-0.63-0.76c-0.18-0.27-0.33-0.57-0.45-0.87
			c-0.13-0.3-0.23-0.61-0.29-0.93s-0.1-0.65-0.1-0.98s0.04-0.65,0.1-0.98c0.06-0.32,0.16-0.63,0.29-0.93
			c0.12-0.3,0.27-0.59,0.45-0.86c0.19-0.28,0.4-0.53,0.63-0.77c0.23-0.23,0.48-0.43,0.76-0.62c0.27-0.18,0.56-0.33,0.86-0.46
			c0.3-0.12,0.62-0.22,0.93-0.28c1.63-0.33,3.35,0.2,4.52,1.36c0.23,0.24,0.44,0.49,0.62,0.77c0.18,0.27,0.33,0.56,0.46,0.86
			c0.12,0.3,0.22,0.61,0.28,0.93c0.07,0.33,0.1,0.65,0.1,0.98s-0.03,0.66-0.1,0.98c-0.06,0.32-0.16,0.63-0.28,0.93
			c-0.13,0.3-0.28,0.6-0.46,0.87c-0.18,0.27-0.39,0.53-0.62,0.76C178.384,128.72,177.094,129.251,175.774,129.251z"/>
		<path style="fill:#FFFFFF;" d="M224.774,215.251c-0.33,0-0.65-0.03-0.98-0.1c-0.32-0.06-0.63-0.16-0.93-0.28
			c-0.3-0.13-0.59-0.28-0.86-0.46c-0.28-0.18-0.53-0.39-0.77-0.62c-0.23-0.23-0.431-0.49-0.62-0.76c-0.181-0.28-0.33-0.57-0.46-0.87
			c-0.12-0.3-0.221-0.61-0.28-0.93c-0.07-0.33-0.1-0.65-0.1-0.98s0.029-0.65,0.1-0.98c0.06-0.32,0.16-0.63,0.28-0.93
			c0.13-0.3,0.279-0.59,0.46-0.87c0.189-0.27,0.39-0.53,0.62-0.76c0.239-0.23,0.489-0.44,0.77-0.62c0.271-0.18,0.561-0.33,0.86-0.46
			c0.3-0.12,0.609-0.22,0.93-0.28c0.65-0.13,1.31-0.13,1.96,0c0.32,0.06,0.63,0.16,0.93,0.28c0.301,0.13,0.591,0.28,0.87,0.46
			c0.271,0.18,0.53,0.39,0.761,0.62c0.93,0.94,1.46,2.23,1.46,3.54c0,0.33-0.03,0.65-0.101,0.98c-0.06,0.32-0.16,0.63-0.28,0.93
			c-0.13,0.3-0.279,0.59-0.46,0.87c-0.18,0.27-0.39,0.53-0.619,0.76c-0.23,0.23-0.49,0.44-0.761,0.62
			c-0.279,0.18-0.569,0.33-0.87,0.46c-0.3,0.12-0.609,0.22-0.93,0.28C225.433,215.22,225.103,215.251,224.774,215.251z"/>
		<path style="fill:#FFFFFF;" d="M121.774,121.251c-1.31,0-2.6-0.53-3.53-1.46c-0.93-0.94-1.47-2.22-1.47-3.54
			c0-0.33,0.03-0.65,0.1-0.98c0.06-0.32,0.16-0.63,0.29-0.93c0.12-0.3,0.27-0.59,0.45-0.87c0.19-0.27,0.4-0.53,0.63-0.76
			c1.16-1.16,2.88-1.69,4.51-1.36c0.32,0.06,0.63,0.16,0.93,0.28c0.31,0.13,0.6,0.28,0.87,0.46s0.53,0.39,0.76,0.62
			s0.44,0.49,0.62,0.76c0.18,0.27,0.33,0.57,0.46,0.87c0.12,0.3,0.22,0.61,0.28,0.93c0.07,0.33,0.1,0.65,0.1,0.98
			s-0.03,0.66-0.1,0.98c-0.06,0.32-0.16,0.63-0.28,0.93c-0.13,0.3-0.28,0.59-0.46,0.87c-0.18,0.27-0.39,0.53-0.62,0.76
			s-0.49,0.43-0.76,0.62c-0.27,0.18-0.56,0.33-0.87,0.46c-0.3,0.12-0.61,0.22-0.93,0.28
			C122.434,121.22,122.104,121.251,121.774,121.251z"/>
		<path style="fill:#FFFFFF;" d="M78.774,153.251c-1.32,0-2.6-0.53-3.53-1.46c-0.23-0.24-0.44-0.49-0.63-0.77
			c-0.18-0.27-0.33-0.56-0.46-0.86c-0.12-0.3-0.22-0.61-0.28-0.93c-0.07-0.33-0.1-0.65-0.1-0.98s0.03-0.65,0.1-0.98
			c0.06-0.32,0.16-0.63,0.28-0.93c0.13-0.3,0.28-0.59,0.46-0.87c0.19-0.27,0.4-0.53,0.63-0.76c1.16-1.16,2.88-1.69,4.51-1.36
			c0.32,0.06,0.63,0.16,0.93,0.28c0.31,0.13,0.6,0.28,0.87,0.46s0.53,0.39,0.76,0.62s0.44,0.49,0.62,0.76
			c0.18,0.28,0.33,0.57,0.46,0.87c0.12,0.3,0.22,0.61,0.28,0.93c0.07,0.33,0.1,0.65,0.1,0.98s-0.03,0.65-0.1,0.98
			c-0.06,0.32-0.16,0.63-0.28,0.93c-0.13,0.3-0.28,0.59-0.46,0.86c-0.18,0.28-0.39,0.53-0.62,0.77c-0.23,0.23-0.49,0.44-0.76,0.62
			c-0.27,0.18-0.56,0.33-0.87,0.46c-0.3,0.12-0.61,0.22-0.93,0.28C79.434,153.22,79.104,153.251,78.774,153.251z"/>
		<path style="fill:#FFFFFF;" d="M83.774,271.251c-0.32,0-0.65-0.03-0.98-0.1c-0.31-0.06-0.63-0.16-0.93-0.28
			c-0.3-0.13-0.59-0.28-0.86-0.46c-0.28-0.19-0.53-0.39-0.76-0.62c-0.93-0.94-1.47-2.22-1.47-3.54c0-0.33,0.03-0.65,0.1-0.98
			c0.06-0.32,0.16-0.63,0.29-0.93c0.12-0.3,0.27-0.59,0.45-0.87c0.19-0.27,0.4-0.52,0.63-0.76c0.23-0.23,0.48-0.44,0.76-0.62
			c0.27-0.18,0.56-0.33,0.86-0.46c0.3-0.12,0.62-0.22,0.93-0.28c0.65-0.13,1.31-0.13,1.96,0c0.32,0.06,0.63,0.16,0.93,0.28
			c0.31,0.13,0.6,0.28,0.87,0.46s0.53,0.39,0.76,0.62c0.23,0.24,0.44,0.49,0.62,0.76c0.18,0.28,0.33,0.57,0.46,0.87
			c0.12,0.3,0.22,0.61,0.28,0.93c0.07,0.33,0.1,0.65,0.1,0.98s-0.03,0.66-0.1,0.98c-0.06,0.32-0.16,0.63-0.28,0.93
			c-0.13,0.3-0.28,0.6-0.46,0.87s-0.39,0.53-0.62,0.76C86.384,270.72,85.094,271.251,83.774,271.251z"/>
		<path style="fill:#FFFFFF;" d="M257.774,96.251c-0.32,0-0.65-0.03-0.98-0.1c-0.32-0.06-0.63-0.16-0.93-0.28
			c-0.3-0.13-0.59-0.28-0.87-0.46c-0.271-0.18-0.53-0.39-0.76-0.62c-0.23-0.24-0.431-0.49-0.62-0.76
			c-0.181-0.28-0.33-0.57-0.46-0.87c-0.12-0.3-0.221-0.61-0.28-0.93c-0.07-0.33-0.1-0.65-0.1-0.98c0-1.32,0.529-2.6,1.46-3.54
			c0.229-0.23,0.489-0.44,0.76-0.62c0.28-0.18,0.57-0.33,0.87-0.46c0.3-0.12,0.62-0.22,0.93-0.28c1.63-0.33,3.35,0.2,4.521,1.36
			c0.93,0.94,1.46,2.22,1.46,3.54c0,0.33-0.03,0.65-0.101,0.98c-0.06,0.32-0.16,0.63-0.28,0.93c-0.13,0.3-0.279,0.59-0.46,0.87
			c-0.18,0.27-0.39,0.52-0.619,0.76C260.384,95.72,259.094,96.251,257.774,96.251z"/>
		<path style="fill:#FFFFFF;" d="M202.774,64.251c-0.32,0-0.65-0.03-0.98-0.1c-0.32-0.06-0.63-0.16-0.93-0.28
			c-0.3-0.13-0.59-0.28-0.87-0.46c-0.271-0.19-0.521-0.39-0.76-0.62c-0.931-0.93-1.46-2.22-1.46-3.54s0.529-2.61,1.46-3.53
			c0.239-0.24,0.489-0.44,0.76-0.63c0.28-0.18,0.57-0.33,0.87-0.46c0.3-0.12,0.609-0.22,0.93-0.28c0.65-0.13,1.31-0.13,1.96,0
			c0.32,0.06,0.63,0.16,0.93,0.28c0.301,0.13,0.591,0.28,0.87,0.46c0.271,0.19,0.53,0.39,0.761,0.63c0.93,0.92,1.46,2.21,1.46,3.53
			s-0.53,2.61-1.46,3.54c-0.23,0.23-0.49,0.43-0.761,0.62c-0.279,0.18-0.569,0.33-0.87,0.46c-0.3,0.12-0.609,0.22-0.93,0.28
			C203.433,64.22,203.103,64.251,202.774,64.251z"/>
		<path style="fill:#FFFFFF;" d="M287.774,149.251c-0.32,0-0.65-0.03-0.98-0.1c-0.32-0.06-0.63-0.16-0.93-0.28
			c-0.3-0.13-0.59-0.28-0.86-0.46c-0.28-0.18-0.53-0.39-0.76-0.62c-0.94-0.94-1.47-2.22-1.47-3.54c0-1.32,0.529-2.61,1.47-3.54
			c0.229-0.23,0.479-0.44,0.76-0.62c0.271-0.18,0.561-0.33,0.86-0.46c0.3-0.12,0.609-0.22,0.93-0.28c0.65-0.13,1.31-0.13,1.96,0
			c0.32,0.06,0.63,0.16,0.93,0.28c0.301,0.13,0.601,0.28,0.87,0.46c0.271,0.18,0.53,0.39,0.761,0.62c0.93,0.93,1.46,2.22,1.46,3.54
			c0,1.32-0.53,2.6-1.46,3.54c-0.23,0.23-0.49,0.44-0.761,0.62c-0.27,0.18-0.569,0.33-0.87,0.46c-0.3,0.12-0.609,0.22-0.93,0.28
			C288.433,149.22,288.103,149.251,287.774,149.251z"/>
		<path style="fill:#FFFFFF;" d="M156.774,315.251c-0.32,0-0.65-0.03-0.98-0.1c-0.31-0.06-0.63-0.16-0.93-0.28
			c-0.3-0.13-0.59-0.28-0.86-0.46c-0.28-0.18-0.53-0.39-0.76-0.62c-0.23-0.24-0.44-0.49-0.63-0.76c-0.18-0.28-0.33-0.57-0.46-0.87
			c-0.12-0.3-0.22-0.61-0.28-0.93c-0.07-0.33-0.1-0.65-0.1-0.98c0-1.32,0.54-2.61,1.47-3.54c0.23-0.23,0.48-0.44,0.76-0.62
			c0.27-0.18,0.56-0.33,0.86-0.46c0.3-0.12,0.62-0.22,0.93-0.28c0.65-0.13,1.31-0.13,1.96,0c0.32,0.06,0.63,0.16,0.93,0.28
			c0.31,0.13,0.6,0.28,0.87,0.46s0.53,0.39,0.76,0.62c0.93,0.93,1.46,2.22,1.46,3.54c0,0.33-0.03,0.65-0.1,0.98
			c-0.06,0.32-0.16,0.63-0.28,0.93c-0.13,0.3-0.28,0.59-0.46,0.87c-0.18,0.27-0.39,0.52-0.62,0.76c-0.23,0.23-0.49,0.44-0.76,0.62
			c-0.27,0.18-0.56,0.33-0.87,0.46c-0.3,0.12-0.61,0.22-0.93,0.28C157.434,315.22,157.104,315.251,156.774,315.251z"/>
	</g>
</g>
<g>
</g>
<g>
</g>
<g>
</g>
<g>
</g>
<g>
</g>
<g>
</g>
<g>
</g>
<g>
</g>
<g>
</g>
<g>
</g>
<g>
</g>
<g>
</g>
<g>
</g>
<g>
</g>
<g>
</g>
</svg>
