<svg width="500" height="500" viewBox="0 0 500 500" fill="none" xmlns="http://www.w3.org/2000/svg">
<path d="M250 500C388.071 500 500 388.071 500 250C500 111.929 388.071 0 250 0C111.929 0 0 111.929 0 250C0 388.071 111.929 500 250 500Z" fill="#2775CA"/>
<path d="M203.125 423.828C203.125 429.687 198.438 433.008 192.969 431.25C117.188 407.031 62.5 336.328 62.5 252.539C62.5 168.945 117.188 98.0469 192.969 73.8281C198.633 72.0703 203.125 75.3906 203.125 81.25V95.8984C203.125 99.8047 200.195 104.297 196.484 105.664C136.523 127.734 93.75 185.352 93.75 252.539C93.75 319.922 136.523 377.344 196.484 399.219C200.195 400.586 203.125 405.078 203.125 408.984V423.828Z" fill="white"/>
<path d="M265.625 369.727C265.625 374.023 262.109 377.539 257.813 377.539H242.188C237.891 377.539 234.375 374.023 234.375 369.727V345.117C200.195 340.43 183.594 321.484 179.102 295.312C178.32 290.82 181.836 286.914 186.328 286.914H204.102C207.813 286.914 210.938 289.648 211.719 293.164C215.039 308.594 224.023 320.508 251.367 320.508C271.484 320.508 285.938 309.18 285.938 292.383C285.938 275.586 277.539 269.141 247.852 264.258C204.102 258.398 183.398 245.117 183.398 210.937C183.398 184.57 203.516 163.867 234.375 159.57V135.352C234.375 131.055 237.891 127.539 242.188 127.539H257.813C262.109 127.539 265.625 131.055 265.625 135.352V160.156C290.82 164.648 306.836 178.906 312.109 202.734C313.086 207.227 309.57 211.328 304.883 211.328H288.477C284.961 211.328 282.031 208.984 281.055 205.664C276.563 190.625 265.82 183.984 247.07 183.984C226.367 183.984 215.625 193.945 215.625 208.008C215.625 222.852 221.68 230.273 253.516 234.766C296.484 240.625 318.75 252.93 318.75 289.453C318.75 317.187 298.047 339.648 265.82 344.727V369.727H265.625Z" fill="white"/>
<path d="M307.031 431.25C301.367 433.008 296.875 429.688 296.875 423.828V409.18C296.875 404.883 299.414 400.781 303.516 399.414C363.281 377.539 406.25 319.922 406.25 252.734C406.25 185.352 363.477 127.93 303.516 106.055C299.805 104.687 296.875 100.195 296.875 96.2891V81.6406C296.875 75.7812 301.562 72.4609 307.031 74.2187C382.812 98.0469 437.5 168.945 437.5 252.539C437.5 336.328 382.812 407.031 307.031 431.25Z" fill="white"/>
<g clip-path="url(#clip0_35_27)">
<mask id="path-5-outside-1_35_27" maskUnits="userSpaceOnUse" x="366.691" y="-0.583252" width="133" height="150" fill="black">
<rect fill="white" x="366.691" y="-0.583252" width="133" height="150"/>
<path d="M433.146 12.596C433.338 12.4851 433.575 12.4851 433.767 12.596L486.912 43.2792C487.104 43.3901 487.222 43.595 487.222 43.8169V105.183C487.222 105.405 487.104 105.61 486.912 105.721L433.767 136.404C433.575 136.515 433.338 136.515 433.146 136.404L380.001 105.721C379.809 105.61 379.691 105.405 379.691 105.183V43.8168C379.691 43.595 379.809 43.3901 380.001 43.2792L433.146 12.596Z"/>
</mask>
<path d="M433.767 12.596L439.975 1.84282L433.767 12.596ZM433.146 12.596L426.938 1.84282L433.146 12.596ZM380.001 43.2792L386.209 54.0323L380.001 43.2792ZM380.001 105.721L386.209 94.9678L380.001 105.721ZM433.767 136.404L439.975 147.157L433.767 136.404ZM433.146 136.404L426.938 147.157L433.146 136.404ZM486.912 105.721L480.703 94.9678L486.912 105.721ZM486.912 43.2792L493.12 32.526L486.912 43.2792ZM474.805 43.8169V105.183H499.639V43.8169H474.805ZM480.703 94.9678L427.558 125.651L439.975 147.157L493.12 116.474L480.703 94.9678ZM439.354 125.651L386.209 94.9678L373.793 116.474L426.938 147.157L439.354 125.651ZM392.107 105.183V43.8168H367.274V105.183H392.107ZM427.559 23.3491L480.703 54.0323L493.12 32.526L439.975 1.84282L427.559 23.3491ZM386.209 54.0323L439.354 23.3491L426.938 1.84282L373.793 32.526L386.209 54.0323ZM439.975 1.84282C435.941 -0.486094 430.972 -0.48612 426.938 1.84282L439.354 23.3491C435.705 25.4563 431.208 25.4562 427.559 23.3491L439.975 1.84282ZM392.107 43.8168C392.107 48.0311 389.859 51.9252 386.209 54.0323L373.793 32.526C369.759 34.855 367.274 39.159 367.274 43.8168H392.107ZM386.209 94.9678C389.859 97.075 392.107 100.969 392.107 105.183H367.274C367.274 109.841 369.759 114.145 373.793 116.474L386.209 94.9678ZM427.558 125.651C431.208 123.544 435.705 123.544 439.354 125.651L426.938 147.157C430.971 149.486 435.941 149.486 439.975 147.157L427.558 125.651ZM474.805 105.183C474.805 100.969 477.054 97.0749 480.703 94.9678L493.12 116.474C497.154 114.145 499.639 109.841 499.639 105.183H474.805ZM499.639 43.8169C499.639 39.159 497.154 34.855 493.12 32.526L480.703 54.0323C477.054 51.9252 474.805 48.0311 474.805 43.8169H499.639Z" fill="#673910" mask="url(#path-5-outside-1_35_27)"/>
<path d="M487.222 105.542V43.4583L433.456 74.4999V136.583L487.222 105.542Z" fill="#AA561F"/>
<path d="M379.691 105.542L433.456 136.583V74.4999L379.691 43.4583V105.542Z" fill="#F1B155"/>
<path d="M487.222 43.4584L433.456 12.4167L379.691 43.4584L433.456 74.5001L487.222 43.4584Z" fill="#C56D28"/>
</g>
<defs>
<clipPath id="clip0_35_27">
<rect width="132.858" height="149" fill="white" transform="translate(367.142)"/>
</clipPath>
</defs>
</svg>
