<svg width="500" height="500" viewBox="0 0 500 500" fill="none" xmlns="http://www.w3.org/2000/svg">
<g clip-path="url(#clip0_201_2)">
<path d="M250 500C388.071 500 500 388.071 500 250C500 111.929 388.071 0 250 0C111.929 0 0 111.929 0 250C0 388.071 111.929 500 250 500Z" fill="#988430"/>
<path d="M250 491.992C383.649 491.992 491.992 383.649 491.992 250C491.992 116.352 383.649 8.00806 250 8.00806C116.352 8.00806 8.00806 116.352 8.00806 250C8.00806 383.649 116.352 491.992 250 491.992Z" fill="#7A6A2A"/>
<path d="M250 486.893C380.833 486.893 486.893 380.833 486.893 250C486.893 119.167 380.833 13.1067 250 13.1067C119.167 13.1067 13.1067 119.167 13.1067 250C13.1067 380.833 119.167 486.893 250 486.893Z" fill="#BA9F33"/>
<path fill-rule="evenodd" clip-rule="evenodd" d="M109.304 223.302C107.888 222.008 106.392 220.712 105.016 219.419C103.64 218.126 102.227 216.83 100.811 215.536L96.6026 211.536C95.9146 210.848 95.1866 210.243 94.4986 209.552C93.8106 208.947 93.0026 208.259 92.3146 207.651C86.7306 202.352 81.1146 197.054 75.6079 191.752C81.3119 196.971 86.8959 202.152 92.5999 207.448L94.5812 209.432C95.2692 210.118 95.9972 210.726 96.6852 211.414L100.891 215.296C102.307 216.59 103.683 217.886 105.099 219.296C106.515 220.707 107.891 222.006 109.307 223.296L109.304 223.302ZM35.1946 222.502C35.1946 222.502 55.5012 224.603 65.4132 226.019C74.5946 227.315 103.317 231.723 103.317 231.723L35.1946 222.502ZM35.1946 222.502C40.8986 222.987 46.6026 223.592 52.3066 224.2C55.2186 224.483 58.0106 224.806 60.8026 225.088L65.0879 225.576C66.5039 225.776 67.8799 225.979 69.2959 226.182L86.2879 228.891L94.7812 230.307C97.5732 230.792 100.365 231.32 103.277 231.806C100.485 231.523 97.5732 231.118 94.7812 230.712L86.2879 229.499L69.2959 226.992C67.8799 226.79 66.5039 226.504 65.0879 226.304L60.7999 225.811C58.0079 225.528 55.0959 225.123 52.3039 224.798C46.5999 224.112 40.8959 223.382 35.1919 222.494L35.1946 222.502ZM101.296 237.014C101.296 237.014 79.6132 242.518 72.2906 244.622C65.0906 246.603 43.2852 253.238 43.2852 253.238L101.293 237.016L101.296 237.014Z" fill="#CFB66C"/>
<path fill-rule="evenodd" clip-rule="evenodd" d="M101.294 237.014C96.4802 238.43 91.6936 239.806 86.8109 241.102L72.3282 244.984C67.5149 246.4 62.7282 247.776 57.9282 249.192L50.7282 251.174C48.3416 251.862 45.9149 252.467 43.4482 253.158C45.8322 252.358 48.2616 251.539 50.6482 250.851L57.8482 248.547C62.6616 247.048 67.4482 245.632 72.2482 244.136C77.1416 242.923 81.9576 241.627 86.8509 240.454C91.5016 239.28 96.3976 238.11 101.294 237.016V237.014ZM46.3202 266.587C48.7042 265.696 76.2136 252.875 82.6056 249.88C85.8056 248.382 95.1069 245.08 95.1069 245.08L46.3202 266.587Z" fill="#CFB66C"/>
<path fill-rule="evenodd" clip-rule="evenodd" d="M46.32 266.587C48.4214 265.787 50.4054 264.808 52.4267 263.877L58.4134 261.085L70.4294 255.301C74.4294 253.4 78.3174 251.301 82.4427 249.515C84.5467 248.627 86.6507 247.899 88.7521 247.211L91.9521 246.2C93.0427 245.917 94.0561 245.592 95.1521 245.309C91.1521 247.211 86.9414 248.829 82.9361 250.688C78.9361 252.672 74.8454 254.291 70.7174 256.069L58.5014 261.448C54.4001 263.109 50.4 264.888 46.3174 266.587H46.32ZM48.9867 277.787C48.9867 277.787 73.904 263.184 82.48 258.491C86.9707 255.984 101.493 248.781 101.493 248.781L48.9867 277.787Z" fill="#CFB66C"/>
<path fill-rule="evenodd" clip-rule="evenodd" d="M48.9893 277.792C53.1946 275.203 57.4826 272.573 61.7706 269.904L68.1706 266.019C70.3546 264.725 72.4586 263.512 74.6853 262.219C76.8693 260.923 78.9733 259.629 81.1973 258.416C82.256 257.762 83.3653 257.194 84.5146 256.717L87.9119 255.019C92.4026 252.835 96.8933 250.608 101.627 248.707C97.3386 251.419 92.9279 253.725 88.5199 256.109C86.3359 257.323 84.1093 258.416 81.9253 259.629C79.7413 260.843 77.6373 262.139 75.4106 263.312C73.2266 264.605 71.1226 265.819 68.8986 266.992L62.3039 270.592L48.9946 277.792H48.9893ZM101.293 251.981C101.293 251.981 85.7999 263.875 80.7839 267.677C75.7679 271.48 61.0026 282.16 61.0026 282.16L101.293 251.981V251.981Z" fill="#CFB66C"/>
<path fill-rule="evenodd" clip-rule="evenodd" d="M190.211 347.896L182.283 332.888L186.893 314.117L219.781 301.416L205.784 272.696L212.701 243.691L225.688 217.717L265.819 211.408L295.307 183.293L358.981 188.107L371.48 256.189L347.411 341.909L333.699 386.288L278.115 388.392L252.307 370.512L222.088 357.888L190.211 347.896Z" fill="#E2CC85"/>
<path fill-rule="evenodd" clip-rule="evenodd" d="M287.704 347.41C287.704 347.41 280.016 350.93 266.904 350.12C263.109 345.024 236.533 342.637 236.533 342.637C236.533 342.637 233.216 341.626 227.349 344.053C221.445 346.453 215.861 346.157 210.643 347.45C205.424 348.744 200.243 341.949 196.243 340.533C192.243 339.037 186.939 335.437 186.939 335.437L175.739 334.344L153.248 324.837L117.517 289.24L107.808 304.44L104.813 323.25L115.616 345.541L144.701 372.037L201.416 386.437L235.032 376.533L277.144 358.733L287.704 347.408V347.41Z" fill="#F1D789"/>
<path fill-rule="evenodd" clip-rule="evenodd" d="M86.2054 221.603L93.4054 199.8L101.984 185.72L129.611 183.414L121.317 207.606L98.2214 248.707L107.808 285.398L90.8187 293.891L85.5974 285.883L81.392 267.518L81.1094 246.886L86.2054 221.603Z" fill="#F4ECB4"/>
<path fill-rule="evenodd" clip-rule="evenodd" d="M117.192 345.914L111.893 338.512C111.893 338.512 110.477 334.992 111.288 331.917C112.088 328.802 111.973 328.6 111.571 327.426C111.168 326.253 107.768 322.208 107.971 318.728C108.171 315.208 107.688 314.034 110.275 311.245C112.984 308.536 112.176 303.842 112.176 303.842L115.696 306.026L116.496 304.813C116.496 304.813 117.789 305.824 117.789 307.402C118.072 305.218 116.899 295.104 119.568 292.8C122.237 290.496 126.971 303.6 126.971 303.6L124.059 284.586L116.573 265.09L103.264 247.29L102.464 227.669V225.97C102.464 225.97 96.3546 235.357 94.6559 242.77C93.4426 247.866 96.3546 254.056 95.7493 261.378C95.2613 268.661 94.6559 268.093 96.4346 270.978C98.2133 273.864 102.544 279.797 100.845 284.085C99.3493 287.768 94.2506 285.178 94.2506 285.178C94.2506 285.178 93.2399 288.17 91.8639 289.264C91.3786 287.485 90.8533 286.352 89.8826 285.264C89.7999 285.952 89.5999 286.882 89.5999 286.882C89.5999 286.882 88.7093 284.09 87.8186 280.57C86.6079 275.88 85.3119 269.69 84.1386 266.373C83.6533 268.274 82.4399 274.058 82.4399 274.058L83.1279 282.96L86.4453 295.176L89.6453 303.176L92.7599 312.965L95.4666 319.541L97.6506 324.557L99.5519 335.845L108.733 345.552L113.629 347.738L117.187 345.917L117.192 345.914Z" fill="#F3E19D"/>
<path fill-rule="evenodd" clip-rule="evenodd" d="M91.0189 203.803C91.0189 203.803 84.4242 215.003 82.5256 226.293C80.6269 237.584 78.9256 249.515 80.1256 264.885C81.3389 280.381 83.6456 289.885 85.5069 296.683C88.7069 307.971 96.9949 323.667 96.9949 323.667L97.2776 323.059C95.8845 320.418 94.7726 317.638 93.9602 314.765C92.8669 310.477 92.4616 305.381 91.4509 303.075C90.5602 300.771 89.0642 298.787 88.3362 295.955C87.6482 293.245 87.5362 288.957 85.4242 285.763C84.5336 284.467 83.4402 281.069 83.1176 277.672C82.7122 272.573 83.3202 266.869 82.8349 262.179C81.9442 254.371 81.3389 249.072 82.1469 244.984C82.9549 240.896 87.1656 229.291 89.7549 220.067C91.4536 214.16 90.4402 209.184 93.5549 204.045C96.6696 198.949 98.5736 194.459 99.2589 191.344C100.059 188.512 91.0082 203.803 91.0082 203.803H91.0189Z" fill="#F2E8B0"/>
<path fill-rule="evenodd" clip-rule="evenodd" d="M122.291 199.312C122.291 199.312 118.893 200.325 117.275 202.104C115.656 203.803 114.968 205.219 112.784 208.091C110.6 210.963 110.477 213.309 108.696 216.909C106.917 220.429 102.992 225.728 102.507 227.629C102.021 229.531 101.213 238.429 100.203 242.637C99.3119 246.845 101.213 252.024 101.213 252.024L103.517 251.536C103.517 251.536 103.517 254.531 105.824 256.555C108.128 258.536 108.533 249.837 108.533 249.837L117.149 220.752L130.133 211.933L131.549 204.813L122.285 199.312H122.291Z" fill="#F5EEC0"/>
<path fill-rule="evenodd" clip-rule="evenodd" d="M128.6 212.501C128.6 212.501 122.49 212.904 119.498 215.091C118.285 215.979 117.8 216.707 116.506 217.8C114.12 219.781 111.69 221.603 110.52 224.2C109.224 226.787 107.808 230.712 106.837 238.115C106.432 241.229 106.432 244.101 106.149 246.611C105.744 250.008 105.138 252.717 105.461 254.611C105.866 258.493 109.872 260.517 110.261 264.925L118.554 260.72L126.362 229.933L142.949 219.533L133.562 209.016L128.589 212.483L128.6 212.501Z" fill="#E6DB9D"/>
<path fill-rule="evenodd" clip-rule="evenodd" d="M84.8479 419.811C84.8825 419.507 84.9172 419.203 84.9519 418.891C86.1625 408.491 86.3679 400.608 87.2559 395.672C88.5492 388.675 89.4399 386.072 89.2372 383.454C88.9545 379.248 88.6319 376.174 89.0372 372.936C89.6425 368.648 93.8505 363.552 93.7305 360.032C93.6479 357.24 92.2319 355.422 91.0185 353.723C89.8052 352.024 88.8345 350.608 88.8345 350.608C88.8345 350.608 97.1279 344.904 97.0479 321.926C97.2172 321.973 97.3802 322.041 97.5332 322.128L101.619 333.736L104.411 337.134L115.131 357.118L128.925 370.51L149.312 384.222L162.096 398.134L163.389 435.23L146.683 456.912L143.947 461.867C122.21 450.955 102.277 436.77 84.8452 419.808L84.8479 419.811Z" fill="#E5CB7A"/>
<path fill-rule="evenodd" clip-rule="evenodd" d="M135.883 455.299C135.883 455.299 136.165 450.688 139.968 447.693C140.576 448.704 140.979 449.677 140.859 450.403C141.547 449.192 146.36 441.424 157.243 439.4C168.125 437.419 170.755 429.491 170.755 429.491L193.851 408.496L220.267 384.184L252.387 372.896L267.397 369.213C267.397 369.213 267.68 370.307 267.115 372.733C269.904 372.533 276.093 371.117 282.525 368.851C285.115 367.84 287.544 367.435 288.837 368.771C290.739 370.549 291.021 374.757 291.141 377.264C294.256 376.576 297.856 373.584 300.741 373.867C305.355 374.352 309.44 379.773 314.133 379.773C320.323 379.773 323.112 375.971 327.443 372.976C330.032 371.197 333.752 368.976 335.856 367.475C340.872 363.792 393.947 347.571 393.947 347.571L412.555 348.784L415.549 368.768L413.949 421.008C413.752 421.197 413.555 421.395 413.355 421.584L328.747 465.773L211.467 483.752C185.195 479.46 159.843 470.74 136.491 457.963L135.891 455.296L135.883 455.299Z" fill="#D8C173"/>
<path fill-rule="evenodd" clip-rule="evenodd" d="M91.9602 426.456C93.6269 422.971 95.1255 420.056 95.3895 419.014C95.5975 421.115 95.9789 425.726 96.7469 430.627C95.1344 429.256 93.5389 427.865 91.9602 426.454V426.456Z" fill="#F1D789"/>
<path fill-rule="evenodd" clip-rule="evenodd" d="M177.632 475.619L192.8 471.4L194.093 471.805C194.093 471.805 194.781 472.211 194.781 473.584C196.683 472.493 198.301 472.693 199.475 471.968C200.08 473.261 200.685 477.549 203.357 478.075C206.147 478.683 209.141 476.861 212.176 474.557C215.168 472.171 218.576 469.176 221.155 467.963C222.101 469.702 222.939 471.499 223.664 473.341C227.061 470.632 232.968 459.629 241.381 459.829C243.813 454.083 247.876 449.175 253.067 445.712C260.875 440.413 265.768 440.008 271.877 440.493C274.304 437.341 277.294 434.667 280.696 432.605C281.707 433.011 284.499 434.709 287.979 433.091C291.499 431.475 295.461 425.203 300.68 424.395C303.492 424.008 306.352 424.608 308.771 426.093C308.771 426.093 323.971 411.003 334.459 405.987C334.053 404.773 333.245 400.203 345.541 390.088C346.229 390.696 345.744 392.395 346.229 392.488C346.429 392.488 349.429 391.195 353.227 388.28C357.92 384.763 363.541 381.08 366.939 380.069C373.339 378.168 380.128 382.051 380.128 382.051C380.705 381.646 381.349 381.344 382.029 381.16C383.645 380.877 384.819 380.675 385.709 380.36C385.629 382.464 386.803 386.064 385.709 389.179C386.976 389.891 388.317 390.461 389.709 390.877C389.024 392.373 387.525 396.176 385.019 397.997C387.12 399.008 387.403 400.181 390.397 401.197C389.184 402.896 387.197 405.811 386.312 407.597C385.421 409.499 382.224 417.387 380.808 420.379C379.312 423.373 377.291 428.875 376.317 429.979C375.344 431.083 371.827 435.763 369.117 438.067C371.517 437.176 381.336 434.184 385.501 433.051C384.261 434.869 377.976 444.195 371.933 453.163C343.001 470.504 310.706 481.48 277.198 485.359C243.691 489.238 209.742 485.931 177.613 475.659L177.632 475.619Z" fill="#E0CD81"/>
<path fill-rule="evenodd" clip-rule="evenodd" d="M129.6 211.408C129.6 211.408 126.083 211.408 125.395 211.893C124.707 212.379 128.915 213.392 130.208 213.877C131.501 214.363 134.293 216.587 135.021 218.368C135.709 220.067 160.304 229.976 160.304 229.976L177.699 229.085L183.696 220.8L172.288 210.808L180.288 187.224L169.691 188.923L144.205 204.123L131.421 209.019L129.6 211.408Z" fill="#DFC57C"/>
<path fill-rule="evenodd" clip-rule="evenodd" d="M167.8 219.216C168.051 219.623 168.406 219.957 168.827 220.184C169.248 220.411 169.722 220.523 170.2 220.509C173.8 220.509 177.115 221.4 178.491 223.219C180.797 226.133 187.189 235.437 187.189 235.437L202.48 240.939L203.467 222.933L186.76 211.325L167.747 218.323V219.213H167.789L167.8 219.216Z" fill="#E5CC7C"/>
<path fill-rule="evenodd" clip-rule="evenodd" d="M164.8 225.891C164.8 225.891 167.589 226.093 171.109 224.797C174.629 223.501 180.413 220.712 182.923 221.805C186.44 223.301 185.712 227.995 189.517 232.205C191.821 234.795 196.029 234.715 198.416 237.507C200.803 240.299 209.013 239.003 209.013 239.003L212.128 255.803L199.629 271.824L195.541 291.725H178.64L163.2 285.6L155.595 267.2L159.397 248.592L164.8 225.891Z" fill="#D2C281"/>
<path fill-rule="evenodd" clip-rule="evenodd" d="M197.493 226.699C197.913 226.828 198.348 226.896 198.787 226.902C198.301 227.307 197.288 228.195 197.693 230.502C198.099 232.808 199.392 235.72 198.301 237.499C199.172 238.451 199.821 239.584 200.203 240.816C200.891 242.8 201.093 244.619 205.581 244.904C204.934 245.303 204.337 245.778 203.803 246.32C203.803 246.32 206.917 249.03 208.496 251.536C210.112 251.467 214.4 250.134 214.4 250.134L215.291 250.742L217.192 249.942C217.192 249.942 215.413 249.254 216.707 244.926C217.92 241.123 219.013 241.326 219.107 241.043C219.2 240.76 219.997 236.755 219.997 235.136C220.603 233.035 221.088 226.643 221.088 226.643L219.795 212.526L212.515 208.115L206.595 202.4L201.011 212.918L197.333 216.584L197.051 225.686L197.493 226.699Z" fill="#E2C270"/>
<path fill-rule="evenodd" clip-rule="evenodd" d="M215.008 214.888C215.008 214.888 216.301 218.568 216.789 221.4C216.961 220.849 217.056 220.278 217.072 219.701C217.072 219.701 218.082 225.285 218.282 227.592C218.688 227.509 219.082 227.389 219.173 227.792C219.264 228.195 220.186 232.688 219.973 235.195C221.658 232.416 223.989 230.085 226.768 228.4C228.386 227.387 230.288 226.296 232.272 226.213C235.386 226.133 237.65 228.197 241.373 228.197C250.352 228.197 258.485 221.603 264.472 219.581C268.88 218.083 272.682 216.992 275.352 214.563C276.648 213.472 278.954 211.045 281.056 207.443C283.848 202.643 286.76 198.464 289.674 197.939C288.356 198.181 287.014 198.276 285.674 198.221C285.674 198.221 286.565 197.331 288.074 196.117C289.584 194.904 291.392 193.408 293.978 193.408C298.592 193.408 300.896 194.093 303.485 194.093C306.074 194.013 307.57 193.408 307.57 193.408C307.57 193.408 310.282 195.309 316.389 195.309C322.498 195.389 326.584 195.915 329.781 196.2C332.978 196.485 343.696 195.309 346.77 195.4C348.775 195.477 350.743 195.959 352.557 196.816L342.645 168.016L307.04 136.896L285.842 151.904L253.234 184.509L221.682 196.2L215.088 203.603V214.888H215.008Z" fill="#CCB360"/>
<path fill-rule="evenodd" clip-rule="evenodd" d="M285.803 198.381C285.803 198.381 286.693 197.493 288.187 196.28C289.68 195.067 291.507 193.568 294.093 193.568C298.704 193.568 301.011 194.256 303.6 194.256C306.189 194.176 307.685 193.568 307.685 193.568C307.685 193.568 310.4 195.467 316.504 195.467C322.613 195.547 326.699 196.072 329.896 196.355C333.093 196.637 343.811 195.467 346.885 195.555C348.889 195.63 350.857 196.112 352.669 196.971L348.179 183.984L342.963 174.075L328.075 157.771C328.075 157.771 310.208 147.253 310.072 147.173C309.992 147.093 303.883 145.475 303.883 145.475L287.701 155.264L273.019 193.251L272.736 201.251L282.24 205.741C284.627 201.741 287.259 198.541 289.725 198.136C287.499 198.379 285.8 198.379 285.8 198.379L285.803 198.381Z" fill="#D5B457"/>
<path fill-rule="evenodd" clip-rule="evenodd" d="M285.6 201.093C284.184 201.173 283.013 200.891 282.688 199.88C281.474 196.483 280.504 195.997 279.488 195.997C278.472 195.997 277.101 198.181 276.288 198.381C275.474 198.581 274.509 195.875 274.509 195.875L273.618 195.469C273.618 195.469 268.4 198.867 264.72 202.872C261.04 206.877 255.01 213.675 252.301 214.885C249.592 216.096 240.285 216.504 237.101 217.192C233.917 217.88 230.386 220.187 229.901 220.712C229.416 221.237 231.32 221.803 231.602 222.328C231.885 222.813 228.485 222.611 228.202 223.128C228.002 223.533 229.002 225.837 229.498 227.011C230.366 226.579 231.319 226.344 232.288 226.323C235.402 226.243 237.669 228.307 241.389 228.307C250.37 228.307 258.501 221.712 264.488 219.688C268.898 218.192 272.701 217.099 275.37 214.672C276.664 213.581 278.97 211.152 281.074 207.552C282.61 205.085 284.109 202.779 285.608 201.08L285.6 201.093Z" fill="#D2B257"/>
<path fill-rule="evenodd" clip-rule="evenodd" d="M156.8 401.296C156.8 401.296 156 398.301 148.587 390.576C146.483 388.392 145.19 386.576 143.774 385.277C140.254 381.957 138.19 381.069 135.683 379.168C130.182 375.083 124.195 375.083 119.584 370.067C114.974 365.051 109.6 355.467 105.867 345.672C102.187 335.883 101.174 332.768 101.174 332.485C101.174 332.203 102.187 330.301 103.48 330.584C104.774 330.867 104.774 333.373 105.099 333.981C105.743 334.974 106.474 335.907 107.283 336.771C109.184 338.957 111.894 341.571 113.27 345.469C112.987 342.152 111.854 338.472 111.854 338.472C111.854 338.472 118.974 342.963 125.04 347.653C131.15 352.347 133.656 353.965 135.44 356.957C137.224 359.949 141.427 367.84 143.44 370.147C145.454 372.453 173.04 381.149 173.04 381.149L186.163 390.933L192.678 405.213L187.579 413.213L177.79 415.317L161.891 408.197L156.8 401.293V401.296Z" fill="#D2B159"/>
<path fill-rule="evenodd" clip-rule="evenodd" d="M121.48 352.104C121.48 352.104 124.797 357.403 132.888 362.419C140.171 366.829 151.699 370.835 161.976 373.221C167.88 374.637 173.787 375.728 179.085 375.811C193.365 376.011 203.195 371.928 215.373 370.592C221.968 369.904 230.059 369.379 238.472 367.392C249.272 364.803 255.664 361.888 264.363 357.792C270.672 354.88 276.459 352.696 281.149 349.904C287.744 346.021 292.557 341.693 298.141 340.4C297.453 342.301 296.725 345.699 291.224 349.219C294.136 349.136 298.141 348.936 298.141 348.936C298.141 348.936 294.259 351.24 287.421 356.419C283.213 359.619 277.632 365.035 271.928 368.635C268.245 370.941 264.24 372.635 261.611 374.016C255.211 377.536 252.629 379.315 248.424 383.616C249.92 383.536 250.043 383.616 250.043 383.616C250.043 383.616 244.741 384.304 240.941 386.325C240.141 386.325 238.755 386.043 236.328 386.731C234.427 387.336 231.917 388.715 229.331 389.44C225.648 390.533 224.437 390.048 224.437 390.048L225.043 391.261C225.043 391.261 220.243 391.179 218.643 391.341C218.925 391.421 218.845 391.544 218.845 391.544C218.564 391.591 218.294 391.687 218.045 391.827C217.275 392.325 216.428 392.694 215.539 392.917C215.053 392.997 214.648 392.997 214.04 393.12C214.243 393.605 215.821 396.32 216.549 397.92C215.944 398.325 206.84 405.203 206.84 405.203C207.122 405.647 207.353 406.122 207.528 406.619C207.811 407.507 207.933 408.803 208.216 409.408C208.901 410.621 209.307 410.824 209.307 410.824C209.307 410.824 208.216 411.027 206.312 411.512C204.696 411.917 202.712 412.603 199.912 413.008C199.053 413.12 198.189 413.187 197.323 413.211C197.728 414.101 199.507 417.499 196.229 421.421C192.952 425.344 191.941 425.915 190.931 428.421C190.422 428.037 189.88 427.697 189.312 427.408C188.221 426.923 186.723 426.197 186.197 425.224C185.891 426.521 185.485 427.792 184.984 429.027C183.973 431.736 182.477 434.408 182.195 436.429C181.101 435.216 179.08 432.829 176.288 433.315C173.496 433.8 171.272 437.603 170.787 438.696C170.787 438.008 170.301 437.483 170.181 438.291C170.099 439.181 168.563 448.483 159.987 456.008C159.907 454.107 159.907 449.899 159.704 448.525C158.904 449.325 157.925 450.507 152.099 453.016C146.395 455.523 147.299 458.032 147.299 458.032C147.299 458.032 146.813 454.032 149.888 449.819C153.003 445.613 154.904 443.629 154.904 443.307C154.854 442.978 154.713 442.67 154.499 442.416C154.093 442.011 153.285 441.525 153.285 441.203C153.771 441.003 158.584 438.696 158.301 433.92C158.019 429.635 156.2 427.408 154.904 425.832C154.704 425.629 156.808 424.133 156.523 423.648C156.32 423.365 153.733 421.461 153.408 420.448C153.484 419.843 153.62 419.247 153.813 418.669C154.096 417.779 154.299 417.171 154.219 416.565C154.016 415.555 152.923 412.763 152.6 412.48C152.883 412.56 154.904 412.48 154.904 412.48C154.904 412.48 153.288 409.891 153.003 408.677C152.717 407.464 152.112 404.267 151.789 403.661C152.477 403.741 154.176 403.861 154.176 403.661C154.259 403.053 152.68 402.043 153.376 401.261C153.861 401.341 154.792 401.747 155.68 402.88C155.195 401.584 154.387 399.077 152.685 398.067C153.485 397.784 156.205 397.053 158.592 398.469C160.979 399.885 161.792 401.867 161.792 401.867C161.792 401.867 163.208 402.96 165.395 404.579C167.901 406.56 171.096 409.379 176.195 411.373C177.288 411.981 180.077 411.981 182.101 411.576C182.983 411.366 183.828 411.025 184.608 410.565C184.89 410.399 185.188 410.263 185.499 410.16C185.064 409.287 184.564 408.448 184.003 407.651C184.691 407.651 185.499 407.733 185.499 407.733C185.499 407.733 185.984 406.64 183.8 404.533C184.285 404.048 184.893 403.733 184.893 402.915C184.205 402.835 182.992 401.824 182.709 401.419C183.112 401.136 183.72 400.205 184.408 399.923C183.8 399.437 182.304 397.413 181.616 397.213C182.273 396.969 182.909 396.671 183.517 396.323C183.517 396.323 180.12 395.432 179.027 394.704C177.933 393.904 176.317 392.52 175.347 392.115C174.333 391.709 172.555 391.509 171.827 390.699C172.512 390.901 173.605 390.699 174.416 390.699C175.021 390.699 175.307 390.779 175.507 390.779C175.427 390.496 175.427 389.888 177.005 389.688C177.765 389.573 178.501 389.341 179.189 389C179.189 389 177.691 388.92 175.989 387.301C174.288 385.683 172.875 384.389 171.904 384.187C170.893 383.984 168.992 384.875 167.819 384.792C166.2 384.592 165.512 383.781 165.512 383.781C165.512 383.781 160.133 384.267 148.2 376.987C137.883 370.675 133.392 365.093 133.392 365.093C132.426 364.743 131.493 364.309 130.603 363.797C126.72 361.776 121.339 357.568 121.501 352.064L121.48 352.104Z" fill="#C2A44D"/>
<path fill-rule="evenodd" clip-rule="evenodd" d="M270.307 109.304C271.243 109.608 272.074 110.169 272.707 110.923C274.608 113.107 275.821 117.232 271.493 121.643C273.192 122.248 273.893 122.443 275.376 122.248C273.88 124.029 270.483 127.832 270.28 131.149C270.077 133.859 271.776 134.669 271.776 134.669C271.776 134.669 269.187 137.661 269.067 142.669C270.289 141.29 271.628 140.018 273.067 138.867C276.061 136.48 280.187 133.771 282.979 132.072C282.941 132.784 283.037 133.497 283.261 134.173C283.261 134.173 288.477 129.885 292.861 131.789C294.843 132.68 293.952 135.469 293.952 135.469C293.952 135.469 296.664 134.459 298.565 136.36C300.467 138.261 303.155 143.165 304.533 145.067C305.139 145.957 306.717 147.656 308.333 150.285C310.541 153.966 312.384 157.854 313.837 161.893C313.917 159.789 314.443 156.515 320.432 158.576C326.419 160.68 333.213 165.091 338.917 173.776C344.621 182.461 346.035 192.267 348.907 196C351.819 199.6 354.813 205.587 355.016 208.096C355.219 210.605 354.125 218.693 360.112 240.579C361.811 233.784 364.4 218.693 364.4 218.693L365.816 205.384L367.435 164.203L324.432 128.477L290.816 104.083L268.931 106.187L270.304 109.301L270.307 109.304Z" fill="#CAA13E"/>
<path fill-rule="evenodd" clip-rule="evenodd" d="M350.203 170.589C350.203 170.589 349.595 166.589 339.483 159.789C329.368 153.074 321.48 153.074 314.2 147.37C308.616 142.88 302.792 132.562 299 129.165C295.317 125.808 294.712 116.098 294.712 116.098L307.131 105.698L325.6 79.0024L341.213 61.8104L348.696 72.2104L359.096 84.4264L364.88 108.941L366.984 144.824L350.184 170.592L350.203 170.589Z" fill="#B59544"/>
<path fill-rule="evenodd" clip-rule="evenodd" d="M362.704 213.6C363.01 208.158 362.338 202.706 360.72 197.501C358.053 189.208 352.227 174.483 349.52 168.968C348.427 162.859 349.237 162.373 350.411 161.685C351.584 160.997 355.995 158.485 358.411 149.672C360.827 140.859 368.323 140.571 368.323 140.571L372.933 137.173L379.933 154.688L386.04 170.507L387.941 182.603L389.357 192.917L386.04 214.723L369.659 229.528L362.701 213.6H362.704Z" fill="#C89D3A"/>
<path fill-rule="evenodd" clip-rule="evenodd" d="M134.104 456.637V456.189C134.444 455.976 134.745 455.706 134.992 455.389C135.275 454.984 135.48 454.499 135.68 454.379C136.085 454.176 137.987 453.579 138.997 453.771C140.008 453.963 142.68 455.064 144.096 454.984C147.008 454.904 150.405 452.677 155.787 453.691C163.877 455.187 165.779 460.688 170.472 463.803C173.672 465.989 176.984 465.016 177.469 465.016H178.56C178.763 465.016 180.259 463.317 181.069 463.4C182.688 463.48 182.848 464.816 183.859 464.896C186.245 465.179 190.859 463.683 193.165 464.291C193.849 464.505 194.471 464.881 194.978 465.388C195.485 465.894 195.862 466.516 196.077 467.2C196.563 468.696 196.157 470.597 194.984 471.691C192.477 473.995 190.091 476.181 189.605 478.091C190.223 478.561 190.815 479.063 191.381 479.595C171.366 474.495 152.108 466.784 134.104 456.661V456.637Z" fill="#CEB052"/>
<path fill-rule="evenodd" clip-rule="evenodd" d="M349.514 375.811C349.514 375.811 355.824 367.397 358.01 363.229C360.194 358.933 351.093 304.533 351.093 304.533L369.378 244.624L368.89 225.125C368.89 225.125 369.781 207.123 371.885 199.315C374.394 203.805 382.202 209.227 383.901 212.099C384.701 206.595 387.418 194.987 387.016 182.608C388.512 184.912 392.112 208.093 392.112 208.093L395.712 223.707L400.405 240.293L405.624 257.811L408.738 269.907L410.517 272.819L412.016 277.915L413.432 283.419L417.517 296.323L419.917 306.92L421.818 326.136C422.232 327.607 422.53 329.109 422.709 330.627C422.789 332.731 422.426 333.944 422.426 334.309C422.426 334.675 423.114 338.92 422.832 342.117C422.426 345.317 422.426 347.821 419.917 350.117C417.408 352.413 415.832 366.136 415.832 366.136L411.341 363.144C411.341 363.144 412.232 359.056 410.128 355.336C408.024 351.616 403.938 350.845 401.632 351.453C399.328 351.939 394.717 352.664 393.218 353.96C391.802 355.253 388.325 359.259 385.128 361.08C381.128 363.48 374.61 363.669 371.133 364.477C367.613 365.277 363.73 367.677 359.642 370.464C356.437 372.539 353.053 374.324 349.53 375.797V375.797L349.514 375.811Z" fill="#CCA847"/>
<path fill-rule="evenodd" clip-rule="evenodd" d="M349.514 464.2C349.514 464.2 349.781 464.373 350.296 464.656C379.036 451.191 404.787 432.104 426.029 408.523C425.797 400.336 425.496 391.944 425.165 388.835C424.48 382.24 424.965 375.525 424.762 371.643C424.56 367.76 422.376 351.941 421.365 347.856C420.272 343.771 418.165 341.747 417.845 341.747C417.562 341.829 415.861 349.435 415.861 351.347C415.861 353.259 415.456 357.861 415.456 359.035C415.173 358.952 415.053 358.235 415.053 357.941C414.648 358.952 414.162 360.733 413.96 360.936C413.757 361.139 414.242 359.237 413.96 358.832C413.677 358.427 413.16 358.629 413.272 357.619C413.32 357.019 413.414 356.425 413.554 355.84C413.554 355.84 412.341 357.619 411.453 362.149C410.562 366.64 410.562 366.763 410.24 367.165C409.957 367.653 408.338 369.269 408.256 369.877C408.176 370.968 409.754 372.061 409.874 372.667C409.954 373.68 408.458 378.371 407.973 380.667C407.488 382.963 407.69 387.461 407.173 389.768C406.768 391.872 406.373 393.085 404.989 393.973C406 394.176 406.97 394.459 406.97 394.459C406.97 394.459 408.386 400.445 404.786 405.544C403.493 407.323 403.17 408.133 401.794 409.752C399.082 412.744 396.978 416.152 396.776 418.368C396.636 417.714 396.541 417.051 396.493 416.384C396.493 416.384 392.288 421.28 390.506 424.072C388.202 427.672 385.005 427.469 384.106 428.36C383.208 429.251 383.013 430.867 383.306 432.163C382.506 432.363 381.002 432.648 379.989 435.763C379.504 437.379 378.29 438.963 376.389 440.051C374.488 441.139 372.181 441.467 371.008 441.749C372.018 442.032 372.424 442.032 372.909 442.355C372.304 443.365 369.512 444.944 366.397 446.968C363.282 448.869 361.784 451.659 361.016 453.48C360.216 455.179 359.034 456.272 357.133 456.475C357.933 456.96 359.117 458.091 359.722 458.456C358.832 458.659 357.322 458.659 354.626 460.965C351.794 463.312 350.824 464 349.528 464.203L349.514 464.2Z" fill="#C39D3C"/>
<path fill-rule="evenodd" clip-rule="evenodd" d="M293.226 482.947C294.775 481.861 296.453 480.971 298.221 480.299C304.53 477.792 311.205 477.307 313.834 476.499C316.344 475.699 318.325 474.595 321.44 473.989C321.357 474.699 321.288 475.365 321.213 475.995C312.03 478.881 302.68 481.203 293.213 482.947H293.226Z" fill="#D2BA6B"/>
<path fill-rule="evenodd" clip-rule="evenodd" d="M409.6 316.992C409.6 316.992 408.307 323.989 406 328.4C403.693 332.81 401.2 338.917 401.2 338.917C401.215 337.541 401.378 336.171 401.685 334.829C398.773 336.528 391.693 340.616 389.685 342.434C387.784 344.133 384.587 347.128 383.779 348.544C385.68 342.963 387.661 337.947 387.987 335.64C385.075 337.744 371.48 348.949 364.403 356.352L342.355 374.192C339.81 375.564 337.19 376.791 334.507 377.866C330.707 379.482 326.216 380.858 322.899 382.154C323.789 379.768 325.203 377.661 327.187 375.64C329.291 373.659 335.6 366.821 336.571 363.64C337.461 360.323 337.664 358.341 336.491 355.549C335.397 355.832 332.891 355.955 331.192 356.44C329.493 356.925 327.672 358.744 327.672 358.744C327.672 358.744 328.965 351.341 331.757 344.344C329.653 344.424 326.053 345.029 326.053 345.029C326.053 345.029 331.069 336.616 339.653 330.752C337.024 331.311 334.452 332.109 331.968 333.136C326.952 335.24 321.451 338.354 317.365 340.053C319.669 336.853 335.851 313.76 345.48 292.237C355.08 270.757 358.667 265.256 360.771 253.728C361.861 248.024 361.571 239.594 361.861 232.045C362.144 224.56 363.075 217.845 362.469 213.354C364.976 216.469 374.363 225.248 374.685 244.869C374.968 264.488 365.707 290.986 355.875 305.264C358.275 305.952 364.493 306.762 370.883 295.664C377.272 284.565 377.195 281.466 379.501 276.853C379.784 279.16 379.701 279.968 379.701 279.968C379.701 279.968 389.008 268.682 393.416 254.482C394.307 260.592 396.936 265.973 392.808 277.179C389.128 287.291 384.315 289.76 384.315 289.76C384.315 289.76 386.701 289.354 390.219 287.25C390.827 288.746 390.707 290.45 391.717 291.053C392.728 291.656 394.104 292.672 394.307 293.643C395.397 292.024 397.096 289.96 397.624 288.424C397.219 291.624 396.936 305.616 398.424 312.736C401.541 312.453 404.736 312.25 406.92 306.626C405.424 312.13 405.424 315.445 406.435 320.138C408.093 319.008 409.589 316.984 409.589 316.984L409.6 316.992Z" fill="#C0993A"/>
<path fill-rule="evenodd" clip-rule="evenodd" d="M304.491 94.0133C304.491 94.0133 301.376 95.3066 296.077 95.3066C291.467 95.3066 292.76 93.528 285.56 93.528C274.477 93.528 235.763 99.928 228.965 99.8373C224.555 99.7573 243.851 101.739 243.851 101.739L293.165 102.427L303.075 101.627L306.757 94.1333L304.491 94.0133Z" fill="#A88F33"/>
<path fill-rule="evenodd" clip-rule="evenodd" d="M176.618 190.413C176.618 190.413 170.306 195.226 167.637 198.909C164.968 202.592 163.552 205.016 160.517 208.01C161.229 208.038 161.941 207.942 162.621 207.728C162.621 207.728 162.621 208.528 162.136 208.738C162.555 208.692 162.98 208.739 163.378 208.877C163.777 209.016 164.14 209.242 164.44 209.538C163.549 210.024 161.122 212.453 163.024 215.325C164.44 217.509 167.434 217.709 167.434 217.709C167.434 217.709 166.746 219.693 169.618 219.49C175.808 219.208 182.725 216.496 185.92 217.184C189.12 217.984 190.938 218.277 193.202 222.202C195.602 226.085 197.693 226.693 197.693 226.693C197.693 226.693 199.109 223.09 198.786 217.712C199.947 214.813 200.591 211.732 200.688 208.61L198.584 193.117L189.402 181.506L177.509 188.101L176.618 190.405V190.413Z" fill="#E3C571"/>
<path fill-rule="evenodd" clip-rule="evenodd" d="M187.904 188.107C187.904 188.107 188.795 190.211 192.518 190.411C192.112 191.301 192.112 191.424 192.235 192.109C192.315 192.797 192.435 193.808 192.435 193.808C192.845 193.61 193.215 193.339 193.528 193.008C193.731 193.899 193.326 195.312 193.528 196.325C193.653 196.942 193.857 197.539 194.134 198.104C194.193 197.966 194.26 197.831 194.336 197.701C194.416 197.499 195.136 199.885 197.128 201.701C197.127 201.422 197.195 201.147 197.328 200.901C197.359 201.409 197.527 201.898 197.814 202.317C197.665 202.246 197.528 202.151 197.411 202.035C197.411 202.035 197.611 208.435 198.704 211.744C198.887 211.53 199.049 211.3 199.19 211.056C199.19 210.856 199.11 212.837 198.907 214.256C198.624 215.672 198.827 217.653 198.827 217.653C199.556 217.079 200.358 216.603 201.211 216.237C202.424 215.749 204.411 214.253 205.622 210.936C206.324 209.057 206.865 207.122 207.24 205.152C207.631 205.905 207.901 206.715 208.04 207.552C208.123 208.563 210.024 208.037 210.024 208.037L210.43 203.627L212.83 193.635L215.014 187.445L225.531 171.064L244.534 156.429L261.12 160.232L275.115 141.219L251.006 126.736L228.19 129.123L207.483 157.803L190.899 183.816L187.904 188.104V188.107Z" fill="#D8B65B"/>
<path fill-rule="evenodd" clip-rule="evenodd" d="M307.403 146.603C307.403 146.603 305.987 146.885 301.901 149.003C297.816 151.12 294.984 151.792 293.405 154.907C291.827 158.021 291.707 160.491 291.707 160.491C291.707 160.491 294.499 159.277 296.117 158.872C297.816 158.469 299.717 158.589 299.515 159.277C299.32 159.749 299.05 160.186 298.715 160.571C298.715 160.571 301.915 160.491 301.829 162.069C301.744 163.648 301.224 165.387 300.619 166.155C300.011 166.955 297.504 168.139 297.221 169.069C296.533 170.971 297.504 171.051 297.139 172.587C296.856 174.085 295.523 176.997 291.152 182.093C286.661 187.192 284.752 190.792 284.752 190.792C284.752 190.792 282.568 186.707 281.435 183.187C280.635 183.589 276.339 185.976 276.339 185.976L266.387 151.309L266.587 149.003C266.587 149.003 267.477 147.912 267.68 145.888C266.184 145.403 265.981 144.997 263.997 143.099C262.013 141.2 260.397 138.891 257.083 137.312C256.597 136.421 255.989 135.211 253.563 134.723C251.136 134.235 249.68 133.835 249.68 133.835C249.68 133.835 250.973 133.347 251.581 132.336C250.083 132.539 248.872 133.024 245.595 132.944C242.277 132.861 241.912 132.741 240.093 133.024C238.275 133.307 236.093 134.117 235.28 131.325C234.389 130.637 232.488 131.245 230.869 133.629C229.251 136.013 228.685 137.917 225.571 138.848C225.352 140.221 224.871 141.539 224.155 142.731C223.264 144.229 221.848 145.725 219.947 147.949C216.952 151.469 217.437 157.253 212.664 161.664C207.851 166.072 213.464 149.445 213.464 149.445L221.149 131.045L243.035 109.645L277.016 107.341L280.333 124.941L296.92 130.645L307.397 146.624L307.403 146.603Z" fill="#D3AE4D"/>
<path fill-rule="evenodd" clip-rule="evenodd" d="M312.784 150.486L298.504 129.896L288.512 122.208C288.512 122.208 281.392 109.104 280.906 108.699C280.501 108.416 273.786 107.688 269.498 107.406L270.298 109.387C271.234 109.691 272.066 110.252 272.698 111.006C274.6 113.19 275.813 117.315 271.485 121.726C273.184 122.331 273.885 122.526 275.368 122.331C273.872 124.112 270.474 127.915 270.272 131.232C270.069 133.942 271.768 134.75 271.768 134.75C271.768 134.75 269.178 137.744 269.058 142.75C270.281 141.371 271.619 140.098 273.058 138.947C276.053 136.547 280.178 133.848 282.97 132.15C282.932 132.862 283.028 133.576 283.253 134.254C283.253 134.254 288.469 129.966 292.853 131.867C294.834 132.758 293.944 135.55 293.944 135.55C293.944 135.55 296.656 134.539 298.557 136.44C300.458 138.342 303.168 143.235 304.544 145.139C305.149 146.03 306.728 147.728 308.344 150.355C310.552 154.037 312.395 157.925 313.848 161.966C313.928 160.347 314.253 158.083 317.048 158.083L312.8 150.478L312.784 150.486Z" fill="#CAA13E"/>
<path fill-rule="evenodd" clip-rule="evenodd" d="M98.7068 208.981C98.7068 208.981 97.6961 206.472 98.7068 201.579C99.7174 196.685 101.296 194.379 101.821 187.179C102.347 179.979 107.04 170.997 107.04 170.997L120.024 165.093L129.208 167.6L131.917 179.899L120.307 186.299C120.307 186.299 119.701 189.008 116.424 191.192C113.147 193.376 108.616 195.075 107.525 197.301C106.873 198.665 106.398 200.106 106.109 201.589C106.109 201.589 102.792 200.901 100.811 203.085C98.7068 205.312 98.7868 207.293 98.7068 208.992V208.981Z" fill="#F4EFC8"/>
<path fill-rule="evenodd" clip-rule="evenodd" d="M124.92 205.704C124.92 205.704 123.827 206.392 123.019 208.104C122.219 206.811 120.307 199.123 120.227 192.205C120.147 185.288 119.733 183.573 121.333 181.189C122.933 178.805 129.208 176.293 128.317 172C127.427 167.915 123.704 166.216 119.133 167.389C115.933 168.189 113.552 174.995 110.235 178.392C107.725 180.981 104.733 180.576 103.925 181.992C102.832 183.893 103.843 185.795 103.52 187.008C103.437 187.413 102.427 189.597 100.605 192.227C96.9255 197.525 90.6962 205.011 89.8855 211.725C90.1682 207.923 89.9682 207.843 90.9788 203.635L90.3708 202.624L94.3708 189.517L96.9602 178.717L102.747 160.632L112.939 142.147L122.851 131.061L133.165 131.749L134.379 147.243L140.285 176.331L152.704 191.621L132.8 205.016L124.912 205.704H124.92Z" fill="#EBCC73"/>
<path fill-rule="evenodd" clip-rule="evenodd" d="M131.109 211.2C131.109 211.2 129.411 211.606 128.803 211.283C128.195 210.96 127.592 210.595 127.792 210.19C127.992 209.784 129.085 209.099 129.085 208.774C129.108 208.48 129.015 208.188 128.826 207.962C128.637 207.735 128.368 207.591 128.075 207.56C127.144 207.44 126.861 208.045 126.861 208.045C126.861 208.045 125.971 207.36 125.245 207.245C125.674 207.193 126.106 207.165 126.539 207.163C125.421 206.656 124.235 206.316 123.019 206.152C124.029 205.547 126.013 203.765 127.307 203.765C128.6 203.765 129.411 203.565 129.208 202.877C129.005 202.189 127.995 201.179 126.904 200.774C127.307 200.288 127.592 199.56 126.621 197.574C125.608 195.592 126.013 194.256 126.339 193.774C126.621 193.166 127.632 192.075 128.117 191.387C128.603 190.699 129.008 189.768 129.816 189.283C130.221 189 131.515 188.483 132.811 187.99C134.227 187.504 135.4 186.896 136.208 187.504C137.099 188.11 136.693 188.92 136.693 188.92C136.693 188.92 139.485 187.907 141.992 189.203C144.501 190.414 150.611 191.184 150.611 191.184L152.8 195.595L138.317 208.013L132.331 211.008L131.117 211.208L131.109 211.2Z" fill="#E5C66B"/>
<path fill-rule="evenodd" clip-rule="evenodd" d="M151.213 190.899C151.213 190.899 146.723 193.893 145.712 194.984C146.317 195.067 147.328 195.472 146.923 196.077C146.438 196.683 143.526 198.787 141.907 200.771C140.208 202.752 138.59 205.261 138.024 206.475C137.419 207.565 132.805 210.763 131.229 211.165C134.547 211.165 141.221 207.08 143.728 207.08C143.648 208.293 144.416 209.669 145.832 209.789C147.248 209.909 151.333 210.68 156.835 207.283C162.336 203.965 160.517 201.496 162.821 199.88C167.232 196.965 169.011 194.376 171.437 192.76C173.864 191.144 175.12 190.776 175.12 190.776C175.12 190.776 175.2 189.563 175.92 189.685C176.117 189.708 176.304 189.784 176.461 189.905C176.618 190.026 176.739 190.188 176.811 190.373C176.811 190.373 181.019 187.379 186.411 186.571C186.285 186.514 186.184 186.414 186.128 186.288C186.128 186.288 186.531 186.085 186.613 185.883C186.613 185.883 186.896 185.477 187.099 185.68C187.301 185.883 187.584 187.379 187.989 187.987C188.88 187.581 190.579 183.779 190.579 183.779L194.667 172.088V161.408L191.467 162.016L167.467 172.208L152.901 187.299L151.203 190.899H151.213Z" fill="#E6BD62"/>
<path fill-rule="evenodd" clip-rule="evenodd" d="M220.307 138.512C221.605 138.197 222.849 137.692 224 137.013C223.515 138.309 223.515 139.725 221.411 142.8C219.307 145.875 219.227 146.32 217.528 149.515C215.829 152.832 215.627 157.605 214.008 159.707C214.734 159.354 215.512 159.123 216.312 159.021C216.312 159.021 214.696 160.437 214.008 161.933C213.32 163.429 212.107 166.544 209.115 168.448C206.123 170.352 202.317 171.563 198.232 176.053C194.144 180.461 189.939 186.045 187.832 188.053C188.925 186.152 190.421 182.349 190.827 179.843C191.232 177.336 190.744 174.339 191.432 171.024C192.12 167.709 192.12 165.32 195.432 159.533C198.744 153.747 204.413 133.643 204.413 133.643L216.629 129.76L220.312 138.499L220.307 138.512Z" fill="#B6933F"/>
<path fill-rule="evenodd" clip-rule="evenodd" d="M211.488 131.109C211.488 131.109 207.808 136.408 206.797 141.101C205.786 145.795 206.714 145.389 206.109 147.696C205.747 149.102 205.747 150.577 206.109 151.984C207.383 149.931 209.128 148.21 211.2 146.965C214.68 144.864 217.512 143.365 219.2 141.587C220.898 139.685 222.314 136.571 225.994 134.184C224.498 133.981 222.394 133.293 221.994 133.384C223.493 131.685 227.981 129.096 232.512 125.981C237.002 122.781 236.72 121.491 244.002 118.296C241.616 118.701 240.482 118.093 238.498 118.296C239.298 116.597 242.098 115.787 244.898 112.997C247.698 110.208 243.12 106.08 243.12 106.08L221.786 118.984L211.472 131.12L211.488 131.109Z" fill="#C49937"/>
<path fill-rule="evenodd" clip-rule="evenodd" d="M153.6 121.48L154.085 117.597L160.195 107.808L166.587 90.616V67.112L166.101 53.52L167.112 44.6187L167.88 41.7894L168.691 40.696L173.907 43.4054L181.109 53.1947L181.797 72.088L174.797 101.901L154.813 123.707L153.6 121.48Z" fill="#DFC068"/>
<path fill-rule="evenodd" clip-rule="evenodd" d="M169.498 39.6027C169.498 39.6027 166.298 39.6854 165.616 52.9947C164.933 66.304 164.602 73.3014 164.117 79.896C163.632 86.4907 162.501 90.4934 161.933 94.3787C161.365 98.264 161.042 103.56 159.224 106.797C158.424 108.293 156.714 112.987 152.709 116.507C148.218 120.389 141.509 123.101 140.493 123.304C138.712 123.707 129.69 124.597 126.01 126.621C124.717 127.309 122.49 128.117 120.024 130.424C115.128 134.832 108.616 142.72 103.922 152.227C96.7225 166.427 89.5225 206.515 89.5225 206.515L91.1411 203.805C91.1411 203.805 91.3438 200.205 94.9438 193.893C98.4638 187.584 97.4531 180.504 102.346 168.408C104.248 163.797 106.634 157.811 109.546 152.712C114.16 144.419 119.741 137.299 125.365 133.416C134.546 127.107 144.661 125.731 144.661 125.731L155.544 118.531C155.544 118.531 157.445 114.851 159.954 110.643C163.472 104.739 167.954 98.144 168.933 88.5574C170.432 74.3574 166.829 65.0534 167.032 56.64C167.234 48.2267 167.314 42.0374 169.016 40.5387C170.717 39.04 169.501 39.608 169.501 39.608L169.498 39.6027Z" fill="#A88F33"/>
<path fill-rule="evenodd" clip-rule="evenodd" d="M169.499 103.115C169.499 103.115 174.299 91.3014 176.496 80.824C176.901 78.72 177.709 76.6187 177.912 74.92C178.923 65.008 179.205 60.9227 177.912 55.5014C176.901 51.5014 173.019 47.896 170.995 45.1014C169.013 42.1867 168.083 41.1014 168.488 40.488C168.893 39.8747 170.469 38.872 172.005 38.992C173.638 39.0396 175.244 39.4187 176.726 40.1063C178.207 40.794 179.534 41.7758 180.624 42.992C183.739 46.592 186.205 58.8107 186.205 58.8107L188.8 74.9334L195.395 95.24L169.504 103.131L169.499 103.115Z" fill="#C99E3D"/>
<path fill-rule="evenodd" clip-rule="evenodd" d="M214.602 90.8187C214.602 90.8187 213.712 91.2214 212.096 90.8187C212.165 91.4791 212.05 92.1457 211.764 92.7451C211.479 93.3445 211.033 93.8535 210.477 94.216C208.778 93.528 192.877 94.904 192.877 94.904C192.877 94.904 185.474 93.608 183.168 83.8187C181.552 77.304 184.381 68.3254 183.45 62.4187C182.034 53.72 180.053 52.0187 179.85 49.312C179.648 46.6054 179.445 45.9147 179.445 44.216C178.554 44.0134 178.029 43.7307 177.141 43.7307C176.938 42.9307 177.341 42.232 176.453 40.816C176.938 41.0187 180.256 41.424 184.138 45.104C187.338 48.0987 187.338 49.1894 187.821 49.7974C188.426 50.4027 193.322 54.5974 195.426 58.7787C197.53 62.96 201.616 76.2934 202.546 78.4774C202.829 79.368 203.437 80.2587 204.946 82.28C207.293 85.1947 210.73 90.0134 214.613 90.8134L214.602 90.8187Z" fill="#B58634"/>
<path fill-rule="evenodd" clip-rule="evenodd" d="M188.392 50.0001C190.843 53.9588 193.044 58.0663 194.984 62.2988C197.371 67.6775 198.787 72.0881 201.781 75.6881C200.163 70.9975 197.291 61.7735 195.592 58.4961C193.691 55.0295 189.808 51.2961 188.392 50.0028V50.0001Z" fill="#A88F33"/>
<path fill-rule="evenodd" clip-rule="evenodd" d="M160.883 116.507C160.883 116.507 156.798 117.517 149.192 121.523C146.683 122.816 144.299 123.907 141.992 124.92C136 127.629 129.574 130.133 124.475 131.515C124.88 132 125.08 132.2 125.08 132.2C125.08 132.2 125.08 134.184 126.174 135.315C125.568 135.923 117.475 141.424 119.864 159.829C121.48 159.224 123.382 158.413 123.664 158.413C124.152 158.496 124.272 159.829 124.878 159.829C125.483 159.829 127.467 159.029 129.571 156.309C129.491 157.403 128.278 168.405 134.79 175.808C136.003 174.392 139.078 169.699 139.078 169.699L139.158 168.203C139.158 168.203 139.44 162.984 141.142 158.211C142.843 153.437 146.158 149.917 146.158 149.917L163.467 125.2L160.878 116.504L160.883 116.507Z" fill="#E6C367"/>
<path fill-rule="evenodd" clip-rule="evenodd" d="M144.701 152.8C143.909 153.36 143.036 153.796 142.112 154.093C141.829 153.083 141.424 149.603 143.81 146.205C146.602 142.117 152.709 136.819 154.408 132.605C155.501 129.893 155.016 123.099 164.725 114.4C174.434 105.701 178.234 102.709 178.234 102.709L193.93 94.8212L213.226 102.427L203.64 140L196.197 157.6L166.597 152.019L144.698 152.8H144.701Z" fill="#DCBA5A"/>
<path fill-rule="evenodd" clip-rule="evenodd" d="M156 142.597L159.683 137.987V134.709C159.683 134.709 163.768 133.616 168.176 129.125C172.584 124.635 178.693 116.019 184.075 116.544C189.456 117.152 189.981 128.235 190.184 131.352C190.387 134.469 191.075 141.544 192.165 145.349C193.379 149.152 179.059 163.552 179.059 163.552L169.333 170.955L156 142.597Z" fill="#E9CE77"/>
<path fill-rule="evenodd" clip-rule="evenodd" d="M167.395 180.987C167.395 180.987 170.389 176.293 168.195 175.283C169.488 172.371 171.875 169.296 171.875 169.296C171.875 169.296 173.573 165.091 179.075 159.912C184.576 154.733 187.976 151.293 188.867 147.816C189.416 145.55 189.714 143.23 189.757 140.899C190.352 141.385 190.988 141.817 191.659 142.192C192.549 142.597 196.755 146.075 196.149 153.075C195.544 160.075 192.949 162.987 192.949 162.987C192.949 162.987 190.443 165.493 188.664 166.789C186.76 168.083 186.075 169.579 182.877 169.701C183.206 169.44 183.575 169.235 183.971 169.093C183.971 169.093 180.653 168.691 178.872 170.307C177.091 171.923 173.304 176.901 171.403 178.4C169.501 179.613 167.403 180.989 167.403 180.989L167.395 180.987Z" fill="#CDAE50"/>
<path fill-rule="evenodd" clip-rule="evenodd" d="M301.901 102.304C297.122 100.562 292.099 99.5795 287.016 99.3919C278.52 99.1092 266.101 99.5945 253.925 99.6745C240.819 99.7545 228.925 95.1839 212.421 94.3759C209.712 92.7572 202.821 85.6772 181.312 100.685C182.605 100.605 196.928 97.3679 201.901 103.6C206.917 109.789 205.501 120.307 204.816 122.813C203.52 128.397 199.312 136.528 197.616 142.232C195.92 147.936 196.32 150.933 195.107 154.933C193.893 158.933 191.224 160.92 192.8 165.531C194.904 164.237 196 164.237 199.515 156.349C203.029 148.461 202.307 142.837 208.133 136.163C213.837 129.448 223.333 120.264 226.944 117.957C230.555 115.651 259.224 100.765 289.243 114.965C296.483 114.197 301.904 102.301 301.904 102.301L301.901 102.304Z" fill="#D2A83E"/>
<path fill-rule="evenodd" clip-rule="evenodd" d="M193.405 96.8002C193.375 96.4962 193.308 96.1971 193.205 95.9096C192.924 95.318 192.556 94.7722 192.112 94.2909C192.112 94.2909 184.992 92.9975 181.392 93.4002C175.08 94.0882 169.376 101.896 166.706 105.902C164.037 109.907 160.72 116.094 157.12 119.291C157.159 118.979 157.087 118.664 156.917 118.4C156.917 118.4 157.12 118.683 156.717 119.088C156.314 119.494 156.312 119.694 156.514 119.888L157.122 120.494C157.322 120.494 162.906 117.984 170.512 110.894C178.602 103.491 184.792 99.6936 188.029 98.3922C189.756 97.6585 191.56 97.1244 193.408 96.8002V96.8002H193.405Z" fill="#C29637"/>
<path fill-rule="evenodd" clip-rule="evenodd" d="M331.515 66.384C331.515 66.384 330.219 68 328.6 69.7814C325 73.584 320.307 77.8694 316.302 82.28C312.502 86.488 308.214 89.7654 303.398 95.2667C298.582 100.768 292.998 106.875 291.584 108.656C290.291 110.437 289.28 113.349 289.28 114.845C288.592 114.36 287.784 113.835 287.784 113.835C288.124 114.47 288.531 115.067 288.998 115.616C290.008 117.032 291.584 118.816 292.395 119.904C293.389 121.289 294.103 122.855 294.496 124.515C294.982 124.595 298.096 125.203 301.982 118.811C305.867 112.419 310.96 105.421 310.96 105.421L319.051 93.4054L324.15 83.2134L330.55 71.8054L331.523 66.384H331.515Z" fill="#AC8132"/>
<path fill-rule="evenodd" clip-rule="evenodd" d="M339.808 58.2134C339.808 58.2134 334.912 62.2134 333.011 64.6134C331.11 67.0134 326.611 73.312 326.611 73.312L328.229 73.1094L336.443 65.8294L339.643 60.1254L339.806 58.224L339.808 58.2134Z" fill="#A88F33"/>
<path fill-rule="evenodd" clip-rule="evenodd" d="M338.31 379.693C338.31 379.693 338.23 376.376 340.091 374.395C341.992 372.411 346.806 369.499 351.499 358.576C356.192 347.653 356.715 345.187 356.715 345.187C356.715 345.187 348.302 352.387 343.115 354.085C344.328 351.576 345.016 349.797 345.624 348.501C344.936 347.896 342.024 347.208 341.742 346.885C343.358 345.267 344.248 341.301 347.526 338.672C351.734 335.472 359.419 329.973 365.392 325.072C371.366 320.171 383.11 308.771 384.608 305.453C385.499 306.747 385.699 307.555 385.699 307.555C385.699 307.555 379.795 315.243 376.72 320.136C374.008 324.344 374.211 326.731 374.211 326.731L379.795 324.331C379.795 324.331 381.411 330.317 374.091 339.421C377.291 338.208 378.582 338.936 380.4 337.923C377.406 339.827 373.28 342.416 369.398 349.533C365.595 356.653 360.416 364.947 351.68 370.123C343.184 375.584 338.288 379.669 338.288 379.669L338.31 379.693Z" fill="#A67A2E"/>
<path fill-rule="evenodd" clip-rule="evenodd" d="M316.384 106.514C316.384 106.514 313.067 113.429 312.581 118.81C312.501 120.106 312.176 121.117 312.176 122.613C312.096 127.426 312.459 132.808 311.376 135.314C310.971 134.304 310.768 133.616 310.363 133.213C309.757 134.912 308.664 140.21 307.773 142.192C307.371 140.898 306.48 136.408 306.563 131.109C306.645 125.81 306.763 124.797 306.763 123.706C306.563 125.322 305.469 127.509 305.064 128.802C304.459 127.712 303.771 126.296 302.96 125.122C302.475 125.922 301.869 127.104 301.344 127.712C301.261 127.226 301.061 125.93 300.939 124.112C300.859 122.008 300.736 119.298 300.859 118.73C301.059 117.64 302.76 113.352 306.36 109.426C310.648 104.733 315.059 95.7145 316.352 92.9225C317.645 90.1305 323.147 78.5225 323.147 78.5225H327.355L321.245 92.4371C321.245 92.4371 317.565 100.042 315.664 102.837C313.763 105.632 309.757 113.64 307.976 116.754C309.269 115.056 310.363 114.165 311.659 112.546C312.912 111.413 316.389 106.52 316.389 106.52L316.384 106.514Z" fill="#8C6228"/>
<path fill-rule="evenodd" clip-rule="evenodd" d="M339.888 57.6855C339.2 59.8011 338.114 61.7654 336.688 63.4722C334.178 66.4669 328.797 70.4695 326.17 73.6642C323.77 76.7789 318.97 85.2749 321.152 95.3469C321.952 93.1629 323.458 88.8349 327.464 83.9389C331.469 79.0429 335.757 73.4215 337.864 69.0535C339.965 64.6429 340.248 61.1655 340.248 61.1655L341.048 60.1549L340.562 57.8482L339.875 57.6855H339.888Z" fill="#CBA94C"/>
<path fill-rule="evenodd" clip-rule="evenodd" d="M421.805 326.01C421.805 326.01 420.187 321.602 419.701 317.597C419.216 313.592 420.501 312.797 419.013 308.213C418.123 305.421 416.507 305.813 416.101 305.421C415.696 305.029 415.413 300.81 415.493 298.504C415.573 296.197 415.413 293.205 415.008 291.909C414.403 291.424 413.997 291.018 413.107 288.026C412.096 285.032 411.611 283.536 411.125 282.648C410.64 281.76 409.221 280.949 409.221 280.058C409.221 278.277 410.84 277.349 410.84 276.858C410.76 275.848 409.547 276.658 409.221 276.373C408.819 275.888 410.235 272.976 409.709 272.57C409.507 272.37 408.091 274.069 407.725 273.584C407.32 273.096 406.835 268.282 406.107 265.088C405.421 261.973 404.691 259.709 404.611 258.778C404.531 257.888 399.027 242.192 397.693 238.389C396.619 235.176 395.714 231.908 394.984 228.6C394.579 226.698 394.296 222.813 394.093 223.218C393.891 223.624 394.013 225.605 393.688 225.525C393.405 225.442 392.395 218.528 392.072 217.434C391.789 216.341 390.088 212.634 389.672 209.952C389.267 207.24 388.379 200.16 387.771 195.346C387.163 190.533 386.88 188.552 386.88 187.346C386.979 184.398 386.817 181.447 386.395 178.528C385.595 173.429 383.995 167.24 382.592 163.642C379.883 156.845 372.68 139.45 371.392 135.122C371.392 134.029 372.808 134.637 372.808 134.637C372.808 134.637 376.325 143.456 378.915 150.25C381.424 157.048 383.811 163.034 384.419 163.642C384.904 164.248 388.707 170.922 390.405 181.845C392.104 192.768 392.709 202.84 393.723 209.554C394.208 212.754 394.613 216.149 395.624 219.546C396.715 223.229 398.413 227.032 400.64 232.856C402.541 237.752 403.957 241.837 404.725 245.357C405.616 249.848 405.616 253.245 406.141 255.472C406.629 257.373 407.355 261.173 409.056 266.672C410.757 272.17 413.261 279.253 414.96 283.661C418.28 292.48 419.76 299.842 420.261 303.768C420.704 307.813 422.203 321.81 421.797 326.016L421.805 326.01Z" fill="#A88F33"/>
<path fill-rule="evenodd" clip-rule="evenodd" d="M340.091 57.1998L339.888 57.6851C339.888 57.6851 340.493 57.8878 340.373 58.6985C340.382 59.8076 340.314 60.916 340.171 62.0158C339.971 63.4318 339.565 64.5225 339.485 65.4131C339.485 67.3145 339.768 69.4985 337.085 74.9198C336.285 76.4158 335.792 77.7091 335.387 78.5998C334.376 80.7838 334.173 81.1091 333.283 82.1198C334.699 81.3198 339.797 78.1198 342.384 78.5998C340.605 79.6105 337.893 81.5945 336.195 84.1838C336.6 84.2638 338.299 84.5891 340.995 84.1838C345.485 83.4958 350.501 81.8771 354.909 82.1998C359.725 82.4825 357.824 76.4158 357.824 76.4158L352.267 64.1998L341.749 56.7998L340.091 57.2025V57.1998Z" fill="#BE9C44"/>
<path fill-rule="evenodd" clip-rule="evenodd" d="M367.518 148.707C367.518 148.707 362.824 144.013 360.923 127.907C359.022 111.725 359.427 87.9065 359.427 87.9065L355.624 78.6025C355.624 78.6025 354.824 72.4132 352.832 70.1092C350.84 67.8052 346.928 63.9199 345.147 62.0185C343.366 60.1172 341.344 57.5279 340.131 57.1225C340.736 56.1119 343.448 50.4078 353.843 50.3278C364.238 50.2478 367.443 56.0318 368.528 58.1358C369.614 60.2398 374.515 69.3359 376.334 86.6692C378.032 103.981 378.115 105.277 377.832 111.264C377.63 114.581 376.536 122.267 374.632 130.477C372.894 137.437 370.992 145.205 367.512 148.723L367.518 148.707Z" fill="#A17C34"/>
<path fill-rule="evenodd" clip-rule="evenodd" d="M352.8 162.501C354.364 162.614 355.927 162.262 357.291 161.488C358.787 161.408 364.208 162.096 368.373 156.797C368.656 158.008 369.387 161.288 367.483 164.2C368.496 163.187 369.992 162.784 370.195 162.501C370.275 163.997 371.691 168.608 365.704 179.813C367.32 178.035 369.221 178.115 370.92 177.912C371.003 180.016 372.133 187.093 369.141 190.899C367.16 193.488 363.923 192.677 363.923 192.677C363.97 192.112 363.97 191.544 363.923 190.979C363.843 189.885 363.437 188.795 363.723 188.067C362.158 187.352 360.733 186.365 359.515 185.152C355.995 181.835 351.424 176.173 351.101 171.965C350.696 167.272 354.904 166.261 354.904 166.261C354.551 165.946 354.251 165.577 354.013 165.168C353.811 164.483 353.608 163.389 352.8 162.501V162.501Z" fill="#8C6228"/>
<path fill-rule="evenodd" clip-rule="evenodd" d="M321.6 111.611C321.6 111.611 321.398 111.328 320.307 112.622C320.51 111.328 320.712 110.112 320.792 108.939C321.308 107.853 321.976 106.845 322.776 105.947C322.168 107.158 321.763 108.251 321.763 108.251C321.763 108.251 323.262 105.459 325.446 103.76C326.942 102.547 328.843 101.982 329.651 100.848C330.542 99.6349 330.339 99.4322 330.542 99.2296C330.542 99.2296 332.526 97.9362 335.56 94.1309C335.963 93.6456 336.571 93.1202 336.976 92.6349C337.662 92.3522 339.28 91.6242 341.182 90.6509C343.166 89.5602 345.39 88.0642 346.766 87.4509C349.475 86.2376 352.35 86.3602 353.683 84.4562C354.694 84.1736 355.784 81.1389 355.584 78.5522C357.08 79.1576 364.766 83.9309 367.398 94.3682C369.299 101.771 365.899 113.179 364.483 118.683C363.067 124.187 362.867 128.27 360.883 130.776C358.374 134.096 350.286 138.776 348.302 141.094C346.603 142.995 341.507 147.808 341.707 151.286C341.91 153.875 345.104 155.286 345.795 155.776C346.486 156.267 346.48 156.87 347.776 156.576C349.072 156.283 349.555 155.686 350.083 155.686C350.688 155.766 350.688 155.888 350.971 155.888C351.176 155.882 351.38 155.854 351.579 155.806C351.579 155.806 351.376 159.488 342.76 160.606C342.152 160.688 341.547 160.888 340.776 161.011C341.79 160.526 342.395 160.526 343.488 159.03C342.275 158.827 338.795 158.624 337.904 158.342C338.187 157.856 339.118 156.56 339.886 155.955C340.574 155.35 339.806 155.155 339.2 155.47C338.158 156.179 337.158 156.948 336.206 157.774C335.195 158.664 334.304 159.878 332.686 160.974C332.2 159.355 332.28 156.28 334.184 154.056C333.696 154.136 332.766 155.552 331.878 155.27C331.717 153.794 331.813 152.302 332.16 150.859C332.646 149.038 335.275 145.843 335.275 145.843L347.976 123.147L350.686 105.955L321.6 111.606V111.611Z" fill="#92723A"/>
<path fill-rule="evenodd" clip-rule="evenodd" d="M320.915 112.581C320.915 112.581 320.227 113.067 321.603 113.997C321.4 114.28 320.915 115.291 320.307 115.979C319.621 116.779 318.891 117.275 318.608 117.963C318.003 119.379 317.517 120.349 317.517 120.957C317.517 121.565 317.315 125.448 315.616 127.955C315.008 128.845 314.32 130.341 313.835 131.352C312.824 133.131 311.933 134.552 311.731 135.352C311.328 136.768 311.045 140.651 311.045 140.651C311.045 140.651 311.936 139.557 312.259 139.155C311.771 140.165 311.245 141.256 310.477 142.067C310.963 141.661 312.379 140.651 314.765 138.547C318.083 135.757 323.261 131.064 329.573 127.347C327.669 128.035 326.053 128.035 324.76 128.237C325.771 127.227 334.872 116.547 339.645 115.536C339.935 115.169 340.079 114.707 340.051 114.24L335.963 113.837L327.669 115.616L326.459 109.216L320.915 112.573V112.581Z" fill="#B18E3E"/>
<path fill-rule="evenodd" clip-rule="evenodd" d="M334.104 148.989C334.104 148.989 333.011 150.08 332 152.792C331.222 151.98 330.555 151.068 330.016 150.08C328.52 147.573 326.216 144.376 320.835 146.197C320.755 144.499 320.632 143.608 320.835 142.395C321.725 142.195 324.435 140.011 327.144 136.813C329.048 134.629 330.827 132.12 332.04 128.925C332.84 128.317 334.224 127.307 336.04 126.133C338.629 124.355 341.744 121.925 342.229 119.216C341.016 119.701 338.427 120.915 334.541 120.715C336.04 120.027 338.344 119.299 338.061 116.304C338.669 115.899 339.155 115.616 339.155 115.616C338.699 115.464 338.219 115.395 337.739 115.413C337.656 115.131 337.536 114.728 336.848 114.928C336.16 115.128 336.048 115.131 335.957 115.413C335.675 115.496 334.744 115.413 334.056 115.901C333.368 116.389 331.467 118.003 330.739 118.285C331.021 117.8 331.424 117.075 331.424 117.075C331.424 117.075 329.443 117.275 328.027 117.875C325.437 118.765 322.445 120.384 319.411 121.96C319.693 121.475 319.816 121.16 320.016 121.069C320.216 120.979 320.704 120.869 320.704 120.787C320.704 120.704 320.504 119.987 320.624 119.696C321.531 117.774 322.602 115.934 323.824 114.195C325.24 112.291 325.523 109.581 325.523 109.581L331.712 106.467L349.107 102.467L360.395 103.155L358.979 110.963L352.312 124.595L346.608 137.013L340.093 144.621L334.107 148.989H334.104Z" fill="#543E26"/>
<path fill-rule="evenodd" clip-rule="evenodd" d="M362.298 115.2C362.298 115.2 355.501 123.614 353.6 124.91C354.813 122.32 362.298 106.907 365.008 102.619C364.402 102.134 363.592 102.134 365.493 94.6189C363.877 98.4189 363.309 100.403 361.976 101.414C360.642 102.424 360.477 102.102 359.576 102.102C359.746 101.794 359.816 101.44 359.776 101.091C359.776 101.091 354.072 100.403 350.176 100.403C346.28 100.403 338.568 102.507 334.277 104.206C330.88 105.622 328.978 105.622 327.765 106.51C326.552 107.52 325.864 108.614 325.256 108.896C324.77 109.179 322.466 109.907 321.938 110.675C321.453 111.475 320.645 112.374 320.645 112.576C320.645 112.779 320.442 113.064 321.05 112.859C321.25 112.779 322.749 111.968 324.448 110.958C326.752 109.664 329.544 108.168 331.568 107.278C337.352 104.971 339.173 105.376 341.76 104.891C344.469 104.406 348.354 103.272 350.941 103.272C353.53 103.192 358.426 103.272 359.56 103.475C359.074 103.88 358.669 104.366 358.872 106.064C358.872 106.55 358.466 107.075 358.072 108.248C356.861 111.566 354.554 117.067 353.272 119.859C351.493 123.659 349.472 126.856 348.472 128.838C347.472 130.819 345.272 136.038 343.093 138.83C340.914 141.622 339.776 143.32 339.093 143.928C338.41 144.536 333.509 148.134 333.874 149.43C334.765 149.147 340.389 147.03 344.472 142.432C348.554 137.835 349.368 135.03 352.562 132.52C355.757 130.011 358.266 125.806 359.762 122.328C361.016 119.091 360.733 118.08 362.309 115.208L362.298 115.2Z" fill="#806031"/>
<path fill-rule="evenodd" clip-rule="evenodd" d="M215.818 177.995C215.818 177.995 214.928 181.675 212.904 183.496C210.922 185.277 207.402 186.813 207 189.808C206.514 192.8 210.52 194.299 210.52 194.299C210.52 194.299 208.333 197.899 208.333 200.608C208.333 203.4 208.253 203.925 208.536 206.595C208.215 206.801 207.942 207.074 207.736 207.395C207.736 207.395 207.936 209.984 209.92 211.6C211.904 213.216 213.6 214.189 214.61 213.784C214.765 214.114 214.9 214.452 215.016 214.797C215.016 214.797 216.514 210.995 217.525 207.677C218.536 204.28 219.426 204.763 219.829 200.192C220.232 195.621 224.629 187.773 224.629 187.773L227.629 181.067L222.736 177.264L215.818 177.992V177.995Z" fill="#B6903C"/>
<path fill-rule="evenodd" clip-rule="evenodd" d="M224.92 184.587C223.911 185.623 222.979 186.731 222.133 187.904C220.84 189.685 219.829 191.301 217.928 191.992C216.027 192.683 214.813 192.677 214.933 194.581C215.053 196.485 216.835 197.291 217.845 198.261C218.939 199.272 219.829 200.971 219.344 202.875C219.949 202.592 221.043 202.267 222.053 200.083C223.064 197.899 230.133 184.589 230.133 184.589H224.92V184.587Z" fill="#685026"/>
<path fill-rule="evenodd" clip-rule="evenodd" d="M252.8 153.883C252.8 153.883 253.405 152.267 252.8 151.093C252.192 149.88 248.512 149.475 246.691 148.099C244.789 146.683 242.483 145.699 240.581 146.32C240.864 145.632 241.997 144.133 241.067 143.811C240.176 143.528 236.861 145.024 235.971 145.712C235.08 146.4 233.056 147.208 232.653 147.696C232.251 148.184 231.56 149.112 231.155 148.707C230.749 148.424 230.549 147.696 229.861 148.099C229.173 148.501 225.861 151.213 225.251 152.792C224.64 154.371 223.267 157.891 219.141 161.893C215.016 165.896 213.235 168.488 214.448 169.984C215.661 171.48 216.229 170.389 216.432 171.683C216.588 172.952 216.519 174.239 216.229 175.485C215.744 177.589 214.936 179.571 216.027 179.976C218.819 180.867 221.531 179.176 222.136 179.693C223.349 180.784 221.448 184.709 224.32 185.477C227.235 186.277 230.107 184.789 230.107 184.789L240.704 179.085L250.899 173.707L256.115 163.389L253.317 154.773L252.784 153.883H252.8Z" fill="#D4B968"/>
<path fill-rule="evenodd" clip-rule="evenodd" d="M242.8 178.52C242.8 178.52 241.018 175.811 243.205 173.421C245.392 171.032 248.504 170.024 249.717 168.528C249.486 168.243 249.176 168.033 248.826 167.923C249.632 166.481 250.861 165.323 252.346 164.603C251.741 163.997 250.93 163.512 250.042 163.512C248.058 163.512 246.842 164.725 245.024 164.725C243.245 164.725 243.042 163.835 243.042 163.835C243.042 163.835 246.037 163.552 245.752 162.216C245.469 160.8 244.952 160.8 244.952 160.8C244.952 160.8 250.736 158.4 251.746 157.12C252.757 155.84 252.637 154.328 252.84 153.723C253.525 153.723 257.53 151.619 259.149 152.509C260.768 153.4 259.634 155.827 259.634 155.827C259.634 155.827 264.533 152.144 267.029 148.533C269.213 148.736 270.229 147.037 271.829 147.037C273.813 147.037 276.928 149.747 277.533 155.531C277.938 158.848 278.544 160.749 277.938 166.616C277.656 169.933 277.736 177.016 278.738 180.531C279.424 183.323 281.042 183.04 281.042 183.04C280.794 183.891 280.302 184.65 279.626 185.224C278.533 186.235 278.413 188.907 278.533 189.917C278.694 190.656 278.897 191.385 279.141 192.101C279.141 192.101 277.848 193.597 277.522 194.611C277.24 195.621 275.906 196.309 274.933 196.309C273.96 196.309 274.448 196.227 273.154 196.309C271.861 196.392 271.456 196.592 270.645 196.309C269.834 196.027 269.229 195.701 269.554 193.109C269.837 190.52 259.562 184.493 259.562 184.493L242.762 178.507L242.8 178.52Z" fill="#CCA849"/>
<path fill-rule="evenodd" clip-rule="evenodd" d="M223.504 204.085C223.504 204.085 227.184 208.981 242.315 208.981C249.515 208.981 252.024 208.293 253.515 207.888C255.133 207.483 261.2 205.099 267.309 197.896C272.811 191.384 271.597 188.715 271.597 188.715L268.397 188.229L257.997 189.645L227.224 202.752L223.491 204.085H223.504Z" fill="#585136"/>
<path fill-rule="evenodd" clip-rule="evenodd" d="M234.789 205.299C234.789 205.299 221.683 208.213 221.683 199.92C221.683 191.829 229.773 183.333 231.797 181.837C233.901 180.339 238.917 178.637 238.917 178.637H251.013L253.317 184.747L252.307 197.933L234.789 205.296V205.299Z" fill="#252211"/>
<path fill-rule="evenodd" clip-rule="evenodd" d="M246.886 181.109C246.886 181.109 244.379 178.803 238.675 181.909C232.971 185.016 228.358 191.509 228.075 197.405C227.792 202.621 232.363 206.507 239.483 206.709C244.782 206.909 247.979 206.304 249.598 205.909C249.192 205.424 247.088 202.795 247.088 202.795L246.888 181.112L246.886 181.109Z" fill="#C3B378"/>
<path fill-rule="evenodd" clip-rule="evenodd" d="M244.419 182.4C244.419 182.4 243.813 181.915 242.019 182.885C240.523 183.685 238.339 185.8 236.64 187.296C235.547 188.187 234.859 188.589 234.24 189.277C231.731 192.272 229.627 197.168 230.843 199.595C232.059 202.021 236.061 204.813 246.256 202.912L244.389 182.403L244.419 182.4Z" fill="#E6D89C"/>
<path fill-rule="evenodd" clip-rule="evenodd" d="M241.101 187.419C241.101 187.419 239.483 189.928 239.483 193.933C239.483 198.019 241.789 204.531 250.285 205.016C256.797 205.421 261.165 195.632 265.899 191.829C269.499 188.917 271.683 188.835 271.683 188.835C271.683 188.835 268.003 184.835 258.173 179.653C248.464 174.435 237.581 173.747 231.675 181.757C234.467 181.555 243.488 179.248 243.488 179.248L247.899 180.664L241.101 187.421V187.419Z" fill="#252211"/>
<path fill-rule="evenodd" clip-rule="evenodd" d="M253.803 192.717C253.52 192.112 253.317 191.301 254.491 191.101C255.664 190.901 256.189 191.019 256.595 191.901C257 192.784 257.395 193.52 256.795 193.885C256.189 194.208 254.611 193.885 253.8 192.712L253.803 192.717ZM251.901 187.013C251.901 187.013 251.496 187.296 251.699 186.731C251.779 186.045 252.307 184.829 253.6 185.115C254.893 185.4 254.613 186.813 254.4 187.219C254.187 187.624 253.107 188.309 252.296 188.019C252.193 187.992 252.098 187.942 252.018 187.872C251.939 187.802 251.876 187.715 251.837 187.616C251.797 187.518 251.782 187.411 251.791 187.306C251.8 187.2 251.834 187.098 251.891 187.008L251.901 187.013Z" fill="#6F674D"/>
<path fill-rule="evenodd" clip-rule="evenodd" d="M142.4 189.6C142.4 189.6 145.6 192 149.317 191.907C152.997 191.824 157.731 188.024 159.915 185.595C161.208 184.179 162.315 182.683 163.515 181.509C164.528 180.499 165.213 180.013 165.699 179.325C166.387 178.525 167.115 177.021 167.48 176.533C166.589 177.221 165.296 178.437 163.96 179.245C162.667 180.045 159.875 181.549 158.741 181.955C157.651 182.36 146.323 188.355 146.323 188.355L142.4 189.6Z" fill="#AC924C"/>
<path fill-rule="evenodd" clip-rule="evenodd" d="M147.291 159.709C147.291 159.709 149.069 158.496 152.509 157.725C155.827 156.925 162.501 156.309 162.501 156.309L168.003 158.709L170.187 167.003L166.187 175.621L161.091 178.821L155.304 169.517L147.304 159.725L147.291 159.709Z" fill="#9F8E57"/>
<path fill-rule="evenodd" clip-rule="evenodd" d="M140.091 167.112L138.187 168.533C138.187 168.533 138.675 167.643 139.077 164.933C139.48 162.224 141.587 155.629 144.661 151.827C147.736 148.024 147.656 148.227 147.656 148.227C147.373 148.175 147.082 148.184 146.803 148.253C146.524 148.323 146.263 148.451 146.037 148.629C146.443 147.733 149.032 144.533 151.621 142.933C154.211 141.333 155.221 140.829 157.931 142.133C160.64 143.437 161.328 144.115 163.312 144.035C165.296 143.955 166.992 141.851 166.992 141.851C166.992 141.851 167.397 143.144 165.901 146.139C164.405 149.133 158.499 155.24 158.499 155.24L146.2 163.653L140.091 167.12V167.112Z" fill="#EAC970"/>
<path fill-rule="evenodd" clip-rule="evenodd" d="M149.189 158.699C149.189 158.699 158.091 159.912 160.8 157.406C160.88 157.688 161.205 157.688 161.205 157.891C161.184 158.044 161.112 158.185 161.003 158.293C161.297 158.246 161.595 158.22 161.893 158.213C162.25 158.32 162.616 158.387 162.987 158.416C163.285 158.41 163.583 158.382 163.877 158.333C163.849 158.535 163.781 158.728 163.676 158.902C163.572 159.076 163.434 159.227 163.269 159.347C163.675 159.347 164.069 159.427 164.069 159.749C164.069 160.072 164.149 161.045 163.664 161.248C163.262 161.359 162.834 161.33 162.451 161.165C162.483 161.931 162.691 162.68 163.059 163.352C163.859 164.848 165.565 166.552 167.859 166.061C167.859 166.061 169.069 168.973 163.973 175.445C163.288 176.336 162.557 177.549 161.669 178.56C161.319 179.325 161.05 180.125 160.869 180.947C160.869 180.947 169.488 177.629 171.955 170.064C174.464 162.459 174.949 154.976 174.464 147.979C174.381 145.995 174.059 144.581 173.573 143.568C172.36 141.059 168.96 141.464 167.587 142.88C165.603 144.864 162.285 149.797 157.675 153.195C152.981 156.592 152.781 157.195 149.179 158.699H149.189Z" fill="#D7BC6B"/>
<path fill-rule="evenodd" clip-rule="evenodd" d="M138.512 169.621C138.512 169.621 136.813 170.632 135.922 174.421C135.032 178.304 136.722 183.037 137.701 184.533C138.68 186.029 140.901 190.117 145.509 190.32C146.65 190.314 147.778 190.08 148.826 189.632C150.435 188.894 151.944 187.956 153.317 186.84C155.301 185.344 156.917 184.051 156.714 183.928C156.229 183.725 144.498 174.016 144.498 174.016L140.088 169.093L138.509 169.627L138.512 169.621Z" fill="#585136"/>
<path fill-rule="evenodd" clip-rule="evenodd" d="M149.6 185.72C149.6 185.72 151.987 185.52 153.403 184.629C154.819 183.738 145.109 174.112 145.109 174.112L145.797 184.512L149.6 185.72Z" fill="#453A25"/>
<path fill-rule="evenodd" clip-rule="evenodd" d="M139.28 168.891C139.28 168.891 138.067 171.197 138.067 171.805C137.864 173.787 138.472 180.016 138.958 181.997C139.443 184.101 142.072 187.296 145.472 187.296C147.574 187.296 150.488 186.003 150.488 185.68C150.488 185.275 147.494 184.88 146.686 183.373C146.2 182.573 145.998 180.584 145.886 178.573C145.806 177.28 145.806 175.864 146.291 175.373C147.384 174.16 147.584 170.68 147.584 170.68L151.467 163.467H146.36L140.251 167.269L139.28 168.891Z" fill="#84754B"/>
<path fill-rule="evenodd" clip-rule="evenodd" d="M137.784 171.117C137.784 171.117 141.784 165.819 145.39 164.603C148.995 163.387 150.608 164.117 150.608 164.117L148.504 169.499L145.51 172.816L145.712 174.515C145.712 174.515 145.224 179.005 148.219 182.12C151.214 185.235 153.438 185.115 154.734 185.115C156.03 185.115 159.75 184.021 161.651 179.531C163.35 175.325 164.766 169.931 161.368 164.523C158.048 159.141 152.184 158.933 151.051 158.933C149.918 158.933 141.019 159.379 137.784 171.109V171.117Z" fill="#252211"/>
<path fill-rule="evenodd" clip-rule="evenodd" d="M240.493 189.117C238.997 188.429 240.413 184.224 241.909 182.928C243.405 181.632 245.307 180.139 248.627 179.933C249.837 179.853 251.011 180.621 250.811 181.432C250.528 182.928 248.424 185.032 246.523 186.528C243.893 188.592 242.192 189.885 240.493 189.117Z" fill="#F7F7E7"/>
<path fill-rule="evenodd" clip-rule="evenodd" d="M159.587 166.182C160.68 166.102 162.096 166.982 162.379 168.166C162.661 169.459 161.691 172.048 159.587 172.048C157.888 172.048 156.997 169.944 156.997 169.339C157.016 168.841 157.156 168.355 157.403 167.923C157.483 167.8 157.685 166.384 159.587 166.182V166.182Z" fill="#F8F6DE"/>
<path fill-rule="evenodd" clip-rule="evenodd" d="M143.811 167.112C143.811 167.112 141.019 168.405 139.725 171.112C138.801 173.111 138.522 175.347 138.925 177.512C139.128 178.523 140.139 181.029 140.827 181.92C141.515 182.811 142.445 183.419 143.133 183.336C143.821 183.253 145.235 181.435 145.235 180.344C145.235 179.253 145.317 174.64 146.651 172.131C147.824 169.624 143.819 167.115 143.819 167.115L143.811 167.112Z" fill="#D4C38B"/>
<path fill-rule="evenodd" clip-rule="evenodd" d="M144.216 166.909C143.731 167.192 142.923 167.597 143.123 168.123C143.325 168.608 145.024 168.923 145.632 170.107C146.32 171.32 146.32 172.613 146.117 173.221C146.646 172.97 147.125 172.627 147.533 172.208C148.424 171.197 149.515 169.824 150.445 169.824C151.053 169.824 151.659 170.107 152.227 170.107C153.117 170.107 154.005 169.824 154.128 168.893C154.328 167.68 152.429 166.587 151.336 166.789C151.539 165.989 151.821 164.808 150.931 163.997C150.04 163.187 147.251 164.605 146.643 165.011C146.035 165.416 144.216 166.912 144.216 166.912V166.909Z" fill="#E2D59D"/>
<path fill-rule="evenodd" clip-rule="evenodd" d="M208.496 251.902L214.483 250.134L216.182 251.347C216.182 251.347 217.392 253.936 219.296 254.259C218.688 255.552 217.11 256.659 217.192 257.576C217.275 258.494 218.083 259.195 218.083 259.195C218.083 259.195 212.702 268.094 223.302 277.062C220.792 278.072 217.598 279.462 215.899 280.262C217.11 280.544 219.699 281.062 220.792 282.043C221.886 283.024 221.886 283.336 222.896 283.944C223.907 284.552 224.512 285.36 224.312 285.723C223.624 285.318 221.318 284.107 220.915 285.238C220.512 286.368 210.923 285.926 210.923 285.926L194.742 289.04C194.742 289.04 195.347 287.422 193.648 285.926C191.667 284.147 189.24 286.006 186.651 284.024C183.254 281.435 183.131 278.44 182.04 277.31C183.131 276.622 185.358 275.611 190.656 274.91C190.454 274.504 189.766 273.291 190.171 272.2C190.656 270.784 192.678 269.894 192.072 268.2C192.963 267.998 193.366 267.998 195.592 265.206C197.696 262.414 198.99 261.808 200.608 261.606C202.227 261.403 203.198 261.606 206.192 258.814C208.294 256.832 207.608 255.134 207.608 255.134C207.608 255.134 208.982 254.688 208.499 251.896L208.496 251.902Z" fill="#CBAC5A"/>
<path fill-rule="evenodd" clip-rule="evenodd" d="M190.819 252.8C190.899 252.395 191.224 252.192 193.408 252.395C195.592 252.597 209.427 251.101 213.19 250.899C216.992 250.616 230.382 250.816 236.896 252.192C243.411 253.568 250.003 255.187 253.198 255.995C256.398 256.885 257.406 257.205 257.283 257.611C257.203 258.016 256.483 258.411 256.07 258.299C255.667 258.219 245.067 254.981 241.792 254.299C238.518 253.616 227.187 251.789 220.992 251.899C215.208 251.981 212.902 251.819 208.008 252.384C203.112 252.992 195.022 253.8 192.595 253.477C190.195 253.195 190.691 253.195 190.814 252.789L190.819 252.8Z" fill="#D6BC6F"/>
<path fill-rule="evenodd" clip-rule="evenodd" d="M223.381 284.507C223.381 284.507 231.675 288.997 234.669 294.499C236.853 298.584 233.376 300.608 233.376 300.608C233.376 300.608 238.069 300.608 237.461 303.197C237.179 304.813 229.371 309.181 224.152 311.488C218.853 313.795 219.056 313.675 216.467 314.077C213.957 314.483 207.08 313.277 205.664 315.291C204.248 317.304 204.864 319.379 205.259 319.701C205.664 319.984 208.941 320.389 208.941 320.389C208.941 320.389 208.253 322.291 201.459 322.493C194.664 322.696 192.963 323.179 192.557 323.909C192.152 324.595 193.851 324.192 196.968 324.709C200.083 325.195 204.451 325.509 204.451 325.509C204.451 325.509 203.035 326.723 199.355 327.693C195.147 328.784 188.552 329.797 186.571 331.011C187.581 331.699 189.08 332.709 189.771 332.789C188.072 333.195 185.683 334.085 185.28 334.408C185.885 334.813 186.696 335.299 186.696 335.299C186.696 335.299 183.296 339.384 181.315 340.397C179.333 341.411 167.925 346.707 164 345.696C154.211 343.107 152.997 332.387 150.611 331.579C147.011 330.365 145.312 332.789 142.115 331.091C143.531 330.08 144.301 329.475 145.797 328.787C144.179 327.987 135.805 322.677 135.805 322.677C134.93 320.769 133.958 318.906 132.893 317.096C131.275 314.304 128.893 310.581 127.107 307.304C123.224 300.104 123.021 296.787 119.501 292.701C120.109 291.901 122.211 292.013 122.211 292.013L151.704 301.723L204 303.237L217.6 283.821L223.384 284.509L223.381 284.507Z" fill="#DFC677"/>
<path fill-rule="evenodd" clip-rule="evenodd" d="M145.915 314.117C146.23 314.469 146.598 314.769 147.005 315.008C148.019 315.696 149.515 316.507 150.525 317.717C150.931 317.112 151.941 316.019 153.725 317.717C155.509 319.416 157.725 318.205 159.104 318.608C160.52 319.096 160.6 319.296 160.6 319.296C160.6 319.296 161.4 318.608 163.189 317.88C164.283 317.475 165.576 317.192 166.992 316.789C168.285 316.507 169.701 316.101 170.675 316.101C171.565 316.707 174.76 320.101 187.584 315.091C199.68 310.397 202.469 309.872 204.493 310.597C204.696 310.112 204.899 309.181 208.013 309.304C208.013 308.011 205.424 303.6 205.424 303.6L191.144 298.707H183.333L159.912 302.995L146.933 310.4L145.923 314.133L145.915 314.117Z" fill="#C4A859"/>
<path fill-rule="evenodd" clip-rule="evenodd" d="M138.107 305.907C138.107 305.907 138.39 308.091 141.627 310.397C144.827 312.701 145.832 314.077 145.832 314.077C145.832 314.077 146.44 313.277 146.926 312.461C147.411 311.571 147.816 310.56 148.624 310.277C150.243 309.589 153.923 310.883 154.734 310.68C155.422 310.48 155.219 309.064 155.947 309.064C157.646 308.981 158.736 310.154 159.344 310.154C159.952 310.154 161.446 310.074 161.648 309.752C161.851 309.429 161.931 306.069 164.238 304.45C166.747 302.672 169.822 303.44 170.638 303.845C170.638 304.451 170.718 305.949 172.336 306.029C173.955 306.109 174.115 305.827 175.536 306.312C176.958 306.797 178.651 306.232 179.419 308.616C180.107 308.416 181.726 308.213 181.32 305.907C182.12 305.301 182.819 304.896 184.52 302.509C184.926 301.904 185.611 301.216 186.139 300.325C187.555 300.325 189.254 300.042 191.518 302.024C190.83 302.509 190.424 302.824 190.224 303.317C190.816 303.903 191.357 304.54 191.84 305.218C192.448 306.018 192.854 307 193.622 307.203C195.32 307.688 198.112 307 201.227 307.203C204.222 307.405 206.728 308.496 207.822 309.184C208.227 308.984 208.227 308.901 209.238 309.104C210.248 309.307 211.016 309.386 209.926 308.093C210.531 308.376 211.219 308.984 211.827 308.376C212.435 307.768 212.918 306.88 214.616 306.677C216.315 306.475 216.923 306.757 217.611 304.979C218.502 302.795 215.427 302.794 215.427 302.794C215.427 302.794 216.843 301.499 218.422 299.8C220.323 298.021 222.507 295.715 223.032 292.883C223.923 287.664 218.827 286.979 218.827 286.979L194.11 294.584L163.891 293.085L138.123 305.909L138.107 305.907Z" fill="#927D49"/>
<path fill-rule="evenodd" clip-rule="evenodd" d="M115.899 234.507C115.899 234.507 115.099 235.517 114.605 237.904C114.112 240.291 114.323 240.008 113.917 241.707C113.512 243.405 108.533 260.315 110.4 266.019C112.267 271.723 115.499 273.827 117.52 278.437C117.925 279.448 118.32 280.056 118.531 280.947C119.219 283.939 118.613 286.245 119.421 289.24C119.704 290.251 120.435 291.424 121.525 292.637C123.925 295.144 127.837 297.531 129.525 299.229C131.909 301.739 135.309 306.837 139.637 307.32C141.944 307.603 145.221 306.632 147.931 305.016C150.331 303.517 151.813 301.416 154.331 300.216C156.109 299.325 158.011 299.003 159.709 298.597C163.229 297.909 166.427 297.797 168.328 298.192C171.24 298.8 178.117 300.904 181.928 300.904C184.906 300.856 187.867 300.449 190.747 299.691C196.531 297.992 203.528 295.077 208.141 293.784C210.851 292.984 213.035 292.773 215.261 292.288C219.064 291.397 222.259 290.184 224.08 287.877C222.867 286.461 221.371 284.277 213.277 284.357C204.096 284.56 193.496 289.656 188.277 290.467C183.059 291.277 180.795 291.963 174.968 289.859C169.256 287.733 169.067 286.328 169.067 286.328C169.067 286.328 163.069 282.133 160.56 271.44C158.051 260.747 160.56 252.955 167.075 245.549C168.773 243.648 168.368 241.949 168.368 241.949C168.368 241.949 172.656 236.165 171.483 230.749C170.189 225.368 161.896 226.461 161.896 226.461L115.901 234.507H115.899Z" fill="#6E6342"/>
<path fill-rule="evenodd" clip-rule="evenodd" d="M122.816 252.509C122.459 253.18 122.291 253.935 122.331 254.693C122.411 255.784 122.736 257.2 126.011 260.397C128.803 263.187 128.195 266.301 128.195 266.301C128.195 266.301 129.6 266.584 133.413 264.8C136.408 263.384 137.413 265.893 137.413 265.893C138.285 265.436 139.23 265.135 140.205 265.003C141.089 264.921 141.944 264.648 142.712 264.203C142.712 264.203 146.232 267.803 149.307 269.501C152.099 271 153.717 272.011 155.093 271C156.386 270.109 156.387 268.288 156.304 267.48C155.983 266.734 155.577 266.028 155.093 265.376C154.202 264.083 152.786 262.584 152.693 261.376C152.49 258.587 154.797 255.267 154.309 254.459C153.821 253.651 152.005 253.448 147.514 255.067C142.864 256.603 122.797 252.517 122.797 252.517L122.816 252.509Z" fill="#39331F"/>
<path fill-rule="evenodd" clip-rule="evenodd" d="M133.413 270.592C133.413 270.592 131.109 268.408 131.917 257.808C132.895 257.794 133.872 257.888 134.829 258.091C134.829 258.091 136.085 266.304 133.413 270.592Z" fill="#292311"/>
<path fill-rule="evenodd" clip-rule="evenodd" d="M116.992 226.416C117.313 226.178 117.612 225.91 117.882 225.616C117.082 227.112 113.389 233.099 116.384 242.525C119.378 251.909 126.901 258.907 136.165 259.232C145.429 259.557 150.298 255.024 155.866 248.229C158.05 245.52 160.56 242.12 162.784 239.816C166.101 236.213 168.69 235.203 168.69 231.725C168.69 224.605 161.408 221.408 150.688 218.213C139.968 215.019 130.298 215.413 125.282 217.6C120.389 219.984 118.285 222.493 116.989 226.419L116.992 226.416Z" fill="#252211"/>
<path fill-rule="evenodd" clip-rule="evenodd" d="M151.416 273.787L152.216 273.381C152.216 273.381 152.416 270.181 153.712 270.267C155.006 270.469 155.614 272.171 155.491 272.776C155.411 273.381 155.088 274.395 153.792 274.272C152.094 274.312 151.408 273.787 151.408 273.787H151.416Z" fill="#3F3824"/>
<path fill-rule="evenodd" clip-rule="evenodd" d="M147.816 260.195C147.816 260.195 148.616 259.912 149.595 260.883C150.395 260.883 153.883 260.477 154.976 261.165C156.069 261.853 156.392 262.459 156.392 262.459C156.392 262.459 152.307 263.349 150.08 262.459C147.816 261.691 147.816 260.195 147.816 260.195V260.195Z" fill="#2D2815"/>
<path fill-rule="evenodd" clip-rule="evenodd" d="M165.818 260.8C165.818 260.597 163.634 259.101 161.328 258.613C160.922 258.533 160.84 258.816 160.528 258.816C160.325 258.736 160.245 258.128 160.245 258.128L158.933 258.819C158.933 258.819 158.73 259.101 159.418 259.619C160.024 260.104 161.037 260.509 161.32 261.317C161.602 262.125 161.602 262.408 161.725 262.531C161.805 262.611 163.221 262.531 163.909 262.125C164.597 261.72 165.893 261.059 165.81 260.792L165.818 260.8Z" fill="#82764F"/>
<path fill-rule="evenodd" clip-rule="evenodd" d="M145.389 269.014C145.389 269.014 145.792 266.224 148.504 266.102C151.293 265.899 151.821 268.608 151.821 268.608L150.203 270.227C150.203 270.187 148.989 268.488 145.403 269.014H145.389Z" fill="#2D2816"/>
<path fill-rule="evenodd" clip-rule="evenodd" d="M162.987 256.997C162.987 256.997 161.488 258.616 158.173 259.101C157.891 258.696 157.283 257.888 158.173 256.595C159.064 255.301 160.075 254.896 161.085 255.299C161.531 255.371 161.947 255.569 162.284 255.87C162.621 256.171 162.865 256.562 162.987 256.997V256.997Z" fill="#574F35"/>
<path fill-rule="evenodd" clip-rule="evenodd" d="M169.094 258.981C169.176 258.576 168.894 258.496 169.094 258.293C169.294 258.091 170.39 257.688 170.592 257.888C170.672 257.971 170.592 258.293 170.592 258.688C170.592 259.083 170.592 259.488 170.39 259.779C170.107 260.184 169.299 260.387 168.894 260.267C168.488 260.147 168.408 259.579 168.408 259.467C168.608 259.387 169.094 259.184 169.094 258.981ZM176 254.613C176 254.411 176.688 254.005 177.094 254.005C177.699 254.005 177.699 254.491 177.782 254.613C177.982 254.693 177.982 254.531 178.184 254.896C178.387 255.261 178.672 255.907 178.467 256.312C178.262 256.717 177.456 256.997 177.256 256.917C176.974 256.715 176.083 254.896 176 254.613V254.613Z" fill="#82764F"/>
<path fill-rule="evenodd" clip-rule="evenodd" d="M162.096 259.912C162.096 259.912 162.987 260.112 164.2 261.126C163.795 261.408 163.187 261.731 163.187 261.731C163.187 261.731 163.107 260.8 162.096 259.91V259.912Z" fill="#6E6342"/>
<path fill-rule="evenodd" clip-rule="evenodd" d="M160.115 251.01C159.912 250.81 160.72 250.325 161.205 250.405C161.691 250.485 161.893 250.81 162.419 250.89C162.944 250.97 163.027 250.688 163.219 250.485C163.411 250.282 164.109 250.405 164.229 250.485C164.304 250.574 164.372 250.669 164.432 250.768C164.441 250.614 164.481 250.463 164.55 250.326C164.619 250.188 164.716 250.066 164.835 249.968C164.99 249.854 165.169 249.776 165.358 249.741C165.548 249.706 165.742 249.714 165.928 249.765C166.008 250.048 166.413 251.058 166.333 251.261C166.253 251.464 165.04 251.749 164.835 251.544C165.037 252.032 165.928 253.042 166.048 253.242C166.168 253.442 165.157 253.93 164.755 253.85C164.189 253.81 160.709 251.786 160.104 251.018L160.115 251.01ZM165.413 244.296C165.338 244.092 165.195 243.921 165.008 243.81C164.725 243.73 163.795 243.81 163.795 244.296C163.795 244.781 164.595 247.496 165.493 248.909C166.507 250.325 167.192 251.496 167.88 251.821C168.096 251.92 168.341 251.932 168.566 251.857C168.792 251.782 168.98 251.624 169.093 251.416C169.173 251.213 169.376 249.717 169.296 246.197C169.216 242.677 169.093 239.28 168.891 239.077C168.688 238.874 167.88 238.877 167.597 239.28C167.315 239.682 165.493 243.69 165.411 244.296H165.413Z" fill="#585136"/>
<path fill-rule="evenodd" clip-rule="evenodd" d="M161.813 265.008C161.813 265.008 160.397 264.117 159.021 264.725C157.728 265.333 157.808 267.72 157.808 267.72C158.099 267.834 158.413 267.875 158.724 267.84C159.034 267.804 159.332 267.694 159.589 267.517C160.48 266.912 161.611 265.901 161.813 265.011V265.008Z" fill="#574F35"/>
<path fill-rule="evenodd" clip-rule="evenodd" d="M164.483 268.205C164.403 267.405 163.683 267.405 163.683 266.992C163.732 266.794 163.847 266.619 164.008 266.494C164.169 266.37 164.367 266.303 164.571 266.304C164.976 266.304 165.371 266.789 165.867 267.104C166.352 267.387 167.08 267.904 167.16 268.52C167.24 269.136 166.36 270.824 165.381 270.824C164.403 270.824 164.693 269.003 164.491 268.195L164.483 268.205ZM172.291 267.112C172.291 267.112 170.672 267.597 170.792 267.112C170.912 266.627 171.28 266.507 171.805 266.507C172.072 266.227 172.431 266.054 172.816 266.019C173.036 266.008 173.252 266.08 173.421 266.221C173.421 266.221 174.515 265.736 174.837 266.019C175.16 266.301 174.92 266.301 175.12 266.627C175.375 266.988 175.542 267.403 175.608 267.84C175.608 268.163 174.395 268.851 173.421 268.731C172.291 268.488 172.491 267.315 172.291 267.112V267.112ZM181.715 265.291C181.715 265.291 182.2 265.573 181.797 265.899C181.515 266.181 180.099 266.699 178.883 266.789C177.669 266.789 176.579 266.989 176.579 266.587C176.579 266.184 177.589 265.373 178.195 265.171C178.316 265.019 178.47 264.896 178.646 264.812C178.821 264.728 179.013 264.685 179.208 264.685C179.693 264.685 181.592 264.483 182.12 264.403C182.605 264.32 183.011 264.603 182.725 265.008C182.605 265.291 181.715 265.291 181.715 265.291V265.291ZM184.507 252.8C184.507 252.8 183.899 254.093 183.213 254.093C182.525 254.013 182.525 253.811 182.525 253.608C182.525 253.325 183.213 252.597 183.131 252.395C182.931 252.395 182.443 252.395 182.525 251.909C182.525 251.504 183.213 251.019 183.819 251.109C184.276 250.733 184.845 250.52 185.437 250.504C186.125 250.504 186.731 250.704 186.731 251.109C186.731 251.515 185.931 252.403 185.637 252.608C185.315 252.931 184.909 253.141 184.507 252.808V252.8ZM175.283 276.707C175.283 276.707 174.483 276.789 174.483 277.192C174.483 277.395 174.683 277.395 174.968 277.275C175.132 277.265 175.295 277.238 175.453 277.192C175.533 277.275 175.533 277.677 176.141 277.677C176.641 277.61 177.122 277.445 177.557 277.192C178.043 276.992 178.448 276.787 178.448 276.392C178.245 275.704 177.84 275.379 177.235 275.379C176.924 275.359 176.615 275.429 176.344 275.581C176.344 275.581 176.141 275.176 175.453 275.581C174.765 275.987 174.845 275.987 175.048 276.189C175.411 276.512 175.291 276.723 175.291 276.723L175.283 276.707ZM170.712 280.915C170.712 280.712 171.723 280.307 172.005 280.429C172.288 280.509 173.096 282.045 173.096 282.208C173.096 282.411 172.085 282.896 171.68 282.896C171.275 282.896 170.589 282.208 170.589 282.096C170.589 282.016 171.075 281.896 171.075 281.813C171.195 281.613 170.712 281.125 170.712 280.923V280.915ZM167.512 275.008C167.715 274.928 167.715 274.725 167.997 274.523C168.086 274.464 168.187 274.426 168.292 274.412C168.397 274.398 168.505 274.409 168.605 274.443C168.677 274.315 168.775 274.206 168.894 274.121C169.013 274.037 169.15 273.98 169.293 273.955C169.779 273.875 170.184 273.955 170.093 274.157C170.093 274.765 170.499 275.168 170.499 275.653C170.499 276.139 170.216 276.747 169.205 277.152C168.195 277.435 166.819 277.435 166.616 277.355C166.413 277.275 166.211 276.464 166.413 276.059C166.616 275.653 167.181 275.211 167.507 275.008H167.512Z" fill="#82764F"/>
<path fill-rule="evenodd" clip-rule="evenodd" d="M168.8 275.283C168.8 275.283 168.112 275.688 168.112 275.891C168.051 276.086 168.024 276.291 168.032 276.496C168.032 276.616 168.923 276.416 169.043 276.293C169.083 276.213 168.8 275.493 168.8 275.283Z" fill="#6E6342"/>
<path fill-rule="evenodd" clip-rule="evenodd" d="M162.784 273.382C163.187 273.464 163.875 273.382 164.4 273.584C164.805 273.787 165.088 274.192 164.683 274.678C164.277 275.163 163.883 275.891 162.984 275.768C161.973 275.688 161.003 275.163 161.003 274.758C160.986 274.501 161.02 274.244 161.103 274.001C161.186 273.758 161.317 273.534 161.488 273.342C161.893 273.019 162.093 273.222 162.781 273.382H162.784Z" fill="#585136"/>
<path fill-rule="evenodd" clip-rule="evenodd" d="M162.299 273.787C162.299 273.787 161.005 274.797 160.68 275.285C160.275 275.771 158.293 278.277 157.688 278.803C157.889 278.448 158.118 278.11 158.373 277.792C157.573 278.304 156.974 279.075 156.675 279.976C156.189 281.475 159.387 282.283 161.488 282.891C163.589 283.499 164.403 283.691 164.403 283.691C163.629 282.528 162.965 281.296 162.419 280.011C161.619 278.109 161.205 277.907 161.731 277.016C162.136 276.125 162.744 275.52 162.744 274.832C162.501 274.192 162.299 273.787 162.299 273.787Z" fill="#574F35"/>
<path fill-rule="evenodd" clip-rule="evenodd" d="M116.181 276.984C116.476 277.038 116.777 277.038 117.072 276.984C117.677 276.901 123.989 274.584 130.584 275C135.521 275.298 140.414 276.103 145.186 277.4C153.48 279.584 163.794 283.912 170.469 286.381C172.248 287.067 173.989 288.283 175.269 288.765C180.368 290.749 180.568 290.749 183.562 291.275C187.082 291.76 190.682 290.587 194.445 289.779C199.056 288.765 206.944 288.28 213.861 287.269C216.098 286.959 218.304 286.459 220.456 285.773C220.456 285.773 214.954 291.275 201.765 293.256C196.434 294.066 191.016 294.134 185.666 293.459C181.458 293.053 178.669 292.445 176.565 291.84C174.178 291.152 169.282 289.331 163.256 287.84C159.048 286.747 154.354 285.939 148.976 284.928C135.706 282.499 121.306 279.709 116.176 277L116.181 276.984Z" fill="#252211"/>
<path fill-rule="evenodd" clip-rule="evenodd" d="M101.293 251.984C98.0934 254.693 94.6988 257.282 91.3841 259.789L81.3921 267.466C77.9948 269.973 74.6774 272.562 71.2774 275.072C67.8774 277.581 64.4828 279.965 60.8774 282.272C64.0774 279.562 67.4721 277.053 70.8694 274.586C74.2668 272.12 77.7894 269.701 81.0668 267.2L91.0588 259.512C94.4961 257.005 97.8134 254.416 101.293 251.989V251.984ZM83.6161 280.301C83.6161 280.301 87.2161 277.306 91.7068 273.101C97.2881 267.885 104.125 261.208 106.309 259.997L83.6134 280.304L83.6161 280.301Z" fill="#CFB66C"/>
<path fill-rule="evenodd" clip-rule="evenodd" d="M83.616 280.299C85.3973 278.52 87.2986 276.782 89.2 275.08L92.112 272.574C93.0026 271.774 94.016 270.875 94.904 269.984C96.6826 268.206 98.424 266.302 100.203 264.483C101.084 263.568 102.016 262.704 102.995 261.894C103.484 261.461 104.027 261.093 104.611 260.8C105.099 260.518 105.624 260 106.309 259.91C105.907 260.518 105.421 260.8 105.016 261.326C104.531 261.731 104.125 262.216 103.723 262.619C102.832 263.51 101.821 264.318 100.931 265.128C99.0293 266.747 97.048 268.328 95.1466 270.022C93.2453 271.715 91.4666 273.542 89.5626 275.24C87.5013 276.982 85.6 278.68 83.616 280.307V280.299ZM107.808 264.118C107.808 264.118 94.6213 277.024 91.9093 279.126L107.808 264.118Z" fill="#CFB66C"/>
<path fill-rule="evenodd" clip-rule="evenodd" d="M107.808 264.117C106.622 265.49 105.35 266.787 104 268L99.9998 271.803C98.7065 273.096 97.4905 274.392 96.1172 275.685C94.7012 276.899 93.4078 278.085 91.9092 279.205L95.7918 275.403C97.0878 274.109 98.5038 273.019 99.8798 271.723L103.763 267.92C105.096 266.587 106.392 265.291 107.808 264.117V264.117ZM108.413 271.115C107.198 274.507 105.765 277.818 104.125 281.027C100.728 287.824 95.6318 296.317 93.4052 300.648L108.413 271.115Z" fill="#CFB66C"/>
<path fill-rule="evenodd" clip-rule="evenodd" d="M108.413 271.117C108.413 272.613 108.008 273.909 107.522 275.203C107.049 276.497 106.51 277.766 105.906 279.005C105.298 280.219 104.61 281.515 103.922 282.688C103.234 283.861 102.426 285.072 101.818 286.288L97.7331 293.488C96.3171 295.888 94.9411 298.301 93.4451 300.608C94.4557 298.019 95.8317 295.592 97.1277 293.205C98.5437 290.805 99.8371 288.405 101.128 285.923C101.758 284.686 102.325 283.417 102.826 282.123C103.432 280.827 104.037 279.613 104.525 278.44C105.13 277.147 105.616 275.931 106.224 274.76C106.909 273.504 107.477 272.291 108.408 271.117H108.413Z" fill="#CFB66C"/>
<path fill-rule="evenodd" clip-rule="evenodd" d="M122.816 304.288C122.816 304.288 118.816 309.587 119.216 316.301C120.307 312.784 121.683 307.403 122.816 304.288ZM126.619 309.6C126.619 309.6 125.203 324 124.029 331.08C125.688 322.896 126.011 323.584 126.619 309.6ZM153.115 331.931C153.115 331.931 147.128 349.531 147.005 354.421C148.301 349.392 150.808 339.117 153.115 331.917V331.931Z" fill="#DEC270"/>
<path fill-rule="evenodd" clip-rule="evenodd" d="M167.112 303.2C167.112 303.2 176.821 319.219 184.104 332.891C182.133 326.011 177.6 313.392 167.112 303.2Z" fill="#CBAF59"/>
<path fill-rule="evenodd" clip-rule="evenodd" d="M193.205 326.781C198.536 336.205 203.343 345.914 207.605 355.867C206.797 348.989 204.61 337.219 193.205 326.781Z" fill="#E3C677"/>
<path fill-rule="evenodd" clip-rule="evenodd" d="M269.904 350.4C271.52 349.39 274.717 343.886 277.509 342.512C280.299 341.096 282.403 340.814 284.912 338.022C287.419 335.107 288.112 333.328 293.608 331.024C301.296 327.704 296.008 323.416 296.008 323.416C296.855 322.584 297.76 321.814 298.717 321.112C300.701 319.616 303.005 317.795 302.805 314.598C302.523 309.219 301.512 301.411 297.101 296.88C301.389 295.99 309.6 295.384 314.701 294.091C320.605 292.592 323.317 290.488 323.317 290.488C323.317 290.488 319.92 284.704 325.421 278.88C330.923 273.056 335.413 269.576 338.731 263.062C334.928 262.576 329.131 260.555 314.336 266.176C315.135 266.552 315.906 266.984 316.643 267.47C316.643 267.47 307.541 269.979 304.224 272.771C298.437 277.664 297.709 281.67 291.44 284.664C285.171 287.659 278.859 286.848 273.643 289.275C268.427 291.702 267.656 293.766 265.752 294.656C266.157 295.142 265.672 295.95 266.44 296.638C265.955 297.326 263.123 301.936 260.251 301.936C260.533 303.03 262.96 303.838 262.96 303.838C262.96 303.838 261.181 305.134 256.651 305.456C258.955 307.856 261.141 310.472 267.168 314.275C266.683 315.286 264.659 316.784 265.469 318.686C266.36 320.587 268.669 323.176 277.888 325.28C273.195 325.48 267.696 326.574 260.288 325.563C252.885 324.672 251.672 324.147 247.101 325.28C247.587 325.766 248.88 325.766 250.013 327.059C248.8 327.139 241.195 326.168 238.605 329.568C235.896 333.086 234.723 338.872 234.925 342.755C233.509 343.443 232.133 344.656 232.821 347.166C233.509 349.675 237.109 350.483 239.416 352.059C241.72 353.758 241.923 354.363 244.109 353.96C246.413 353.475 249.811 351.171 251.795 351.171C253.779 351.171 255.192 352.667 255.192 352.667C255.192 352.667 260.573 350.078 261.099 350.563C261.584 351.048 261.179 354.163 261.704 354.648C262.237 355.014 268.299 351.414 269.917 350.4H269.904Z" fill="#ECD592"/>
<path fill-rule="evenodd" clip-rule="evenodd" d="M387.502 188.512C362.219 123.221 299.717 111.125 299.717 111.125H121.4L122.088 177.629H157.6V326.133H121.397V392.517H294.782C336.568 392.517 370.064 350.525 370.064 350.525C423.704 274.395 387.499 188.512 387.499 188.512H387.502ZM295.712 305.784C295.712 305.784 282.112 325.405 267.315 325.405H237.715L237.013 177.792H275C275 177.792 292.6 181.472 304.896 216.301C304.896 216.301 321.198 266.168 295.712 305.784V305.784Z" fill="white" fill-opacity="0.8"/>
<g clip-path="url(#clip1_201_2)">
<mask id="path-125-outside-1_201_2" maskUnits="userSpaceOnUse" x="366.691" y="-0.583374" width="133" height="150" fill="black">
<rect fill="white" x="366.691" y="-0.583374" width="133" height="150"/>
<path d="M433.146 12.5958C433.338 12.4849 433.575 12.4849 433.767 12.5958L486.912 43.2791C487.104 43.39 487.222 43.5949 487.222 43.8167V105.183C487.222 105.405 487.104 105.61 486.912 105.721L433.767 136.404C433.575 136.515 433.338 136.515 433.146 136.404L380.001 105.721C379.809 105.61 379.691 105.405 379.691 105.183V43.8167C379.691 43.5949 379.809 43.39 380.001 43.2791L433.146 12.5958Z"/>
</mask>
<path d="M433.767 12.5958L439.975 1.8427L433.767 12.5958ZM433.146 12.5958L426.938 1.8427L433.146 12.5958ZM380.001 43.2791L386.209 54.0322L380.001 43.2791ZM380.001 105.721L386.209 94.9677L380.001 105.721ZM433.767 136.404L439.975 147.157L433.767 136.404ZM433.146 136.404L426.938 147.157L433.146 136.404ZM486.912 105.721L480.703 94.9677L486.912 105.721ZM486.912 43.2791L493.12 32.5259L486.912 43.2791ZM474.805 43.8167V105.183H499.639V43.8167H474.805ZM480.703 94.9677L427.558 125.651L439.975 147.157L493.12 116.474L480.703 94.9677ZM439.354 125.651L386.209 94.9677L373.793 116.474L426.938 147.157L439.354 125.651ZM392.107 105.183V43.8167H367.274V105.183H392.107ZM427.559 23.349L480.703 54.0322L493.12 32.5259L439.975 1.8427L427.559 23.349ZM386.209 54.0322L439.354 23.349L426.938 1.8427L373.793 32.5259L386.209 54.0322ZM439.975 1.8427C435.941 -0.486216 430.972 -0.486242 426.938 1.8427L439.354 23.349C435.705 25.4561 431.208 25.4561 427.559 23.349L439.975 1.8427ZM392.107 43.8167C392.107 48.031 389.859 51.9251 386.209 54.0322L373.793 32.5259C369.759 34.8548 367.274 39.1589 367.274 43.8167H392.107ZM386.209 94.9677C389.859 97.0748 392.107 100.969 392.107 105.183H367.274C367.274 109.841 369.759 114.145 373.793 116.474L386.209 94.9677ZM427.558 125.651C431.208 123.544 435.705 123.544 439.354 125.651L426.938 147.157C430.971 149.486 435.941 149.486 439.975 147.157L427.558 125.651ZM474.805 105.183C474.805 100.969 477.054 97.0748 480.703 94.9677L493.12 116.474C497.154 114.145 499.639 109.841 499.639 105.183H474.805ZM499.639 43.8167C499.639 39.1589 497.154 34.8549 493.12 32.5259L480.703 54.0322C477.054 51.9251 474.805 48.0309 474.805 43.8167H499.639Z" fill="#673910" mask="url(#path-125-outside-1_201_2)"/>
<path d="M487.222 105.542V43.4584L433.456 74.5V136.583L487.222 105.542Z" fill="#AA561F"/>
<path d="M379.691 105.542L433.456 136.583V74.5L379.691 43.4584V105.542Z" fill="#F1B155"/>
<path d="M487.222 43.4583L433.456 12.4166L379.691 43.4583L433.456 74.5L487.222 43.4583Z" fill="#C56D28"/>
</g>
</g>
<defs>
<clipPath id="clip0_201_2">
<rect width="500" height="500" fill="white"/>
</clipPath>
<clipPath id="clip1_201_2">
<rect width="132.858" height="149" fill="white" transform="translate(367.142)"/>
</clipPath>
</defs>
</svg>
